M48
; DRILL file {KiCad 5.1.4-e60b266~84~ubuntu18.04.1} date Tue 24 Sep 2019 09:27:04 PM EDT
; FORMAT={-:-/ absolute / inch / decimal}
; #@! TF.CreationDate,2019-09-24T21:27:04-04:00
; #@! TF.GenerationSoftware,Kicad,Pcbnew,5.1.4-e60b266~84~ubuntu18.04.1
; #@! TF.FileFunction,Plated,1,2,PTH
FMAT,2
INCH
T1C0.0157
T2C0.0197
T3C0.0236
T4C0.0394
T5C0.0472
T6C0.0551
T7C0.1260
%
G90
G05
T1
X1.3245Y-0.86
X1.4922Y-3.606
X1.7082Y-4.161
X1.7266Y-5.7765
X1.7275Y-5.4502
X1.7388Y-5.0148
X1.7388Y-6.245
X1.7402Y-2.0384
X1.7402Y-2.7479
X1.7402Y-3.0432
X1.7836Y-4.5341
X1.7912Y-3.767
X1.7972Y-3.417
X1.8189Y-1.243
X1.8216Y-1.5994
X1.853Y-4.7836
X1.9592Y-3.87
X1.9952Y-3.896
X2.2387Y-6.4641
X2.3582Y-4.348
X2.4469Y-0.8091
X2.4587Y-4.5783
X2.4732Y-3.66
X2.478Y-4.7167
X2.5262Y-2.552
X2.5418Y-2.7328
X2.5433Y-2.9597
X2.5572Y-4.071
X2.6062Y-3.773
X2.6062Y-3.873
X2.6072Y-3.973
X2.6513Y-5.6337
X2.7033Y-2.0737
X2.7322Y-3.611
X2.7727Y-4.3047
X2.7807Y-3.3144
X2.7826Y-2.6018
X2.789Y-5.2788
X2.7951Y-5.6311
X2.8178Y-1.9745
X2.8346Y-4.6604
X2.838Y-2.4031
X2.8394Y-2.5058
X2.8406Y-0.8091
X2.8407Y-2.7018
X2.8449Y-4.1211
X2.8449Y-3.9219
X2.8459Y-4.0226
X2.847Y-3.8202
X2.852Y-3.1057
X2.8521Y-3.1775
X2.8556Y-3.409
X2.8713Y-6.0006
X2.8769Y-2.0741
X2.9603Y-6.6694
X3.0277Y-5.6646
X3.0717Y-5.6269
X3.0882Y-4.3086
X3.1081Y-2.131
X3.1176Y-5.6641
X3.1212Y-2.9528
X3.1284Y-2.2491
X3.1562Y-5.152
X3.1562Y-5.1995
X3.1562Y-5.452
X3.1562Y-5.4995
X3.1575Y-5.6242
X3.1587Y-5.252
X3.1587Y-5.2995
X3.1587Y-5.352
X3.1587Y-5.3995
X3.1624Y-2.5521
X3.1654Y-3.662
X3.1687Y-3.0199
X3.1812Y-3.963
X3.1972Y-4.9695
X3.2141Y-3.4597
X3.2148Y-3.6031
X3.3226Y-3.0456
X3.3258Y-2.8175
X3.3858Y-0.8091
X3.3908Y-3.6847
X3.4072Y-6.6694
X3.452Y-5.9149
X3.4528Y-5.7609
X3.4532Y-1.2283
X3.6421Y-3.0516
X3.6475Y-2.8145
X3.6886Y-5.8093
X3.6886Y-5.8595
X3.6893Y-5.7631
X3.6962Y-4.8674
X3.6982Y-4.416
X3.6988Y-4.1996
X3.7052Y-3.915
X3.7278Y-3.4238
X3.7613Y-3.6463
X3.8474Y-5.7611
X3.8474Y-5.8582
X3.848Y-5.8093
X3.8555Y-6.6774
X3.8655Y-3.0682
X3.8677Y-2.4422
X3.8721Y-2.1166
X3.9029Y-3.6906
X3.913Y-4.0355
X3.913Y-4.4579
X3.9311Y-0.8051
X3.9453Y-1.175
X3.9453Y-1.5687
X3.9755Y-2.8165
X3.9783Y-3.4587
X4.0076Y-5.4563
X4.0096Y-3.0123
X4.0096Y-5.5295
X4.0557Y-5.4933
X4.0846Y-3.2539
X4.128Y-2.8917
X4.1319Y-2.3071
X4.1378Y-6.122
X4.1857Y-4.8653
X4.1857Y-4.9244
X4.1857Y-4.9835
X4.1857Y-5.0425
X4.1857Y-5.1016
X4.1857Y-5.1606
X4.1857Y-5.2197
X4.2447Y-4.8653
X4.2447Y-4.9244
X4.2447Y-4.9835
X4.2447Y-5.0425
X4.2447Y-5.1016
X4.2447Y-5.1606
X4.2447Y-5.2197
X4.2854Y-2.5138
X4.2854Y-2.7953
X4.2874Y-6.6732
X4.3038Y-4.8653
X4.3038Y-4.9244
X4.3038Y-4.9835
X4.3038Y-5.0425
X4.3038Y-5.1016
X4.3038Y-5.1606
X4.3038Y-5.2197
X4.3228Y-2.1339
X4.3465Y-5.9252
X4.3628Y-4.8653
X4.3628Y-4.9244
X4.3628Y-4.9835
X4.3628Y-5.0425
X4.3628Y-5.1016
X4.3628Y-5.1606
X4.3628Y-5.2197
X4.3701Y-1.5689
X4.4172Y-1.1669
X4.4219Y-4.8653
X4.4219Y-4.9244
X4.4219Y-4.9835
X4.4219Y-5.0425
X4.4219Y-5.1016
X4.4219Y-5.1606
X4.4219Y-5.2197
X4.435Y-0.8051
X4.481Y-4.8653
X4.481Y-4.9244
X4.481Y-4.9835
X4.481Y-5.0425
X4.481Y-5.1016
X4.481Y-5.1606
X4.481Y-5.2197
X4.5236Y-1.687
X4.54Y-4.8653
X4.54Y-4.9244
X4.54Y-4.9835
X4.54Y-5.0425
X4.54Y-5.1016
X4.54Y-5.1606
X4.54Y-5.2197
X4.5738Y-2.133
X4.6083Y-2.6457
X4.6334Y-5.439
X4.6535Y-1.752
X4.6575Y-6.1299
X4.7146Y-1.0807
X4.7146Y-1.1319
X4.7269Y-5.0592
X4.7412Y-4.9145
X4.7642Y-6.6703
X4.7972Y-1.4094
X4.8287Y-3.2047
X4.8819Y-1.0827
X4.8819Y-1.1339
X4.9305Y-2.7878
X4.9875Y-2.8496
X5.038Y-2.791
X5.0437Y-4.9645
X5.1862Y-4.927
X5.2441Y-0.7067
X5.2617Y-2.5122
X5.2972Y-1.3012
X5.3051Y-5.6024
X5.3085Y-5.2928
X5.3088Y-5.2013
X5.3169Y-6.6673
X5.3588Y-5.2497
X5.4403Y-2.6656
X5.5059Y-1.3071
X5.5331Y-2.5418
X5.563Y-5.7992
X5.6048Y-2.804
X5.6697Y-3.0555
X5.7283Y-1.3012
X5.7782Y-2.3626
X5.7931Y-2.0533
X5.8602Y-6.6693
X5.8996Y-5.6614
X5.9466Y-2.0485
X5.9466Y-2.2412
X5.9467Y-2.1445
X6.034Y-2.817
X6.0374Y-0.8228
X6.0387Y-1.6927
X6.0405Y-2.1275
X6.0405Y-2.2216
X6.0405Y-2.3137
X6.041Y-1.768
X6.0781Y-5.9723
X6.0943Y-4.2781
X6.1125Y-3.6892
X6.139Y-4.5623
X6.187Y-2.0945
X6.1873Y-1.6257
X6.2239Y-4.7305
X6.2862Y-4.408
X6.3525Y-6.5765
X6.3538Y-6.2896
X6.3809Y-1.5565
X6.3944Y-2.6892
X6.3976Y-1.624
X6.3983Y-3.2734
X6.4021Y-4.9521
X6.4047Y-4.7292
X6.4117Y-4.4833
X6.4154Y-2.7598
X6.4369Y-4.2626
X6.437Y-1.6969
X6.4429Y-1.2776
X6.4435Y-1.2184
X6.4505Y-2.3202
X6.4508Y-2.8209
X6.4528Y-2.3878
X6.5225Y-3.0726
X6.5433Y-1.7618
X6.565Y-0.9193
X6.6363Y-5.8757
X7.1626Y-5.0737
X7.1682Y-4.8502
X7.171Y-4.0067
X7.171Y-4.5402
X7.1793Y-4.3195
X7.1821Y-3.772
X7.1933Y-6.1742
X7.2122Y-1.5952
X7.2421Y-0.9232
X7.2776Y-2.1142
X7.2867Y-1.6385
X7.3164Y-2.6766
X7.3325Y-1.7105
X7.3413Y-6.5346
X7.3455Y-2.7444
X7.3622Y-1.7815
X7.3661Y-1.2717
X7.3661Y-2.813
X7.3666Y-1.2137
X7.374Y-2.3898
X7.3743Y-2.3145
X7.4024Y-3.0292
X7.4587Y-1.7579
X8.0819Y-2.9198
X8.13Y-6.0898
X8.1402Y-4.5597
X8.143Y-3.7636
X8.143Y-4.0011
X8.143Y-5.6463
X8.1458Y-4.3195
X8.1458Y-4.8474
X8.1458Y-5.3977
X8.1486Y-5.0737
X8.1909Y-2.0807
X8.2274Y-1.635
X8.2397Y-2.9714
X8.2579Y-1.7106
X8.2579Y-3.0512
X8.2874Y-1.8012
X8.2881Y-1.2168
X8.2894Y-1.2776
X8.2911Y-3.4787
X8.2953Y-3.1142
X8.3044Y-2.3363
X8.3051Y-2.4016
X8.372Y-1.7736
X8.5035Y-3.1106
X8.5117Y-3.7273
X8.5285Y-6.2888
X8.6542Y-3.4647
X8.8665Y-3.7245
X8.8721Y-6.0849
X8.8776Y-4.4368
X8.8804Y-4.9899
X8.886Y-5.5402
T2
X2.5937Y-5.1495
X2.5937Y-5.1995
X2.5937Y-5.2495
X2.5937Y-5.2995
X2.5937Y-5.3495
X2.5937Y-5.3995
X2.5937Y-5.4495
X2.5937Y-5.4995
X8.2583Y-0.8589
X8.286Y-0.792
X8.286Y-0.9257
X8.3528Y-0.7644
X8.3528Y-0.9533
X8.4196Y-0.792
X8.4196Y-0.9257
X8.4473Y-0.8589
X1.5654Y-6.5675
X1.5931Y-6.5007
X1.5931Y-6.6343
X1.6599Y-6.473
X1.6599Y-6.662
X1.7267Y-6.5007
X1.7267Y-6.6343
X1.7544Y-6.5675
X1.5654Y-0.8589
X1.5931Y-0.792
X1.5931Y-0.9257
X1.6599Y-0.7644
X1.6599Y-0.9533
X1.7267Y-0.792
X1.7267Y-0.9257
X1.7544Y-0.8589
X8.2583Y-6.5675
X8.286Y-6.5007
X8.286Y-6.6343
X8.3528Y-6.473
X8.3528Y-6.662
X8.4196Y-6.5007
X8.4196Y-6.6343
X8.4473Y-6.5675
T3
X2.9041Y-2.552
X2.9053Y-3.261
X2.9053Y-3.9729
X2.9053Y-4.4362
X3.2652Y-3.661
X3.5628Y-5.6434
X3.5633Y-5.5126
X3.7474Y-1.7537
X4.5976Y-4.6313
X4.698Y-4.6297
X4.8857Y-5.5704
X5.0612Y-1.902
X5.251Y-3.0123
X5.2641Y-4.7891
X5.369Y-4.7912
X5.5183Y-4.713
X5.5237Y-1.897
T4
X3.4629Y-2.2098
X3.4629Y-2.3098
X3.4629Y-2.4098
X3.4629Y-2.5098
X3.4629Y-2.6098
X3.5629Y-2.2098
X3.5629Y-2.3098
X3.5629Y-2.4098
X3.5629Y-2.5098
X3.5629Y-2.6098
X5.9255Y-3.232
X5.9255Y-3.332
X5.9255Y-3.432
X5.9255Y-3.532
X5.9255Y-3.632
X5.9255Y-3.732
X5.9255Y-3.832
X5.9255Y-3.932
X5.9255Y-4.032
X5.9255Y-4.132
X5.9255Y-4.232
X5.9255Y-4.332
X5.9255Y-4.432
X5.9255Y-4.532
X5.9255Y-4.632
X5.9255Y-4.732
X5.9255Y-4.832
X5.9255Y-4.932
X5.9255Y-5.032
X5.9255Y-5.132
X6.0255Y-3.232
X6.0255Y-3.332
X6.0255Y-3.432
X6.0255Y-3.532
X6.0255Y-3.632
X6.0255Y-3.732
X6.0255Y-3.832
X6.0255Y-3.932
X6.0255Y-4.032
X6.0255Y-4.132
X6.0255Y-4.232
X6.0255Y-4.332
X6.0255Y-4.432
X6.0255Y-4.532
X6.0255Y-4.632
X6.0255Y-4.732
X6.0255Y-4.832
X6.0255Y-4.932
X6.0255Y-5.032
X6.0255Y-5.132
X3.4629Y-3.2334
X3.4629Y-3.3334
X3.4629Y-3.4334
X3.4629Y-3.5334
X3.4629Y-3.6334
X3.4629Y-3.7334
X3.4629Y-3.8334
X3.4629Y-3.9334
X3.4629Y-4.0334
X3.4629Y-4.1334
X3.4629Y-4.2334
X3.4629Y-4.3334
X3.4629Y-4.4334
X3.4629Y-4.5334
X3.4629Y-4.6334
X3.4629Y-4.7334
X3.4629Y-4.8334
X3.4629Y-4.9334
X3.4629Y-5.0334
X3.4629Y-5.1334
X3.5629Y-3.2334
X3.5629Y-3.3334
X3.5629Y-3.4334
X3.5629Y-3.5334
X3.5629Y-3.6334
X3.5629Y-3.7334
X3.5629Y-3.8334
X3.5629Y-3.9334
X3.5629Y-4.0334
X3.5629Y-4.1334
X3.5629Y-4.2334
X3.5629Y-4.3334
X3.5629Y-4.4334
X3.5629Y-4.5334
X3.5629Y-4.6334
X3.5629Y-4.7334
X3.5629Y-4.8334
X3.5629Y-4.9334
X3.5629Y-5.0334
X3.5629Y-5.1334
T5
X6.858Y-3.471
X6.858Y-3.621
X6.858Y-3.771
X8.7001Y-2.1598
X8.7001Y-2.3098
X8.7001Y-2.4598
X8.7001Y-2.6098
X8.7001Y-2.7598
X8.7001Y-2.9098
X8.7001Y-3.0598
X8.7001Y-3.2098
X6.8583Y-5.1134
X6.8583Y-5.2634
X6.8583Y-5.4134
X7.7774Y-5.1103
X7.7774Y-5.2603
X7.7774Y-5.4103
X2.1836Y-4.113
X2.1836Y-4.263
X2.1836Y-4.413
X2.1836Y-4.563
X2.1836Y-4.713
X2.1836Y-4.863
X6.8567Y-2.163
X6.8567Y-2.313
X6.8567Y-2.463
X6.8567Y-2.613
X6.8567Y-2.763
X6.8567Y-2.913
X6.8567Y-3.063
X6.8567Y-3.213
X2.1835Y-3.0765
X2.1835Y-3.2265
X2.1835Y-3.3765
X2.1835Y-3.5265
X2.1835Y-3.6765
X2.1835Y-3.8265
X8.7029Y-5.6568
X8.7029Y-5.8068
X8.7029Y-5.9568
X7.7774Y-6.2067
X7.7774Y-6.3567
X7.7774Y-6.5067
X7.7786Y-0.8636
X7.7786Y-1.0136
X7.7786Y-1.1636
X7.7786Y-1.3136
X7.7786Y-1.4636
X7.7786Y-1.6136
X7.7786Y-1.7636
X7.7786Y-1.9136
X1.2882Y-3.0755
X1.2882Y-3.2255
X1.2882Y-3.3755
X1.2882Y-3.5255
X1.2882Y-3.6755
X1.2882Y-3.8255
X6.858Y-5.6602
X6.858Y-5.8102
X6.858Y-5.9602
X8.6996Y-0.864
X8.6996Y-1.014
X8.6996Y-1.164
X8.6996Y-1.314
X8.6996Y-1.464
X8.6996Y-1.614
X8.6996Y-1.764
X8.6996Y-1.914
X3.0637Y-0.982
X3.0637Y-1.132
X3.0637Y-1.282
X3.0637Y-1.432
X3.0637Y-1.582
X8.7029Y-4.0154
X8.7029Y-4.1654
X8.7029Y-4.3154
X2.184Y-2.033
X2.184Y-2.183
X2.184Y-2.333
X2.184Y-2.483
X2.184Y-2.633
X2.184Y-2.783
X7.7774Y-4.5626
X7.7774Y-4.7126
X7.7774Y-4.8626
X1.2951Y-1.2815
X1.2951Y-1.4315
X1.2951Y-1.5815
X1.2951Y-1.7315
X2.8051Y-6.4311
X2.9551Y-6.4311
X3.1051Y-6.4311
X3.2551Y-6.4311
X3.4051Y-6.4311
X3.5551Y-6.4311
X3.7051Y-6.4311
X3.8551Y-6.4311
X7.7767Y-2.163
X7.7767Y-2.313
X7.7767Y-2.463
X7.7767Y-2.613
X7.7767Y-2.763
X7.7767Y-2.913
X7.7767Y-3.063
X7.7767Y-3.213
X7.7774Y-4.0173
X7.7774Y-4.1673
X7.7774Y-4.3173
X6.858Y-4.5661
X6.858Y-4.7161
X6.858Y-4.8661
X8.7029Y-4.5611
X8.7029Y-4.7111
X8.7029Y-4.8611
X8.7029Y-5.1068
X8.7029Y-5.2568
X8.7029Y-5.4068
X2.1837Y-5.1595
X2.1837Y-5.3095
X2.1837Y-5.4595
X2.1837Y-5.6095
X2.1837Y-5.7595
X2.1837Y-5.9095
X2.1837Y-6.0595
X2.1837Y-6.2095
X7.7774Y-3.4697
X7.7774Y-3.6197
X7.7774Y-3.7697
X5.2087Y-6.4291
X5.3587Y-6.4291
X5.5087Y-6.4291
X6.858Y-6.2094
X6.858Y-6.3594
X6.858Y-6.5094
X6.8586Y-0.8636
X6.8586Y-1.0136
X6.8586Y-1.1636
X6.8586Y-1.3136
X6.8586Y-1.4636
X6.8586Y-1.6136
X6.8586Y-1.7636
X6.8586Y-1.9136
X4.1673Y-6.4311
X4.3173Y-6.4311
X4.4673Y-6.4311
X4.6173Y-6.4311
X4.7673Y-6.4311
X4.9173Y-6.4311
X1.2922Y-2.0315
X1.2922Y-2.1815
X1.2922Y-2.3315
X1.2922Y-2.4815
X1.2922Y-2.6315
X1.2922Y-2.7815
X1.2887Y-5.1595
X1.2887Y-5.3095
X1.2887Y-5.4595
X1.2887Y-5.6095
X1.2887Y-5.7595
X1.2887Y-5.9095
X1.2887Y-6.0595
X1.2887Y-6.2095
X2.1817Y-0.9833
X2.1817Y-1.1333
X2.1817Y-1.2833
X2.1817Y-1.4333
X2.1817Y-1.5833
X2.1817Y-1.7333
X6.858Y-4.0216
X6.858Y-4.1716
X6.858Y-4.3216
X5.1762Y-0.9902
X5.3262Y-0.9902
X5.4762Y-0.9902
X5.6262Y-0.9902
X5.7762Y-0.9902
X5.9262Y-0.9902
X7.7774Y-5.6614
X7.7774Y-5.8114
X7.7774Y-5.9614
X1.2882Y-4.1135
X1.2882Y-4.2635
X1.2882Y-4.4135
X1.2882Y-4.5635
X1.2882Y-4.7135
X1.2882Y-4.8635
T6
X5.8346Y-6.3465
X6.0346Y-6.3465
T7
X4.3623Y-3.4791
X8.3528Y-0.8589
X1.6599Y-6.5675
X1.6599Y-0.8589
X4.3623Y-4.424
X5.3072Y-3.4791
X8.3528Y-6.5675
X5.3072Y-4.424
T0
M30
