G04 #@! TF.GenerationSoftware,KiCad,Pcbnew,5.1.4-e60b266~84~ubuntu18.04.1*
G04 #@! TF.CreationDate,2019-09-24T21:27:11-04:00*
G04 #@! TF.ProjectId,DE10nano interface,44453130-6e61-46e6-9f20-696e74657266,rev?*
G04 #@! TF.SameCoordinates,Original*
G04 #@! TF.FileFunction,Paste,Top*
G04 #@! TF.FilePolarity,Positive*
%FSLAX46Y46*%
G04 Gerber Fmt 4.6, Leading zero omitted, Abs format (unit mm)*
G04 Created by KiCad (PCBNEW 5.1.4-e60b266~84~ubuntu18.04.1) date 2019-09-24 21:27:11*
%MOMM*%
%LPD*%
G04 APERTURE LIST*
%ADD10R,1.500000X0.600000*%
%ADD11R,2.000000X0.600000*%
%ADD12R,0.600000X2.000000*%
%ADD13R,1.950000X0.600000*%
%ADD14C,0.100000*%
%ADD15C,1.600000*%
%ADD16C,1.425000*%
%ADD17C,2.100000*%
%ADD18R,2.000000X3.200000*%
%ADD19C,1.150000*%
%ADD20R,0.800000X4.600000*%
%ADD21R,5.250000X4.550000*%
%ADD22R,2.500000X3.300000*%
%ADD23R,1.780000X2.000000*%
%ADD24C,1.300000*%
%ADD25C,1.000000*%
%ADD26C,1.500000*%
%ADD27C,2.500000*%
%ADD28R,1.550000X0.600000*%
%ADD29R,0.900000X0.900000*%
%ADD30R,0.800000X0.900000*%
%ADD31C,1.250000*%
%ADD32R,1.060000X0.650000*%
%ADD33C,0.975000*%
G04 APERTURE END LIST*
D10*
X189686900Y-65854580D03*
X189686900Y-64584580D03*
X189686900Y-63314580D03*
X189686900Y-62044580D03*
X189686900Y-60774580D03*
X189686900Y-59504580D03*
X189686900Y-58234580D03*
X189686900Y-56964580D03*
X184286900Y-56964580D03*
X184286900Y-58234580D03*
X184286900Y-59504580D03*
X184286900Y-60774580D03*
X184286900Y-62044580D03*
X184286900Y-63314580D03*
X184286900Y-64584580D03*
X184286900Y-65854580D03*
X207766660Y-66164460D03*
X207766660Y-64894460D03*
X207766660Y-63624460D03*
X207766660Y-62354460D03*
X207766660Y-61084460D03*
X207766660Y-59814460D03*
X207766660Y-58544460D03*
X207766660Y-57274460D03*
X213166660Y-57274460D03*
X213166660Y-58544460D03*
X213166660Y-59814460D03*
X213166660Y-61084460D03*
X213166660Y-62354460D03*
X213166660Y-63624460D03*
X213166660Y-64894460D03*
X213166660Y-66164460D03*
X166273180Y-65819020D03*
X166273180Y-64549020D03*
X166273180Y-63279020D03*
X166273180Y-62009020D03*
X166273180Y-60739020D03*
X166273180Y-59469020D03*
X166273180Y-58199020D03*
X166273180Y-56929020D03*
X160873180Y-56929020D03*
X160873180Y-58199020D03*
X160873180Y-59469020D03*
X160873180Y-60739020D03*
X160873180Y-62009020D03*
X160873180Y-63279020D03*
X160873180Y-64549020D03*
X160873180Y-65819020D03*
X160758880Y-37764720D03*
X160758880Y-36494720D03*
X160758880Y-35224720D03*
X160758880Y-33954720D03*
X160758880Y-32684720D03*
X160758880Y-31414720D03*
X160758880Y-30144720D03*
X160758880Y-28874720D03*
X166158880Y-28874720D03*
X166158880Y-30144720D03*
X166158880Y-31414720D03*
X166158880Y-32684720D03*
X166158880Y-33954720D03*
X166158880Y-35224720D03*
X166158880Y-36494720D03*
X166158880Y-37764720D03*
X213042200Y-37896800D03*
X213042200Y-36626800D03*
X213042200Y-35356800D03*
X213042200Y-34086800D03*
X213042200Y-32816800D03*
X213042200Y-31546800D03*
X213042200Y-30276800D03*
X213042200Y-29006800D03*
X207642200Y-29006800D03*
X207642200Y-30276800D03*
X207642200Y-31546800D03*
X207642200Y-32816800D03*
X207642200Y-34086800D03*
X207642200Y-35356800D03*
X207642200Y-36626800D03*
X207642200Y-37896800D03*
X184167520Y-37777420D03*
X184167520Y-36507420D03*
X184167520Y-35237420D03*
X184167520Y-33967420D03*
X184167520Y-32697420D03*
X184167520Y-31427420D03*
X184167520Y-30157420D03*
X184167520Y-28887420D03*
X189567520Y-28887420D03*
X189567520Y-30157420D03*
X189567520Y-31427420D03*
X189567520Y-32697420D03*
X189567520Y-33967420D03*
X189567520Y-35237420D03*
X189567520Y-36507420D03*
X189567520Y-37777420D03*
D11*
X68355200Y-139687300D03*
X68355200Y-138417300D03*
X68355200Y-137147300D03*
X68355200Y-135877300D03*
X68355200Y-134607300D03*
X68355200Y-133337300D03*
X68355200Y-132067300D03*
X68355200Y-130797300D03*
X68355200Y-129527300D03*
X77755200Y-129527300D03*
X77755200Y-130797300D03*
X77755200Y-132067300D03*
X77755200Y-133337300D03*
X77755200Y-134607300D03*
X77755200Y-135877300D03*
X77755200Y-137147300D03*
X77755200Y-138417300D03*
X77755200Y-139687300D03*
D12*
X167121840Y-103757460D03*
X165851840Y-103757460D03*
X164581840Y-103757460D03*
X163311840Y-103757460D03*
X162041840Y-103757460D03*
X160771840Y-103757460D03*
X159501840Y-103757460D03*
X158231840Y-103757460D03*
X156961840Y-103757460D03*
X156961840Y-94357460D03*
X158231840Y-94357460D03*
X159501840Y-94357460D03*
X160771840Y-94357460D03*
X162041840Y-94357460D03*
X163311840Y-94357460D03*
X164581840Y-94357460D03*
X165851840Y-94357460D03*
X167121840Y-94357460D03*
X157337760Y-145400760D03*
X158607760Y-145400760D03*
X159877760Y-145400760D03*
X161147760Y-145400760D03*
X162417760Y-145400760D03*
X163687760Y-145400760D03*
X164957760Y-145400760D03*
X166227760Y-145400760D03*
X167497760Y-145400760D03*
X167497760Y-136000760D03*
X166227760Y-136000760D03*
X164957760Y-136000760D03*
X163687760Y-136000760D03*
X162417760Y-136000760D03*
X161147760Y-136000760D03*
X159877760Y-136000760D03*
X158607760Y-136000760D03*
X157337760Y-136000760D03*
D13*
X68228200Y-76479400D03*
X68228200Y-77749400D03*
X68228200Y-79019400D03*
X68228200Y-80289400D03*
X68228200Y-81559400D03*
X68228200Y-82829400D03*
X68228200Y-84099400D03*
X68228200Y-85369400D03*
X68228200Y-86639400D03*
X68228200Y-87909400D03*
X77628200Y-87909400D03*
X77628200Y-86639400D03*
X77628200Y-85369400D03*
X77628200Y-84099400D03*
X77628200Y-82829400D03*
X77628200Y-81559400D03*
X77628200Y-80289400D03*
X77628200Y-79019400D03*
X77628200Y-77749400D03*
X77628200Y-76479400D03*
X68228200Y-58470800D03*
X68228200Y-59740800D03*
X68228200Y-61010800D03*
X68228200Y-62280800D03*
X68228200Y-63550800D03*
X68228200Y-64820800D03*
X68228200Y-66090800D03*
X68228200Y-67360800D03*
X68228200Y-68630800D03*
X68228200Y-69900800D03*
X77628200Y-69900800D03*
X77628200Y-68630800D03*
X77628200Y-67360800D03*
X77628200Y-66090800D03*
X77628200Y-64820800D03*
X77628200Y-63550800D03*
X77628200Y-62280800D03*
X77628200Y-61010800D03*
X77628200Y-59740800D03*
X77628200Y-58470800D03*
X77653600Y-94564200D03*
X77653600Y-95834200D03*
X77653600Y-97104200D03*
X77653600Y-98374200D03*
X77653600Y-99644200D03*
X77653600Y-100914200D03*
X77653600Y-102184200D03*
X77653600Y-103454200D03*
X77653600Y-104724200D03*
X77653600Y-105994200D03*
X68253600Y-105994200D03*
X68253600Y-104724200D03*
X68253600Y-103454200D03*
X68253600Y-102184200D03*
X68253600Y-100914200D03*
X68253600Y-99644200D03*
X68253600Y-98374200D03*
X68253600Y-97104200D03*
X68253600Y-95834200D03*
X68253600Y-94564200D03*
D11*
X77755200Y-156705300D03*
X77755200Y-155435300D03*
X77755200Y-154165300D03*
X77755200Y-152895300D03*
X77755200Y-151625300D03*
X77755200Y-150355300D03*
X77755200Y-149085300D03*
X77755200Y-147815300D03*
X77755200Y-146545300D03*
X68355200Y-146545300D03*
X68355200Y-147815300D03*
X68355200Y-149085300D03*
X68355200Y-150355300D03*
X68355200Y-151625300D03*
X68355200Y-152895300D03*
X68355200Y-154165300D03*
X68355200Y-155435300D03*
X68355200Y-156705300D03*
D14*
G36*
X95589765Y-138687842D02*
G01*
X95613995Y-138691436D01*
X95637755Y-138697388D01*
X95660818Y-138705640D01*
X95682961Y-138716112D01*
X95703970Y-138728705D01*
X95723645Y-138743297D01*
X95741794Y-138759746D01*
X95758243Y-138777895D01*
X95772835Y-138797570D01*
X95785428Y-138818579D01*
X95795900Y-138840722D01*
X95804152Y-138863785D01*
X95810104Y-138887545D01*
X95813698Y-138911775D01*
X95814900Y-138936240D01*
X95814900Y-140037040D01*
X95813698Y-140061505D01*
X95810104Y-140085735D01*
X95804152Y-140109495D01*
X95795900Y-140132558D01*
X95785428Y-140154701D01*
X95772835Y-140175710D01*
X95758243Y-140195385D01*
X95741794Y-140213534D01*
X95723645Y-140229983D01*
X95703970Y-140244575D01*
X95682961Y-140257168D01*
X95660818Y-140267640D01*
X95637755Y-140275892D01*
X95613995Y-140281844D01*
X95589765Y-140285438D01*
X95565300Y-140286640D01*
X92739500Y-140286640D01*
X92715035Y-140285438D01*
X92690805Y-140281844D01*
X92667045Y-140275892D01*
X92643982Y-140267640D01*
X92621839Y-140257168D01*
X92600830Y-140244575D01*
X92581155Y-140229983D01*
X92563006Y-140213534D01*
X92546557Y-140195385D01*
X92531965Y-140175710D01*
X92519372Y-140154701D01*
X92508900Y-140132558D01*
X92500648Y-140109495D01*
X92494696Y-140085735D01*
X92491102Y-140061505D01*
X92489900Y-140037040D01*
X92489900Y-138936240D01*
X92491102Y-138911775D01*
X92494696Y-138887545D01*
X92500648Y-138863785D01*
X92508900Y-138840722D01*
X92519372Y-138818579D01*
X92531965Y-138797570D01*
X92546557Y-138777895D01*
X92563006Y-138759746D01*
X92581155Y-138743297D01*
X92600830Y-138728705D01*
X92621839Y-138716112D01*
X92643982Y-138705640D01*
X92667045Y-138697388D01*
X92690805Y-138691436D01*
X92715035Y-138687842D01*
X92739500Y-138686640D01*
X95565300Y-138686640D01*
X95589765Y-138687842D01*
X95589765Y-138687842D01*
G37*
D15*
X94152400Y-139486640D03*
D14*
G36*
X100664404Y-138687844D02*
G01*
X100688673Y-138691444D01*
X100712471Y-138697405D01*
X100735571Y-138705670D01*
X100757749Y-138716160D01*
X100778793Y-138728773D01*
X100798498Y-138743387D01*
X100816677Y-138759863D01*
X100833153Y-138778042D01*
X100847767Y-138797747D01*
X100860380Y-138818791D01*
X100870870Y-138840969D01*
X100879135Y-138864069D01*
X100885096Y-138887867D01*
X100888696Y-138912136D01*
X100889900Y-138936640D01*
X100889900Y-140036640D01*
X100888696Y-140061144D01*
X100885096Y-140085413D01*
X100879135Y-140109211D01*
X100870870Y-140132311D01*
X100860380Y-140154489D01*
X100847767Y-140175533D01*
X100833153Y-140195238D01*
X100816677Y-140213417D01*
X100798498Y-140229893D01*
X100778793Y-140244507D01*
X100757749Y-140257120D01*
X100735571Y-140267610D01*
X100712471Y-140275875D01*
X100688673Y-140281836D01*
X100664404Y-140285436D01*
X100639900Y-140286640D01*
X97814900Y-140286640D01*
X97790396Y-140285436D01*
X97766127Y-140281836D01*
X97742329Y-140275875D01*
X97719229Y-140267610D01*
X97697051Y-140257120D01*
X97676007Y-140244507D01*
X97656302Y-140229893D01*
X97638123Y-140213417D01*
X97621647Y-140195238D01*
X97607033Y-140175533D01*
X97594420Y-140154489D01*
X97583930Y-140132311D01*
X97575665Y-140109211D01*
X97569704Y-140085413D01*
X97566104Y-140061144D01*
X97564900Y-140036640D01*
X97564900Y-138936640D01*
X97566104Y-138912136D01*
X97569704Y-138887867D01*
X97575665Y-138864069D01*
X97583930Y-138840969D01*
X97594420Y-138818791D01*
X97607033Y-138797747D01*
X97621647Y-138778042D01*
X97638123Y-138759863D01*
X97656302Y-138743387D01*
X97676007Y-138728773D01*
X97697051Y-138716160D01*
X97719229Y-138705670D01*
X97742329Y-138697405D01*
X97766127Y-138691444D01*
X97790396Y-138687844D01*
X97814900Y-138686640D01*
X100639900Y-138686640D01*
X100664404Y-138687844D01*
X100664404Y-138687844D01*
G37*
D15*
X99227400Y-139486640D03*
D14*
G36*
X98279204Y-133211804D02*
G01*
X98303473Y-133215404D01*
X98327271Y-133221365D01*
X98350371Y-133229630D01*
X98372549Y-133240120D01*
X98393593Y-133252733D01*
X98413298Y-133267347D01*
X98431477Y-133283823D01*
X98447953Y-133302002D01*
X98462567Y-133321707D01*
X98475180Y-133342751D01*
X98485670Y-133364929D01*
X98493935Y-133388029D01*
X98499896Y-133411827D01*
X98503496Y-133436096D01*
X98504700Y-133460600D01*
X98504700Y-134385600D01*
X98503496Y-134410104D01*
X98499896Y-134434373D01*
X98493935Y-134458171D01*
X98485670Y-134481271D01*
X98475180Y-134503449D01*
X98462567Y-134524493D01*
X98447953Y-134544198D01*
X98431477Y-134562377D01*
X98413298Y-134578853D01*
X98393593Y-134593467D01*
X98372549Y-134606080D01*
X98350371Y-134616570D01*
X98327271Y-134624835D01*
X98303473Y-134630796D01*
X98279204Y-134634396D01*
X98254700Y-134635600D01*
X97004700Y-134635600D01*
X96980196Y-134634396D01*
X96955927Y-134630796D01*
X96932129Y-134624835D01*
X96909029Y-134616570D01*
X96886851Y-134606080D01*
X96865807Y-134593467D01*
X96846102Y-134578853D01*
X96827923Y-134562377D01*
X96811447Y-134544198D01*
X96796833Y-134524493D01*
X96784220Y-134503449D01*
X96773730Y-134481271D01*
X96765465Y-134458171D01*
X96759504Y-134434373D01*
X96755904Y-134410104D01*
X96754700Y-134385600D01*
X96754700Y-133460600D01*
X96755904Y-133436096D01*
X96759504Y-133411827D01*
X96765465Y-133388029D01*
X96773730Y-133364929D01*
X96784220Y-133342751D01*
X96796833Y-133321707D01*
X96811447Y-133302002D01*
X96827923Y-133283823D01*
X96846102Y-133267347D01*
X96865807Y-133252733D01*
X96886851Y-133240120D01*
X96909029Y-133229630D01*
X96932129Y-133221365D01*
X96955927Y-133215404D01*
X96980196Y-133211804D01*
X97004700Y-133210600D01*
X98254700Y-133210600D01*
X98279204Y-133211804D01*
X98279204Y-133211804D01*
G37*
D16*
X97629700Y-133923100D03*
D14*
G36*
X98279204Y-130236804D02*
G01*
X98303473Y-130240404D01*
X98327271Y-130246365D01*
X98350371Y-130254630D01*
X98372549Y-130265120D01*
X98393593Y-130277733D01*
X98413298Y-130292347D01*
X98431477Y-130308823D01*
X98447953Y-130327002D01*
X98462567Y-130346707D01*
X98475180Y-130367751D01*
X98485670Y-130389929D01*
X98493935Y-130413029D01*
X98499896Y-130436827D01*
X98503496Y-130461096D01*
X98504700Y-130485600D01*
X98504700Y-131410600D01*
X98503496Y-131435104D01*
X98499896Y-131459373D01*
X98493935Y-131483171D01*
X98485670Y-131506271D01*
X98475180Y-131528449D01*
X98462567Y-131549493D01*
X98447953Y-131569198D01*
X98431477Y-131587377D01*
X98413298Y-131603853D01*
X98393593Y-131618467D01*
X98372549Y-131631080D01*
X98350371Y-131641570D01*
X98327271Y-131649835D01*
X98303473Y-131655796D01*
X98279204Y-131659396D01*
X98254700Y-131660600D01*
X97004700Y-131660600D01*
X96980196Y-131659396D01*
X96955927Y-131655796D01*
X96932129Y-131649835D01*
X96909029Y-131641570D01*
X96886851Y-131631080D01*
X96865807Y-131618467D01*
X96846102Y-131603853D01*
X96827923Y-131587377D01*
X96811447Y-131569198D01*
X96796833Y-131549493D01*
X96784220Y-131528449D01*
X96773730Y-131506271D01*
X96765465Y-131483171D01*
X96759504Y-131459373D01*
X96755904Y-131435104D01*
X96754700Y-131410600D01*
X96754700Y-130485600D01*
X96755904Y-130461096D01*
X96759504Y-130436827D01*
X96765465Y-130413029D01*
X96773730Y-130389929D01*
X96784220Y-130367751D01*
X96796833Y-130346707D01*
X96811447Y-130327002D01*
X96827923Y-130308823D01*
X96846102Y-130292347D01*
X96865807Y-130277733D01*
X96886851Y-130265120D01*
X96909029Y-130254630D01*
X96932129Y-130246365D01*
X96955927Y-130240404D01*
X96980196Y-130236804D01*
X97004700Y-130235600D01*
X98254700Y-130235600D01*
X98279204Y-130236804D01*
X98279204Y-130236804D01*
G37*
D16*
X97629700Y-130948100D03*
D14*
G36*
X102223824Y-130297764D02*
G01*
X102248093Y-130301364D01*
X102271891Y-130307325D01*
X102294991Y-130315590D01*
X102317169Y-130326080D01*
X102338213Y-130338693D01*
X102357918Y-130353307D01*
X102376097Y-130369783D01*
X102392573Y-130387962D01*
X102407187Y-130407667D01*
X102419800Y-130428711D01*
X102430290Y-130450889D01*
X102438555Y-130473989D01*
X102444516Y-130497787D01*
X102448116Y-130522056D01*
X102449320Y-130546560D01*
X102449320Y-131471560D01*
X102448116Y-131496064D01*
X102444516Y-131520333D01*
X102438555Y-131544131D01*
X102430290Y-131567231D01*
X102419800Y-131589409D01*
X102407187Y-131610453D01*
X102392573Y-131630158D01*
X102376097Y-131648337D01*
X102357918Y-131664813D01*
X102338213Y-131679427D01*
X102317169Y-131692040D01*
X102294991Y-131702530D01*
X102271891Y-131710795D01*
X102248093Y-131716756D01*
X102223824Y-131720356D01*
X102199320Y-131721560D01*
X100949320Y-131721560D01*
X100924816Y-131720356D01*
X100900547Y-131716756D01*
X100876749Y-131710795D01*
X100853649Y-131702530D01*
X100831471Y-131692040D01*
X100810427Y-131679427D01*
X100790722Y-131664813D01*
X100772543Y-131648337D01*
X100756067Y-131630158D01*
X100741453Y-131610453D01*
X100728840Y-131589409D01*
X100718350Y-131567231D01*
X100710085Y-131544131D01*
X100704124Y-131520333D01*
X100700524Y-131496064D01*
X100699320Y-131471560D01*
X100699320Y-130546560D01*
X100700524Y-130522056D01*
X100704124Y-130497787D01*
X100710085Y-130473989D01*
X100718350Y-130450889D01*
X100728840Y-130428711D01*
X100741453Y-130407667D01*
X100756067Y-130387962D01*
X100772543Y-130369783D01*
X100790722Y-130353307D01*
X100810427Y-130338693D01*
X100831471Y-130326080D01*
X100853649Y-130315590D01*
X100876749Y-130307325D01*
X100900547Y-130301364D01*
X100924816Y-130297764D01*
X100949320Y-130296560D01*
X102199320Y-130296560D01*
X102223824Y-130297764D01*
X102223824Y-130297764D01*
G37*
D16*
X101574320Y-131009060D03*
D14*
G36*
X102223824Y-133272764D02*
G01*
X102248093Y-133276364D01*
X102271891Y-133282325D01*
X102294991Y-133290590D01*
X102317169Y-133301080D01*
X102338213Y-133313693D01*
X102357918Y-133328307D01*
X102376097Y-133344783D01*
X102392573Y-133362962D01*
X102407187Y-133382667D01*
X102419800Y-133403711D01*
X102430290Y-133425889D01*
X102438555Y-133448989D01*
X102444516Y-133472787D01*
X102448116Y-133497056D01*
X102449320Y-133521560D01*
X102449320Y-134446560D01*
X102448116Y-134471064D01*
X102444516Y-134495333D01*
X102438555Y-134519131D01*
X102430290Y-134542231D01*
X102419800Y-134564409D01*
X102407187Y-134585453D01*
X102392573Y-134605158D01*
X102376097Y-134623337D01*
X102357918Y-134639813D01*
X102338213Y-134654427D01*
X102317169Y-134667040D01*
X102294991Y-134677530D01*
X102271891Y-134685795D01*
X102248093Y-134691756D01*
X102223824Y-134695356D01*
X102199320Y-134696560D01*
X100949320Y-134696560D01*
X100924816Y-134695356D01*
X100900547Y-134691756D01*
X100876749Y-134685795D01*
X100853649Y-134677530D01*
X100831471Y-134667040D01*
X100810427Y-134654427D01*
X100790722Y-134639813D01*
X100772543Y-134623337D01*
X100756067Y-134605158D01*
X100741453Y-134585453D01*
X100728840Y-134564409D01*
X100718350Y-134542231D01*
X100710085Y-134519131D01*
X100704124Y-134495333D01*
X100700524Y-134471064D01*
X100699320Y-134446560D01*
X100699320Y-133521560D01*
X100700524Y-133497056D01*
X100704124Y-133472787D01*
X100710085Y-133448989D01*
X100718350Y-133425889D01*
X100728840Y-133403711D01*
X100741453Y-133382667D01*
X100756067Y-133362962D01*
X100772543Y-133344783D01*
X100790722Y-133328307D01*
X100810427Y-133313693D01*
X100831471Y-133301080D01*
X100853649Y-133290590D01*
X100876749Y-133282325D01*
X100900547Y-133276364D01*
X100924816Y-133272764D01*
X100949320Y-133271560D01*
X102199320Y-133271560D01*
X102223824Y-133272764D01*
X102223824Y-133272764D01*
G37*
D16*
X101574320Y-133984060D03*
D14*
G36*
X116377704Y-141544004D02*
G01*
X116401973Y-141547604D01*
X116425771Y-141553565D01*
X116448871Y-141561830D01*
X116471049Y-141572320D01*
X116492093Y-141584933D01*
X116511798Y-141599547D01*
X116529977Y-141616023D01*
X116546453Y-141634202D01*
X116561067Y-141653907D01*
X116573680Y-141674951D01*
X116584170Y-141697129D01*
X116592435Y-141720229D01*
X116598396Y-141744027D01*
X116601996Y-141768296D01*
X116603200Y-141792800D01*
X116603200Y-143042800D01*
X116601996Y-143067304D01*
X116598396Y-143091573D01*
X116592435Y-143115371D01*
X116584170Y-143138471D01*
X116573680Y-143160649D01*
X116561067Y-143181693D01*
X116546453Y-143201398D01*
X116529977Y-143219577D01*
X116511798Y-143236053D01*
X116492093Y-143250667D01*
X116471049Y-143263280D01*
X116448871Y-143273770D01*
X116425771Y-143282035D01*
X116401973Y-143287996D01*
X116377704Y-143291596D01*
X116353200Y-143292800D01*
X115428200Y-143292800D01*
X115403696Y-143291596D01*
X115379427Y-143287996D01*
X115355629Y-143282035D01*
X115332529Y-143273770D01*
X115310351Y-143263280D01*
X115289307Y-143250667D01*
X115269602Y-143236053D01*
X115251423Y-143219577D01*
X115234947Y-143201398D01*
X115220333Y-143181693D01*
X115207720Y-143160649D01*
X115197230Y-143138471D01*
X115188965Y-143115371D01*
X115183004Y-143091573D01*
X115179404Y-143067304D01*
X115178200Y-143042800D01*
X115178200Y-141792800D01*
X115179404Y-141768296D01*
X115183004Y-141744027D01*
X115188965Y-141720229D01*
X115197230Y-141697129D01*
X115207720Y-141674951D01*
X115220333Y-141653907D01*
X115234947Y-141634202D01*
X115251423Y-141616023D01*
X115269602Y-141599547D01*
X115289307Y-141584933D01*
X115310351Y-141572320D01*
X115332529Y-141561830D01*
X115355629Y-141553565D01*
X115379427Y-141547604D01*
X115403696Y-141544004D01*
X115428200Y-141542800D01*
X116353200Y-141542800D01*
X116377704Y-141544004D01*
X116377704Y-141544004D01*
G37*
D16*
X115890700Y-142417800D03*
D14*
G36*
X119352704Y-141544004D02*
G01*
X119376973Y-141547604D01*
X119400771Y-141553565D01*
X119423871Y-141561830D01*
X119446049Y-141572320D01*
X119467093Y-141584933D01*
X119486798Y-141599547D01*
X119504977Y-141616023D01*
X119521453Y-141634202D01*
X119536067Y-141653907D01*
X119548680Y-141674951D01*
X119559170Y-141697129D01*
X119567435Y-141720229D01*
X119573396Y-141744027D01*
X119576996Y-141768296D01*
X119578200Y-141792800D01*
X119578200Y-143042800D01*
X119576996Y-143067304D01*
X119573396Y-143091573D01*
X119567435Y-143115371D01*
X119559170Y-143138471D01*
X119548680Y-143160649D01*
X119536067Y-143181693D01*
X119521453Y-143201398D01*
X119504977Y-143219577D01*
X119486798Y-143236053D01*
X119467093Y-143250667D01*
X119446049Y-143263280D01*
X119423871Y-143273770D01*
X119400771Y-143282035D01*
X119376973Y-143287996D01*
X119352704Y-143291596D01*
X119328200Y-143292800D01*
X118403200Y-143292800D01*
X118378696Y-143291596D01*
X118354427Y-143287996D01*
X118330629Y-143282035D01*
X118307529Y-143273770D01*
X118285351Y-143263280D01*
X118264307Y-143250667D01*
X118244602Y-143236053D01*
X118226423Y-143219577D01*
X118209947Y-143201398D01*
X118195333Y-143181693D01*
X118182720Y-143160649D01*
X118172230Y-143138471D01*
X118163965Y-143115371D01*
X118158004Y-143091573D01*
X118154404Y-143067304D01*
X118153200Y-143042800D01*
X118153200Y-141792800D01*
X118154404Y-141768296D01*
X118158004Y-141744027D01*
X118163965Y-141720229D01*
X118172230Y-141697129D01*
X118182720Y-141674951D01*
X118195333Y-141653907D01*
X118209947Y-141634202D01*
X118226423Y-141616023D01*
X118244602Y-141599547D01*
X118264307Y-141584933D01*
X118285351Y-141572320D01*
X118307529Y-141561830D01*
X118330629Y-141553565D01*
X118354427Y-141547604D01*
X118378696Y-141544004D01*
X118403200Y-141542800D01*
X119328200Y-141542800D01*
X119352704Y-141544004D01*
X119352704Y-141544004D01*
G37*
D16*
X118865700Y-142417800D03*
D14*
G36*
X126343794Y-132288503D02*
G01*
X126368053Y-132292102D01*
X126391842Y-132298061D01*
X126414933Y-132306323D01*
X126437102Y-132316808D01*
X126458137Y-132329416D01*
X126477835Y-132344025D01*
X126496006Y-132360494D01*
X126512475Y-132378665D01*
X126527084Y-132398363D01*
X126539692Y-132419398D01*
X126550177Y-132441567D01*
X126558439Y-132464658D01*
X126564398Y-132488447D01*
X126567997Y-132512706D01*
X126569200Y-132537200D01*
X126569200Y-134137400D01*
X126567997Y-134161894D01*
X126564398Y-134186153D01*
X126558439Y-134209942D01*
X126550177Y-134233033D01*
X126539692Y-134255202D01*
X126527084Y-134276237D01*
X126512475Y-134295935D01*
X126496006Y-134314106D01*
X126477835Y-134330575D01*
X126458137Y-134345184D01*
X126437102Y-134357792D01*
X126414933Y-134368277D01*
X126391842Y-134376539D01*
X126368053Y-134382498D01*
X126343794Y-134386097D01*
X126319300Y-134387300D01*
X122319100Y-134387300D01*
X122294606Y-134386097D01*
X122270347Y-134382498D01*
X122246558Y-134376539D01*
X122223467Y-134368277D01*
X122201298Y-134357792D01*
X122180263Y-134345184D01*
X122160565Y-134330575D01*
X122142394Y-134314106D01*
X122125925Y-134295935D01*
X122111316Y-134276237D01*
X122098708Y-134255202D01*
X122088223Y-134233033D01*
X122079961Y-134209942D01*
X122074002Y-134186153D01*
X122070403Y-134161894D01*
X122069200Y-134137400D01*
X122069200Y-132537200D01*
X122070403Y-132512706D01*
X122074002Y-132488447D01*
X122079961Y-132464658D01*
X122088223Y-132441567D01*
X122098708Y-132419398D01*
X122111316Y-132398363D01*
X122125925Y-132378665D01*
X122142394Y-132360494D01*
X122160565Y-132344025D01*
X122180263Y-132329416D01*
X122201298Y-132316808D01*
X122223467Y-132306323D01*
X122246558Y-132298061D01*
X122270347Y-132292102D01*
X122294606Y-132288503D01*
X122319100Y-132287300D01*
X126319300Y-132287300D01*
X126343794Y-132288503D01*
X126343794Y-132288503D01*
G37*
D17*
X124319200Y-133337300D03*
D14*
G36*
X133543704Y-132288504D02*
G01*
X133567973Y-132292104D01*
X133591771Y-132298065D01*
X133614871Y-132306330D01*
X133637049Y-132316820D01*
X133658093Y-132329433D01*
X133677798Y-132344047D01*
X133695977Y-132360523D01*
X133712453Y-132378702D01*
X133727067Y-132398407D01*
X133739680Y-132419451D01*
X133750170Y-132441629D01*
X133758435Y-132464729D01*
X133764396Y-132488527D01*
X133767996Y-132512796D01*
X133769200Y-132537300D01*
X133769200Y-134137300D01*
X133767996Y-134161804D01*
X133764396Y-134186073D01*
X133758435Y-134209871D01*
X133750170Y-134232971D01*
X133739680Y-134255149D01*
X133727067Y-134276193D01*
X133712453Y-134295898D01*
X133695977Y-134314077D01*
X133677798Y-134330553D01*
X133658093Y-134345167D01*
X133637049Y-134357780D01*
X133614871Y-134368270D01*
X133591771Y-134376535D01*
X133567973Y-134382496D01*
X133543704Y-134386096D01*
X133519200Y-134387300D01*
X129519200Y-134387300D01*
X129494696Y-134386096D01*
X129470427Y-134382496D01*
X129446629Y-134376535D01*
X129423529Y-134368270D01*
X129401351Y-134357780D01*
X129380307Y-134345167D01*
X129360602Y-134330553D01*
X129342423Y-134314077D01*
X129325947Y-134295898D01*
X129311333Y-134276193D01*
X129298720Y-134255149D01*
X129288230Y-134232971D01*
X129279965Y-134209871D01*
X129274004Y-134186073D01*
X129270404Y-134161804D01*
X129269200Y-134137300D01*
X129269200Y-132537300D01*
X129270404Y-132512796D01*
X129274004Y-132488527D01*
X129279965Y-132464729D01*
X129288230Y-132441629D01*
X129298720Y-132419451D01*
X129311333Y-132398407D01*
X129325947Y-132378702D01*
X129342423Y-132360523D01*
X129360602Y-132344047D01*
X129380307Y-132329433D01*
X129401351Y-132316820D01*
X129423529Y-132306330D01*
X129446629Y-132298065D01*
X129470427Y-132292104D01*
X129494696Y-132288504D01*
X129519200Y-132287300D01*
X133519200Y-132287300D01*
X133543704Y-132288504D01*
X133543704Y-132288504D01*
G37*
D17*
X131519200Y-133337300D03*
D18*
X106429700Y-151371300D03*
X114229700Y-151371300D03*
D14*
G36*
X112529705Y-144894004D02*
G01*
X112553973Y-144897604D01*
X112577772Y-144903565D01*
X112600871Y-144911830D01*
X112623050Y-144922320D01*
X112644093Y-144934932D01*
X112663799Y-144949547D01*
X112681977Y-144966023D01*
X112698453Y-144984201D01*
X112713068Y-145003907D01*
X112725680Y-145024950D01*
X112736170Y-145047129D01*
X112744435Y-145070228D01*
X112750396Y-145094027D01*
X112753996Y-145118295D01*
X112755200Y-145142799D01*
X112755200Y-146042801D01*
X112753996Y-146067305D01*
X112750396Y-146091573D01*
X112744435Y-146115372D01*
X112736170Y-146138471D01*
X112725680Y-146160650D01*
X112713068Y-146181693D01*
X112698453Y-146201399D01*
X112681977Y-146219577D01*
X112663799Y-146236053D01*
X112644093Y-146250668D01*
X112623050Y-146263280D01*
X112600871Y-146273770D01*
X112577772Y-146282035D01*
X112553973Y-146287996D01*
X112529705Y-146291596D01*
X112505201Y-146292800D01*
X111855199Y-146292800D01*
X111830695Y-146291596D01*
X111806427Y-146287996D01*
X111782628Y-146282035D01*
X111759529Y-146273770D01*
X111737350Y-146263280D01*
X111716307Y-146250668D01*
X111696601Y-146236053D01*
X111678423Y-146219577D01*
X111661947Y-146201399D01*
X111647332Y-146181693D01*
X111634720Y-146160650D01*
X111624230Y-146138471D01*
X111615965Y-146115372D01*
X111610004Y-146091573D01*
X111606404Y-146067305D01*
X111605200Y-146042801D01*
X111605200Y-145142799D01*
X111606404Y-145118295D01*
X111610004Y-145094027D01*
X111615965Y-145070228D01*
X111624230Y-145047129D01*
X111634720Y-145024950D01*
X111647332Y-145003907D01*
X111661947Y-144984201D01*
X111678423Y-144966023D01*
X111696601Y-144949547D01*
X111716307Y-144934932D01*
X111737350Y-144922320D01*
X111759529Y-144911830D01*
X111782628Y-144903565D01*
X111806427Y-144897604D01*
X111830695Y-144894004D01*
X111855199Y-144892800D01*
X112505201Y-144892800D01*
X112529705Y-144894004D01*
X112529705Y-144894004D01*
G37*
D19*
X112180200Y-145592800D03*
D14*
G36*
X110479705Y-144894004D02*
G01*
X110503973Y-144897604D01*
X110527772Y-144903565D01*
X110550871Y-144911830D01*
X110573050Y-144922320D01*
X110594093Y-144934932D01*
X110613799Y-144949547D01*
X110631977Y-144966023D01*
X110648453Y-144984201D01*
X110663068Y-145003907D01*
X110675680Y-145024950D01*
X110686170Y-145047129D01*
X110694435Y-145070228D01*
X110700396Y-145094027D01*
X110703996Y-145118295D01*
X110705200Y-145142799D01*
X110705200Y-146042801D01*
X110703996Y-146067305D01*
X110700396Y-146091573D01*
X110694435Y-146115372D01*
X110686170Y-146138471D01*
X110675680Y-146160650D01*
X110663068Y-146181693D01*
X110648453Y-146201399D01*
X110631977Y-146219577D01*
X110613799Y-146236053D01*
X110594093Y-146250668D01*
X110573050Y-146263280D01*
X110550871Y-146273770D01*
X110527772Y-146282035D01*
X110503973Y-146287996D01*
X110479705Y-146291596D01*
X110455201Y-146292800D01*
X109805199Y-146292800D01*
X109780695Y-146291596D01*
X109756427Y-146287996D01*
X109732628Y-146282035D01*
X109709529Y-146273770D01*
X109687350Y-146263280D01*
X109666307Y-146250668D01*
X109646601Y-146236053D01*
X109628423Y-146219577D01*
X109611947Y-146201399D01*
X109597332Y-146181693D01*
X109584720Y-146160650D01*
X109574230Y-146138471D01*
X109565965Y-146115372D01*
X109560004Y-146091573D01*
X109556404Y-146067305D01*
X109555200Y-146042801D01*
X109555200Y-145142799D01*
X109556404Y-145118295D01*
X109560004Y-145094027D01*
X109565965Y-145070228D01*
X109574230Y-145047129D01*
X109584720Y-145024950D01*
X109597332Y-145003907D01*
X109611947Y-144984201D01*
X109628423Y-144966023D01*
X109646601Y-144949547D01*
X109666307Y-144934932D01*
X109687350Y-144922320D01*
X109709529Y-144911830D01*
X109732628Y-144903565D01*
X109756427Y-144897604D01*
X109780695Y-144894004D01*
X109805199Y-144892800D01*
X110455201Y-144892800D01*
X110479705Y-144894004D01*
X110479705Y-144894004D01*
G37*
D19*
X110130200Y-145592800D03*
D20*
X107078183Y-137292343D03*
X108348183Y-137292343D03*
X109618183Y-137292343D03*
X110888183Y-137292343D03*
X112158183Y-137292343D03*
X113428183Y-137292343D03*
X114698183Y-137292343D03*
D21*
X113663183Y-125717343D03*
X108113183Y-130567343D03*
X108113183Y-125717343D03*
X113663183Y-130567343D03*
D22*
X102553183Y-147629343D03*
X95753183Y-147629343D03*
D23*
X142841700Y-51739800D03*
X137761700Y-44119800D03*
X140301700Y-51739800D03*
X140301700Y-44119800D03*
X137761700Y-51739800D03*
X142841700Y-44119800D03*
X131094200Y-44119800D03*
X126014200Y-51739800D03*
X128554200Y-44119800D03*
X128554200Y-51739800D03*
X126014200Y-44119800D03*
X131094200Y-51739800D03*
D14*
G36*
X143309205Y-39103004D02*
G01*
X143333473Y-39106604D01*
X143357272Y-39112565D01*
X143380371Y-39120830D01*
X143402550Y-39131320D01*
X143423593Y-39143932D01*
X143443299Y-39158547D01*
X143461477Y-39175023D01*
X143477953Y-39193201D01*
X143492568Y-39212907D01*
X143505180Y-39233950D01*
X143515670Y-39256129D01*
X143523935Y-39279228D01*
X143529896Y-39303027D01*
X143533496Y-39327295D01*
X143534700Y-39351799D01*
X143534700Y-40251801D01*
X143533496Y-40276305D01*
X143529896Y-40300573D01*
X143523935Y-40324372D01*
X143515670Y-40347471D01*
X143505180Y-40369650D01*
X143492568Y-40390693D01*
X143477953Y-40410399D01*
X143461477Y-40428577D01*
X143443299Y-40445053D01*
X143423593Y-40459668D01*
X143402550Y-40472280D01*
X143380371Y-40482770D01*
X143357272Y-40491035D01*
X143333473Y-40496996D01*
X143309205Y-40500596D01*
X143284701Y-40501800D01*
X142634699Y-40501800D01*
X142610195Y-40500596D01*
X142585927Y-40496996D01*
X142562128Y-40491035D01*
X142539029Y-40482770D01*
X142516850Y-40472280D01*
X142495807Y-40459668D01*
X142476101Y-40445053D01*
X142457923Y-40428577D01*
X142441447Y-40410399D01*
X142426832Y-40390693D01*
X142414220Y-40369650D01*
X142403730Y-40347471D01*
X142395465Y-40324372D01*
X142389504Y-40300573D01*
X142385904Y-40276305D01*
X142384700Y-40251801D01*
X142384700Y-39351799D01*
X142385904Y-39327295D01*
X142389504Y-39303027D01*
X142395465Y-39279228D01*
X142403730Y-39256129D01*
X142414220Y-39233950D01*
X142426832Y-39212907D01*
X142441447Y-39193201D01*
X142457923Y-39175023D01*
X142476101Y-39158547D01*
X142495807Y-39143932D01*
X142516850Y-39131320D01*
X142539029Y-39120830D01*
X142562128Y-39112565D01*
X142585927Y-39106604D01*
X142610195Y-39103004D01*
X142634699Y-39101800D01*
X143284701Y-39101800D01*
X143309205Y-39103004D01*
X143309205Y-39103004D01*
G37*
D19*
X142959700Y-39801800D03*
D14*
G36*
X145359205Y-39103004D02*
G01*
X145383473Y-39106604D01*
X145407272Y-39112565D01*
X145430371Y-39120830D01*
X145452550Y-39131320D01*
X145473593Y-39143932D01*
X145493299Y-39158547D01*
X145511477Y-39175023D01*
X145527953Y-39193201D01*
X145542568Y-39212907D01*
X145555180Y-39233950D01*
X145565670Y-39256129D01*
X145573935Y-39279228D01*
X145579896Y-39303027D01*
X145583496Y-39327295D01*
X145584700Y-39351799D01*
X145584700Y-40251801D01*
X145583496Y-40276305D01*
X145579896Y-40300573D01*
X145573935Y-40324372D01*
X145565670Y-40347471D01*
X145555180Y-40369650D01*
X145542568Y-40390693D01*
X145527953Y-40410399D01*
X145511477Y-40428577D01*
X145493299Y-40445053D01*
X145473593Y-40459668D01*
X145452550Y-40472280D01*
X145430371Y-40482770D01*
X145407272Y-40491035D01*
X145383473Y-40496996D01*
X145359205Y-40500596D01*
X145334701Y-40501800D01*
X144684699Y-40501800D01*
X144660195Y-40500596D01*
X144635927Y-40496996D01*
X144612128Y-40491035D01*
X144589029Y-40482770D01*
X144566850Y-40472280D01*
X144545807Y-40459668D01*
X144526101Y-40445053D01*
X144507923Y-40428577D01*
X144491447Y-40410399D01*
X144476832Y-40390693D01*
X144464220Y-40369650D01*
X144453730Y-40347471D01*
X144445465Y-40324372D01*
X144439504Y-40300573D01*
X144435904Y-40276305D01*
X144434700Y-40251801D01*
X144434700Y-39351799D01*
X144435904Y-39327295D01*
X144439504Y-39303027D01*
X144445465Y-39279228D01*
X144453730Y-39256129D01*
X144464220Y-39233950D01*
X144476832Y-39212907D01*
X144491447Y-39193201D01*
X144507923Y-39175023D01*
X144526101Y-39158547D01*
X144545807Y-39143932D01*
X144566850Y-39131320D01*
X144589029Y-39120830D01*
X144612128Y-39112565D01*
X144635927Y-39106604D01*
X144660195Y-39103004D01*
X144684699Y-39101800D01*
X145334701Y-39101800D01*
X145359205Y-39103004D01*
X145359205Y-39103004D01*
G37*
D19*
X145009700Y-39801800D03*
D14*
G36*
X133738705Y-39039504D02*
G01*
X133762973Y-39043104D01*
X133786772Y-39049065D01*
X133809871Y-39057330D01*
X133832050Y-39067820D01*
X133853093Y-39080432D01*
X133872799Y-39095047D01*
X133890977Y-39111523D01*
X133907453Y-39129701D01*
X133922068Y-39149407D01*
X133934680Y-39170450D01*
X133945170Y-39192629D01*
X133953435Y-39215728D01*
X133959396Y-39239527D01*
X133962996Y-39263795D01*
X133964200Y-39288299D01*
X133964200Y-40188301D01*
X133962996Y-40212805D01*
X133959396Y-40237073D01*
X133953435Y-40260872D01*
X133945170Y-40283971D01*
X133934680Y-40306150D01*
X133922068Y-40327193D01*
X133907453Y-40346899D01*
X133890977Y-40365077D01*
X133872799Y-40381553D01*
X133853093Y-40396168D01*
X133832050Y-40408780D01*
X133809871Y-40419270D01*
X133786772Y-40427535D01*
X133762973Y-40433496D01*
X133738705Y-40437096D01*
X133714201Y-40438300D01*
X133064199Y-40438300D01*
X133039695Y-40437096D01*
X133015427Y-40433496D01*
X132991628Y-40427535D01*
X132968529Y-40419270D01*
X132946350Y-40408780D01*
X132925307Y-40396168D01*
X132905601Y-40381553D01*
X132887423Y-40365077D01*
X132870947Y-40346899D01*
X132856332Y-40327193D01*
X132843720Y-40306150D01*
X132833230Y-40283971D01*
X132824965Y-40260872D01*
X132819004Y-40237073D01*
X132815404Y-40212805D01*
X132814200Y-40188301D01*
X132814200Y-39288299D01*
X132815404Y-39263795D01*
X132819004Y-39239527D01*
X132824965Y-39215728D01*
X132833230Y-39192629D01*
X132843720Y-39170450D01*
X132856332Y-39149407D01*
X132870947Y-39129701D01*
X132887423Y-39111523D01*
X132905601Y-39095047D01*
X132925307Y-39080432D01*
X132946350Y-39067820D01*
X132968529Y-39057330D01*
X132991628Y-39049065D01*
X133015427Y-39043104D01*
X133039695Y-39039504D01*
X133064199Y-39038300D01*
X133714201Y-39038300D01*
X133738705Y-39039504D01*
X133738705Y-39039504D01*
G37*
D19*
X133389200Y-39738300D03*
D14*
G36*
X131688705Y-39039504D02*
G01*
X131712973Y-39043104D01*
X131736772Y-39049065D01*
X131759871Y-39057330D01*
X131782050Y-39067820D01*
X131803093Y-39080432D01*
X131822799Y-39095047D01*
X131840977Y-39111523D01*
X131857453Y-39129701D01*
X131872068Y-39149407D01*
X131884680Y-39170450D01*
X131895170Y-39192629D01*
X131903435Y-39215728D01*
X131909396Y-39239527D01*
X131912996Y-39263795D01*
X131914200Y-39288299D01*
X131914200Y-40188301D01*
X131912996Y-40212805D01*
X131909396Y-40237073D01*
X131903435Y-40260872D01*
X131895170Y-40283971D01*
X131884680Y-40306150D01*
X131872068Y-40327193D01*
X131857453Y-40346899D01*
X131840977Y-40365077D01*
X131822799Y-40381553D01*
X131803093Y-40396168D01*
X131782050Y-40408780D01*
X131759871Y-40419270D01*
X131736772Y-40427535D01*
X131712973Y-40433496D01*
X131688705Y-40437096D01*
X131664201Y-40438300D01*
X131014199Y-40438300D01*
X130989695Y-40437096D01*
X130965427Y-40433496D01*
X130941628Y-40427535D01*
X130918529Y-40419270D01*
X130896350Y-40408780D01*
X130875307Y-40396168D01*
X130855601Y-40381553D01*
X130837423Y-40365077D01*
X130820947Y-40346899D01*
X130806332Y-40327193D01*
X130793720Y-40306150D01*
X130783230Y-40283971D01*
X130774965Y-40260872D01*
X130769004Y-40237073D01*
X130765404Y-40212805D01*
X130764200Y-40188301D01*
X130764200Y-39288299D01*
X130765404Y-39263795D01*
X130769004Y-39239527D01*
X130774965Y-39215728D01*
X130783230Y-39192629D01*
X130793720Y-39170450D01*
X130806332Y-39149407D01*
X130820947Y-39129701D01*
X130837423Y-39111523D01*
X130855601Y-39095047D01*
X130875307Y-39080432D01*
X130896350Y-39067820D01*
X130918529Y-39057330D01*
X130941628Y-39049065D01*
X130965427Y-39043104D01*
X130989695Y-39039504D01*
X131014199Y-39038300D01*
X131664201Y-39038300D01*
X131688705Y-39039504D01*
X131688705Y-39039504D01*
G37*
D19*
X131339200Y-39738300D03*
D14*
G36*
X129849865Y-149701202D02*
G01*
X129874095Y-149704796D01*
X129897855Y-149710748D01*
X129920918Y-149719000D01*
X129943061Y-149729472D01*
X129964070Y-149742065D01*
X129983745Y-149756657D01*
X130001894Y-149773106D01*
X130018343Y-149791255D01*
X130032935Y-149810930D01*
X130045528Y-149831939D01*
X130056000Y-149854082D01*
X130064252Y-149877145D01*
X130070204Y-149900905D01*
X130073798Y-149925135D01*
X130075000Y-149949600D01*
X130075000Y-152850400D01*
X130073798Y-152874865D01*
X130070204Y-152899095D01*
X130064252Y-152922855D01*
X130056000Y-152945918D01*
X130045528Y-152968061D01*
X130032935Y-152989070D01*
X130018343Y-153008745D01*
X130001894Y-153026894D01*
X129983745Y-153043343D01*
X129964070Y-153057935D01*
X129943061Y-153070528D01*
X129920918Y-153081000D01*
X129897855Y-153089252D01*
X129874095Y-153095204D01*
X129849865Y-153098798D01*
X129825400Y-153100000D01*
X129024600Y-153100000D01*
X129000135Y-153098798D01*
X128975905Y-153095204D01*
X128952145Y-153089252D01*
X128929082Y-153081000D01*
X128906939Y-153070528D01*
X128885930Y-153057935D01*
X128866255Y-153043343D01*
X128848106Y-153026894D01*
X128831657Y-153008745D01*
X128817065Y-152989070D01*
X128804472Y-152968061D01*
X128794000Y-152945918D01*
X128785748Y-152922855D01*
X128779796Y-152899095D01*
X128776202Y-152874865D01*
X128775000Y-152850400D01*
X128775000Y-149949600D01*
X128776202Y-149925135D01*
X128779796Y-149900905D01*
X128785748Y-149877145D01*
X128794000Y-149854082D01*
X128804472Y-149831939D01*
X128817065Y-149810930D01*
X128831657Y-149791255D01*
X128848106Y-149773106D01*
X128866255Y-149756657D01*
X128885930Y-149742065D01*
X128906939Y-149729472D01*
X128929082Y-149719000D01*
X128952145Y-149710748D01*
X128975905Y-149704796D01*
X129000135Y-149701202D01*
X129024600Y-149700000D01*
X129825400Y-149700000D01*
X129849865Y-149701202D01*
X129849865Y-149701202D01*
G37*
D24*
X129425000Y-151400000D03*
D14*
G36*
X125399865Y-149701202D02*
G01*
X125424095Y-149704796D01*
X125447855Y-149710748D01*
X125470918Y-149719000D01*
X125493061Y-149729472D01*
X125514070Y-149742065D01*
X125533745Y-149756657D01*
X125551894Y-149773106D01*
X125568343Y-149791255D01*
X125582935Y-149810930D01*
X125595528Y-149831939D01*
X125606000Y-149854082D01*
X125614252Y-149877145D01*
X125620204Y-149900905D01*
X125623798Y-149925135D01*
X125625000Y-149949600D01*
X125625000Y-152850400D01*
X125623798Y-152874865D01*
X125620204Y-152899095D01*
X125614252Y-152922855D01*
X125606000Y-152945918D01*
X125595528Y-152968061D01*
X125582935Y-152989070D01*
X125568343Y-153008745D01*
X125551894Y-153026894D01*
X125533745Y-153043343D01*
X125514070Y-153057935D01*
X125493061Y-153070528D01*
X125470918Y-153081000D01*
X125447855Y-153089252D01*
X125424095Y-153095204D01*
X125399865Y-153098798D01*
X125375400Y-153100000D01*
X124574600Y-153100000D01*
X124550135Y-153098798D01*
X124525905Y-153095204D01*
X124502145Y-153089252D01*
X124479082Y-153081000D01*
X124456939Y-153070528D01*
X124435930Y-153057935D01*
X124416255Y-153043343D01*
X124398106Y-153026894D01*
X124381657Y-153008745D01*
X124367065Y-152989070D01*
X124354472Y-152968061D01*
X124344000Y-152945918D01*
X124335748Y-152922855D01*
X124329796Y-152899095D01*
X124326202Y-152874865D01*
X124325000Y-152850400D01*
X124325000Y-149949600D01*
X124326202Y-149925135D01*
X124329796Y-149900905D01*
X124335748Y-149877145D01*
X124344000Y-149854082D01*
X124354472Y-149831939D01*
X124367065Y-149810930D01*
X124381657Y-149791255D01*
X124398106Y-149773106D01*
X124416255Y-149756657D01*
X124435930Y-149742065D01*
X124456939Y-149729472D01*
X124479082Y-149719000D01*
X124502145Y-149710748D01*
X124525905Y-149704796D01*
X124550135Y-149701202D01*
X124574600Y-149700000D01*
X125375400Y-149700000D01*
X125399865Y-149701202D01*
X125399865Y-149701202D01*
G37*
D24*
X124975000Y-151400000D03*
D14*
G36*
X159768685Y-20286684D02*
G01*
X159792953Y-20290284D01*
X159816752Y-20296245D01*
X159839851Y-20304510D01*
X159862030Y-20315000D01*
X159883073Y-20327612D01*
X159902779Y-20342227D01*
X159920957Y-20358703D01*
X159937433Y-20376881D01*
X159952048Y-20396587D01*
X159964660Y-20417630D01*
X159975150Y-20439809D01*
X159983415Y-20462908D01*
X159989376Y-20486707D01*
X159992976Y-20510975D01*
X159994180Y-20535479D01*
X159994180Y-21435481D01*
X159992976Y-21459985D01*
X159989376Y-21484253D01*
X159983415Y-21508052D01*
X159975150Y-21531151D01*
X159964660Y-21553330D01*
X159952048Y-21574373D01*
X159937433Y-21594079D01*
X159920957Y-21612257D01*
X159902779Y-21628733D01*
X159883073Y-21643348D01*
X159862030Y-21655960D01*
X159839851Y-21666450D01*
X159816752Y-21674715D01*
X159792953Y-21680676D01*
X159768685Y-21684276D01*
X159744181Y-21685480D01*
X159094179Y-21685480D01*
X159069675Y-21684276D01*
X159045407Y-21680676D01*
X159021608Y-21674715D01*
X158998509Y-21666450D01*
X158976330Y-21655960D01*
X158955287Y-21643348D01*
X158935581Y-21628733D01*
X158917403Y-21612257D01*
X158900927Y-21594079D01*
X158886312Y-21574373D01*
X158873700Y-21553330D01*
X158863210Y-21531151D01*
X158854945Y-21508052D01*
X158848984Y-21484253D01*
X158845384Y-21459985D01*
X158844180Y-21435481D01*
X158844180Y-20535479D01*
X158845384Y-20510975D01*
X158848984Y-20486707D01*
X158854945Y-20462908D01*
X158863210Y-20439809D01*
X158873700Y-20417630D01*
X158886312Y-20396587D01*
X158900927Y-20376881D01*
X158917403Y-20358703D01*
X158935581Y-20342227D01*
X158955287Y-20327612D01*
X158976330Y-20315000D01*
X158998509Y-20304510D01*
X159021608Y-20296245D01*
X159045407Y-20290284D01*
X159069675Y-20286684D01*
X159094179Y-20285480D01*
X159744181Y-20285480D01*
X159768685Y-20286684D01*
X159768685Y-20286684D01*
G37*
D19*
X159419180Y-20985480D03*
D14*
G36*
X161818685Y-20286684D02*
G01*
X161842953Y-20290284D01*
X161866752Y-20296245D01*
X161889851Y-20304510D01*
X161912030Y-20315000D01*
X161933073Y-20327612D01*
X161952779Y-20342227D01*
X161970957Y-20358703D01*
X161987433Y-20376881D01*
X162002048Y-20396587D01*
X162014660Y-20417630D01*
X162025150Y-20439809D01*
X162033415Y-20462908D01*
X162039376Y-20486707D01*
X162042976Y-20510975D01*
X162044180Y-20535479D01*
X162044180Y-21435481D01*
X162042976Y-21459985D01*
X162039376Y-21484253D01*
X162033415Y-21508052D01*
X162025150Y-21531151D01*
X162014660Y-21553330D01*
X162002048Y-21574373D01*
X161987433Y-21594079D01*
X161970957Y-21612257D01*
X161952779Y-21628733D01*
X161933073Y-21643348D01*
X161912030Y-21655960D01*
X161889851Y-21666450D01*
X161866752Y-21674715D01*
X161842953Y-21680676D01*
X161818685Y-21684276D01*
X161794181Y-21685480D01*
X161144179Y-21685480D01*
X161119675Y-21684276D01*
X161095407Y-21680676D01*
X161071608Y-21674715D01*
X161048509Y-21666450D01*
X161026330Y-21655960D01*
X161005287Y-21643348D01*
X160985581Y-21628733D01*
X160967403Y-21612257D01*
X160950927Y-21594079D01*
X160936312Y-21574373D01*
X160923700Y-21553330D01*
X160913210Y-21531151D01*
X160904945Y-21508052D01*
X160898984Y-21484253D01*
X160895384Y-21459985D01*
X160894180Y-21435481D01*
X160894180Y-20535479D01*
X160895384Y-20510975D01*
X160898984Y-20486707D01*
X160904945Y-20462908D01*
X160913210Y-20439809D01*
X160923700Y-20417630D01*
X160936312Y-20396587D01*
X160950927Y-20376881D01*
X160967403Y-20358703D01*
X160985581Y-20342227D01*
X161005287Y-20327612D01*
X161026330Y-20315000D01*
X161048509Y-20304510D01*
X161071608Y-20296245D01*
X161095407Y-20290284D01*
X161119675Y-20286684D01*
X161144179Y-20285480D01*
X161794181Y-20285480D01*
X161818685Y-20286684D01*
X161818685Y-20286684D01*
G37*
D19*
X161469180Y-20985480D03*
D14*
G36*
X159763605Y-23540424D02*
G01*
X159787873Y-23544024D01*
X159811672Y-23549985D01*
X159834771Y-23558250D01*
X159856950Y-23568740D01*
X159877993Y-23581352D01*
X159897699Y-23595967D01*
X159915877Y-23612443D01*
X159932353Y-23630621D01*
X159946968Y-23650327D01*
X159959580Y-23671370D01*
X159970070Y-23693549D01*
X159978335Y-23716648D01*
X159984296Y-23740447D01*
X159987896Y-23764715D01*
X159989100Y-23789219D01*
X159989100Y-24689221D01*
X159987896Y-24713725D01*
X159984296Y-24737993D01*
X159978335Y-24761792D01*
X159970070Y-24784891D01*
X159959580Y-24807070D01*
X159946968Y-24828113D01*
X159932353Y-24847819D01*
X159915877Y-24865997D01*
X159897699Y-24882473D01*
X159877993Y-24897088D01*
X159856950Y-24909700D01*
X159834771Y-24920190D01*
X159811672Y-24928455D01*
X159787873Y-24934416D01*
X159763605Y-24938016D01*
X159739101Y-24939220D01*
X159089099Y-24939220D01*
X159064595Y-24938016D01*
X159040327Y-24934416D01*
X159016528Y-24928455D01*
X158993429Y-24920190D01*
X158971250Y-24909700D01*
X158950207Y-24897088D01*
X158930501Y-24882473D01*
X158912323Y-24865997D01*
X158895847Y-24847819D01*
X158881232Y-24828113D01*
X158868620Y-24807070D01*
X158858130Y-24784891D01*
X158849865Y-24761792D01*
X158843904Y-24737993D01*
X158840304Y-24713725D01*
X158839100Y-24689221D01*
X158839100Y-23789219D01*
X158840304Y-23764715D01*
X158843904Y-23740447D01*
X158849865Y-23716648D01*
X158858130Y-23693549D01*
X158868620Y-23671370D01*
X158881232Y-23650327D01*
X158895847Y-23630621D01*
X158912323Y-23612443D01*
X158930501Y-23595967D01*
X158950207Y-23581352D01*
X158971250Y-23568740D01*
X158993429Y-23558250D01*
X159016528Y-23549985D01*
X159040327Y-23544024D01*
X159064595Y-23540424D01*
X159089099Y-23539220D01*
X159739101Y-23539220D01*
X159763605Y-23540424D01*
X159763605Y-23540424D01*
G37*
D19*
X159414100Y-24239220D03*
D14*
G36*
X161813605Y-23540424D02*
G01*
X161837873Y-23544024D01*
X161861672Y-23549985D01*
X161884771Y-23558250D01*
X161906950Y-23568740D01*
X161927993Y-23581352D01*
X161947699Y-23595967D01*
X161965877Y-23612443D01*
X161982353Y-23630621D01*
X161996968Y-23650327D01*
X162009580Y-23671370D01*
X162020070Y-23693549D01*
X162028335Y-23716648D01*
X162034296Y-23740447D01*
X162037896Y-23764715D01*
X162039100Y-23789219D01*
X162039100Y-24689221D01*
X162037896Y-24713725D01*
X162034296Y-24737993D01*
X162028335Y-24761792D01*
X162020070Y-24784891D01*
X162009580Y-24807070D01*
X161996968Y-24828113D01*
X161982353Y-24847819D01*
X161965877Y-24865997D01*
X161947699Y-24882473D01*
X161927993Y-24897088D01*
X161906950Y-24909700D01*
X161884771Y-24920190D01*
X161861672Y-24928455D01*
X161837873Y-24934416D01*
X161813605Y-24938016D01*
X161789101Y-24939220D01*
X161139099Y-24939220D01*
X161114595Y-24938016D01*
X161090327Y-24934416D01*
X161066528Y-24928455D01*
X161043429Y-24920190D01*
X161021250Y-24909700D01*
X161000207Y-24897088D01*
X160980501Y-24882473D01*
X160962323Y-24865997D01*
X160945847Y-24847819D01*
X160931232Y-24828113D01*
X160918620Y-24807070D01*
X160908130Y-24784891D01*
X160899865Y-24761792D01*
X160893904Y-24737993D01*
X160890304Y-24713725D01*
X160889100Y-24689221D01*
X160889100Y-23789219D01*
X160890304Y-23764715D01*
X160893904Y-23740447D01*
X160899865Y-23716648D01*
X160908130Y-23693549D01*
X160918620Y-23671370D01*
X160931232Y-23650327D01*
X160945847Y-23630621D01*
X160962323Y-23612443D01*
X160980501Y-23595967D01*
X161000207Y-23581352D01*
X161021250Y-23568740D01*
X161043429Y-23558250D01*
X161066528Y-23549985D01*
X161090327Y-23544024D01*
X161114595Y-23540424D01*
X161139099Y-23539220D01*
X161789101Y-23539220D01*
X161813605Y-23540424D01*
X161813605Y-23540424D01*
G37*
D19*
X161464100Y-24239220D03*
D14*
G36*
X139469204Y-75069504D02*
G01*
X139493473Y-75073104D01*
X139517271Y-75079065D01*
X139540371Y-75087330D01*
X139562549Y-75097820D01*
X139583593Y-75110433D01*
X139603298Y-75125047D01*
X139621477Y-75141523D01*
X139637953Y-75159702D01*
X139652567Y-75179407D01*
X139665180Y-75200451D01*
X139675670Y-75222629D01*
X139683935Y-75245729D01*
X139689896Y-75269527D01*
X139693496Y-75293796D01*
X139694700Y-75318300D01*
X139694700Y-75818300D01*
X139693496Y-75842804D01*
X139689896Y-75867073D01*
X139683935Y-75890871D01*
X139675670Y-75913971D01*
X139665180Y-75936149D01*
X139652567Y-75957193D01*
X139637953Y-75976898D01*
X139621477Y-75995077D01*
X139603298Y-76011553D01*
X139583593Y-76026167D01*
X139562549Y-76038780D01*
X139540371Y-76049270D01*
X139517271Y-76057535D01*
X139493473Y-76063496D01*
X139469204Y-76067096D01*
X139444700Y-76068300D01*
X136444700Y-76068300D01*
X136420196Y-76067096D01*
X136395927Y-76063496D01*
X136372129Y-76057535D01*
X136349029Y-76049270D01*
X136326851Y-76038780D01*
X136305807Y-76026167D01*
X136286102Y-76011553D01*
X136267923Y-75995077D01*
X136251447Y-75976898D01*
X136236833Y-75957193D01*
X136224220Y-75936149D01*
X136213730Y-75913971D01*
X136205465Y-75890871D01*
X136199504Y-75867073D01*
X136195904Y-75842804D01*
X136194700Y-75818300D01*
X136194700Y-75318300D01*
X136195904Y-75293796D01*
X136199504Y-75269527D01*
X136205465Y-75245729D01*
X136213730Y-75222629D01*
X136224220Y-75200451D01*
X136236833Y-75179407D01*
X136251447Y-75159702D01*
X136267923Y-75141523D01*
X136286102Y-75125047D01*
X136305807Y-75110433D01*
X136326851Y-75097820D01*
X136349029Y-75087330D01*
X136372129Y-75079065D01*
X136395927Y-75073104D01*
X136420196Y-75069504D01*
X136444700Y-75068300D01*
X139444700Y-75068300D01*
X139469204Y-75069504D01*
X139469204Y-75069504D01*
G37*
D25*
X137944700Y-75568300D03*
D14*
G36*
X139469204Y-77069504D02*
G01*
X139493473Y-77073104D01*
X139517271Y-77079065D01*
X139540371Y-77087330D01*
X139562549Y-77097820D01*
X139583593Y-77110433D01*
X139603298Y-77125047D01*
X139621477Y-77141523D01*
X139637953Y-77159702D01*
X139652567Y-77179407D01*
X139665180Y-77200451D01*
X139675670Y-77222629D01*
X139683935Y-77245729D01*
X139689896Y-77269527D01*
X139693496Y-77293796D01*
X139694700Y-77318300D01*
X139694700Y-77818300D01*
X139693496Y-77842804D01*
X139689896Y-77867073D01*
X139683935Y-77890871D01*
X139675670Y-77913971D01*
X139665180Y-77936149D01*
X139652567Y-77957193D01*
X139637953Y-77976898D01*
X139621477Y-77995077D01*
X139603298Y-78011553D01*
X139583593Y-78026167D01*
X139562549Y-78038780D01*
X139540371Y-78049270D01*
X139517271Y-78057535D01*
X139493473Y-78063496D01*
X139469204Y-78067096D01*
X139444700Y-78068300D01*
X136444700Y-78068300D01*
X136420196Y-78067096D01*
X136395927Y-78063496D01*
X136372129Y-78057535D01*
X136349029Y-78049270D01*
X136326851Y-78038780D01*
X136305807Y-78026167D01*
X136286102Y-78011553D01*
X136267923Y-77995077D01*
X136251447Y-77976898D01*
X136236833Y-77957193D01*
X136224220Y-77936149D01*
X136213730Y-77913971D01*
X136205465Y-77890871D01*
X136199504Y-77867073D01*
X136195904Y-77842804D01*
X136194700Y-77818300D01*
X136194700Y-77318300D01*
X136195904Y-77293796D01*
X136199504Y-77269527D01*
X136205465Y-77245729D01*
X136213730Y-77222629D01*
X136224220Y-77200451D01*
X136236833Y-77179407D01*
X136251447Y-77159702D01*
X136267923Y-77141523D01*
X136286102Y-77125047D01*
X136305807Y-77110433D01*
X136326851Y-77097820D01*
X136349029Y-77087330D01*
X136372129Y-77079065D01*
X136395927Y-77073104D01*
X136420196Y-77069504D01*
X136444700Y-77068300D01*
X139444700Y-77068300D01*
X139469204Y-77069504D01*
X139469204Y-77069504D01*
G37*
D25*
X137944700Y-77568300D03*
D14*
G36*
X133669204Y-72469504D02*
G01*
X133693473Y-72473104D01*
X133717271Y-72479065D01*
X133740371Y-72487330D01*
X133762549Y-72497820D01*
X133783593Y-72510433D01*
X133803298Y-72525047D01*
X133821477Y-72541523D01*
X133837953Y-72559702D01*
X133852567Y-72579407D01*
X133865180Y-72600451D01*
X133875670Y-72622629D01*
X133883935Y-72645729D01*
X133889896Y-72669527D01*
X133893496Y-72693796D01*
X133894700Y-72718300D01*
X133894700Y-73718300D01*
X133893496Y-73742804D01*
X133889896Y-73767073D01*
X133883935Y-73790871D01*
X133875670Y-73813971D01*
X133865180Y-73836149D01*
X133852567Y-73857193D01*
X133837953Y-73876898D01*
X133821477Y-73895077D01*
X133803298Y-73911553D01*
X133783593Y-73926167D01*
X133762549Y-73938780D01*
X133740371Y-73949270D01*
X133717271Y-73957535D01*
X133693473Y-73963496D01*
X133669204Y-73967096D01*
X133644700Y-73968300D01*
X130744700Y-73968300D01*
X130720196Y-73967096D01*
X130695927Y-73963496D01*
X130672129Y-73957535D01*
X130649029Y-73949270D01*
X130626851Y-73938780D01*
X130605807Y-73926167D01*
X130586102Y-73911553D01*
X130567923Y-73895077D01*
X130551447Y-73876898D01*
X130536833Y-73857193D01*
X130524220Y-73836149D01*
X130513730Y-73813971D01*
X130505465Y-73790871D01*
X130499504Y-73767073D01*
X130495904Y-73742804D01*
X130494700Y-73718300D01*
X130494700Y-72718300D01*
X130495904Y-72693796D01*
X130499504Y-72669527D01*
X130505465Y-72645729D01*
X130513730Y-72622629D01*
X130524220Y-72600451D01*
X130536833Y-72579407D01*
X130551447Y-72559702D01*
X130567923Y-72541523D01*
X130586102Y-72525047D01*
X130605807Y-72510433D01*
X130626851Y-72497820D01*
X130649029Y-72487330D01*
X130672129Y-72479065D01*
X130695927Y-72473104D01*
X130720196Y-72469504D01*
X130744700Y-72468300D01*
X133644700Y-72468300D01*
X133669204Y-72469504D01*
X133669204Y-72469504D01*
G37*
D26*
X132194700Y-73218300D03*
D14*
G36*
X133669204Y-79169504D02*
G01*
X133693473Y-79173104D01*
X133717271Y-79179065D01*
X133740371Y-79187330D01*
X133762549Y-79197820D01*
X133783593Y-79210433D01*
X133803298Y-79225047D01*
X133821477Y-79241523D01*
X133837953Y-79259702D01*
X133852567Y-79279407D01*
X133865180Y-79300451D01*
X133875670Y-79322629D01*
X133883935Y-79345729D01*
X133889896Y-79369527D01*
X133893496Y-79393796D01*
X133894700Y-79418300D01*
X133894700Y-80418300D01*
X133893496Y-80442804D01*
X133889896Y-80467073D01*
X133883935Y-80490871D01*
X133875670Y-80513971D01*
X133865180Y-80536149D01*
X133852567Y-80557193D01*
X133837953Y-80576898D01*
X133821477Y-80595077D01*
X133803298Y-80611553D01*
X133783593Y-80626167D01*
X133762549Y-80638780D01*
X133740371Y-80649270D01*
X133717271Y-80657535D01*
X133693473Y-80663496D01*
X133669204Y-80667096D01*
X133644700Y-80668300D01*
X130744700Y-80668300D01*
X130720196Y-80667096D01*
X130695927Y-80663496D01*
X130672129Y-80657535D01*
X130649029Y-80649270D01*
X130626851Y-80638780D01*
X130605807Y-80626167D01*
X130586102Y-80611553D01*
X130567923Y-80595077D01*
X130551447Y-80576898D01*
X130536833Y-80557193D01*
X130524220Y-80536149D01*
X130513730Y-80513971D01*
X130505465Y-80490871D01*
X130499504Y-80467073D01*
X130495904Y-80442804D01*
X130494700Y-80418300D01*
X130494700Y-79418300D01*
X130495904Y-79393796D01*
X130499504Y-79369527D01*
X130505465Y-79345729D01*
X130513730Y-79322629D01*
X130524220Y-79300451D01*
X130536833Y-79279407D01*
X130551447Y-79259702D01*
X130567923Y-79241523D01*
X130586102Y-79225047D01*
X130605807Y-79210433D01*
X130626851Y-79197820D01*
X130649029Y-79187330D01*
X130672129Y-79179065D01*
X130695927Y-79173104D01*
X130720196Y-79169504D01*
X130744700Y-79168300D01*
X133644700Y-79168300D01*
X133669204Y-79169504D01*
X133669204Y-79169504D01*
G37*
D26*
X132194700Y-79918300D03*
D11*
X77564700Y-122796300D03*
X77564700Y-121526300D03*
X77564700Y-120256300D03*
X77564700Y-118986300D03*
X77564700Y-117716300D03*
X77564700Y-116446300D03*
X77564700Y-115176300D03*
X77564700Y-113906300D03*
X77564700Y-112636300D03*
X68164700Y-112636300D03*
X68164700Y-113906300D03*
X68164700Y-115176300D03*
X68164700Y-116446300D03*
X68164700Y-117716300D03*
X68164700Y-118986300D03*
X68164700Y-120256300D03*
X68164700Y-121526300D03*
X68164700Y-122796300D03*
D14*
G36*
X141578252Y-57282266D02*
G01*
X141602521Y-57285866D01*
X141626319Y-57291827D01*
X141649419Y-57300092D01*
X141671597Y-57310582D01*
X141692641Y-57323195D01*
X141712346Y-57337809D01*
X141730525Y-57354285D01*
X141747001Y-57372464D01*
X141761615Y-57392169D01*
X141774228Y-57413213D01*
X141784718Y-57435391D01*
X141792983Y-57458491D01*
X141798944Y-57482289D01*
X141802544Y-57506558D01*
X141803748Y-57531062D01*
X141803748Y-61431062D01*
X141802544Y-61455566D01*
X141798944Y-61479835D01*
X141792983Y-61503633D01*
X141784718Y-61526733D01*
X141774228Y-61548911D01*
X141761615Y-61569955D01*
X141747001Y-61589660D01*
X141730525Y-61607839D01*
X141712346Y-61624315D01*
X141692641Y-61638929D01*
X141671597Y-61651542D01*
X141649419Y-61662032D01*
X141626319Y-61670297D01*
X141602521Y-61676258D01*
X141578252Y-61679858D01*
X141553748Y-61681062D01*
X139553748Y-61681062D01*
X139529244Y-61679858D01*
X139504975Y-61676258D01*
X139481177Y-61670297D01*
X139458077Y-61662032D01*
X139435899Y-61651542D01*
X139414855Y-61638929D01*
X139395150Y-61624315D01*
X139376971Y-61607839D01*
X139360495Y-61589660D01*
X139345881Y-61569955D01*
X139333268Y-61548911D01*
X139322778Y-61526733D01*
X139314513Y-61503633D01*
X139308552Y-61479835D01*
X139304952Y-61455566D01*
X139303748Y-61431062D01*
X139303748Y-57531062D01*
X139304952Y-57506558D01*
X139308552Y-57482289D01*
X139314513Y-57458491D01*
X139322778Y-57435391D01*
X139333268Y-57413213D01*
X139345881Y-57392169D01*
X139360495Y-57372464D01*
X139376971Y-57354285D01*
X139395150Y-57337809D01*
X139414855Y-57323195D01*
X139435899Y-57310582D01*
X139458077Y-57300092D01*
X139481177Y-57291827D01*
X139504975Y-57285866D01*
X139529244Y-57282266D01*
X139553748Y-57281062D01*
X141553748Y-57281062D01*
X141578252Y-57282266D01*
X141578252Y-57282266D01*
G37*
D27*
X140553748Y-59481062D03*
D14*
G36*
X141578252Y-65682266D02*
G01*
X141602521Y-65685866D01*
X141626319Y-65691827D01*
X141649419Y-65700092D01*
X141671597Y-65710582D01*
X141692641Y-65723195D01*
X141712346Y-65737809D01*
X141730525Y-65754285D01*
X141747001Y-65772464D01*
X141761615Y-65792169D01*
X141774228Y-65813213D01*
X141784718Y-65835391D01*
X141792983Y-65858491D01*
X141798944Y-65882289D01*
X141802544Y-65906558D01*
X141803748Y-65931062D01*
X141803748Y-69831062D01*
X141802544Y-69855566D01*
X141798944Y-69879835D01*
X141792983Y-69903633D01*
X141784718Y-69926733D01*
X141774228Y-69948911D01*
X141761615Y-69969955D01*
X141747001Y-69989660D01*
X141730525Y-70007839D01*
X141712346Y-70024315D01*
X141692641Y-70038929D01*
X141671597Y-70051542D01*
X141649419Y-70062032D01*
X141626319Y-70070297D01*
X141602521Y-70076258D01*
X141578252Y-70079858D01*
X141553748Y-70081062D01*
X139553748Y-70081062D01*
X139529244Y-70079858D01*
X139504975Y-70076258D01*
X139481177Y-70070297D01*
X139458077Y-70062032D01*
X139435899Y-70051542D01*
X139414855Y-70038929D01*
X139395150Y-70024315D01*
X139376971Y-70007839D01*
X139360495Y-69989660D01*
X139345881Y-69969955D01*
X139333268Y-69948911D01*
X139322778Y-69926733D01*
X139314513Y-69903633D01*
X139308552Y-69879835D01*
X139304952Y-69855566D01*
X139303748Y-69831062D01*
X139303748Y-65931062D01*
X139304952Y-65906558D01*
X139308552Y-65882289D01*
X139314513Y-65858491D01*
X139322778Y-65835391D01*
X139333268Y-65813213D01*
X139345881Y-65792169D01*
X139360495Y-65772464D01*
X139376971Y-65754285D01*
X139395150Y-65737809D01*
X139414855Y-65723195D01*
X139435899Y-65710582D01*
X139458077Y-65700092D01*
X139481177Y-65691827D01*
X139504975Y-65685866D01*
X139529244Y-65682266D01*
X139553748Y-65681062D01*
X141553748Y-65681062D01*
X141578252Y-65682266D01*
X141578252Y-65682266D01*
G37*
D27*
X140553748Y-67881062D03*
D14*
G36*
X127608252Y-65606066D02*
G01*
X127632521Y-65609666D01*
X127656319Y-65615627D01*
X127679419Y-65623892D01*
X127701597Y-65634382D01*
X127722641Y-65646995D01*
X127742346Y-65661609D01*
X127760525Y-65678085D01*
X127777001Y-65696264D01*
X127791615Y-65715969D01*
X127804228Y-65737013D01*
X127814718Y-65759191D01*
X127822983Y-65782291D01*
X127828944Y-65806089D01*
X127832544Y-65830358D01*
X127833748Y-65854862D01*
X127833748Y-69754862D01*
X127832544Y-69779366D01*
X127828944Y-69803635D01*
X127822983Y-69827433D01*
X127814718Y-69850533D01*
X127804228Y-69872711D01*
X127791615Y-69893755D01*
X127777001Y-69913460D01*
X127760525Y-69931639D01*
X127742346Y-69948115D01*
X127722641Y-69962729D01*
X127701597Y-69975342D01*
X127679419Y-69985832D01*
X127656319Y-69994097D01*
X127632521Y-70000058D01*
X127608252Y-70003658D01*
X127583748Y-70004862D01*
X125583748Y-70004862D01*
X125559244Y-70003658D01*
X125534975Y-70000058D01*
X125511177Y-69994097D01*
X125488077Y-69985832D01*
X125465899Y-69975342D01*
X125444855Y-69962729D01*
X125425150Y-69948115D01*
X125406971Y-69931639D01*
X125390495Y-69913460D01*
X125375881Y-69893755D01*
X125363268Y-69872711D01*
X125352778Y-69850533D01*
X125344513Y-69827433D01*
X125338552Y-69803635D01*
X125334952Y-69779366D01*
X125333748Y-69754862D01*
X125333748Y-65854862D01*
X125334952Y-65830358D01*
X125338552Y-65806089D01*
X125344513Y-65782291D01*
X125352778Y-65759191D01*
X125363268Y-65737013D01*
X125375881Y-65715969D01*
X125390495Y-65696264D01*
X125406971Y-65678085D01*
X125425150Y-65661609D01*
X125444855Y-65646995D01*
X125465899Y-65634382D01*
X125488077Y-65623892D01*
X125511177Y-65615627D01*
X125534975Y-65609666D01*
X125559244Y-65606066D01*
X125583748Y-65604862D01*
X127583748Y-65604862D01*
X127608252Y-65606066D01*
X127608252Y-65606066D01*
G37*
D27*
X126583748Y-67804862D03*
D14*
G36*
X127608252Y-57206066D02*
G01*
X127632521Y-57209666D01*
X127656319Y-57215627D01*
X127679419Y-57223892D01*
X127701597Y-57234382D01*
X127722641Y-57246995D01*
X127742346Y-57261609D01*
X127760525Y-57278085D01*
X127777001Y-57296264D01*
X127791615Y-57315969D01*
X127804228Y-57337013D01*
X127814718Y-57359191D01*
X127822983Y-57382291D01*
X127828944Y-57406089D01*
X127832544Y-57430358D01*
X127833748Y-57454862D01*
X127833748Y-61354862D01*
X127832544Y-61379366D01*
X127828944Y-61403635D01*
X127822983Y-61427433D01*
X127814718Y-61450533D01*
X127804228Y-61472711D01*
X127791615Y-61493755D01*
X127777001Y-61513460D01*
X127760525Y-61531639D01*
X127742346Y-61548115D01*
X127722641Y-61562729D01*
X127701597Y-61575342D01*
X127679419Y-61585832D01*
X127656319Y-61594097D01*
X127632521Y-61600058D01*
X127608252Y-61603658D01*
X127583748Y-61604862D01*
X125583748Y-61604862D01*
X125559244Y-61603658D01*
X125534975Y-61600058D01*
X125511177Y-61594097D01*
X125488077Y-61585832D01*
X125465899Y-61575342D01*
X125444855Y-61562729D01*
X125425150Y-61548115D01*
X125406971Y-61531639D01*
X125390495Y-61513460D01*
X125375881Y-61493755D01*
X125363268Y-61472711D01*
X125352778Y-61450533D01*
X125344513Y-61427433D01*
X125338552Y-61403635D01*
X125334952Y-61379366D01*
X125333748Y-61354862D01*
X125333748Y-57454862D01*
X125334952Y-57430358D01*
X125338552Y-57406089D01*
X125344513Y-57382291D01*
X125352778Y-57359191D01*
X125363268Y-57337013D01*
X125375881Y-57315969D01*
X125390495Y-57296264D01*
X125406971Y-57278085D01*
X125425150Y-57261609D01*
X125444855Y-57246995D01*
X125465899Y-57234382D01*
X125488077Y-57223892D01*
X125511177Y-57215627D01*
X125534975Y-57209666D01*
X125559244Y-57206066D01*
X125583748Y-57204862D01*
X127583748Y-57204862D01*
X127608252Y-57206066D01*
X127608252Y-57206066D01*
G37*
D27*
X126583748Y-59404862D03*
D14*
G36*
X97157625Y-78640644D02*
G01*
X97181893Y-78644244D01*
X97205692Y-78650205D01*
X97228791Y-78658470D01*
X97250970Y-78668960D01*
X97272013Y-78681572D01*
X97291719Y-78696187D01*
X97309897Y-78712663D01*
X97326373Y-78730841D01*
X97340988Y-78750547D01*
X97353600Y-78771590D01*
X97364090Y-78793769D01*
X97372355Y-78816868D01*
X97378316Y-78840667D01*
X97381916Y-78864935D01*
X97383120Y-78889439D01*
X97383120Y-79789441D01*
X97381916Y-79813945D01*
X97378316Y-79838213D01*
X97372355Y-79862012D01*
X97364090Y-79885111D01*
X97353600Y-79907290D01*
X97340988Y-79928333D01*
X97326373Y-79948039D01*
X97309897Y-79966217D01*
X97291719Y-79982693D01*
X97272013Y-79997308D01*
X97250970Y-80009920D01*
X97228791Y-80020410D01*
X97205692Y-80028675D01*
X97181893Y-80034636D01*
X97157625Y-80038236D01*
X97133121Y-80039440D01*
X96483119Y-80039440D01*
X96458615Y-80038236D01*
X96434347Y-80034636D01*
X96410548Y-80028675D01*
X96387449Y-80020410D01*
X96365270Y-80009920D01*
X96344227Y-79997308D01*
X96324521Y-79982693D01*
X96306343Y-79966217D01*
X96289867Y-79948039D01*
X96275252Y-79928333D01*
X96262640Y-79907290D01*
X96252150Y-79885111D01*
X96243885Y-79862012D01*
X96237924Y-79838213D01*
X96234324Y-79813945D01*
X96233120Y-79789441D01*
X96233120Y-78889439D01*
X96234324Y-78864935D01*
X96237924Y-78840667D01*
X96243885Y-78816868D01*
X96252150Y-78793769D01*
X96262640Y-78771590D01*
X96275252Y-78750547D01*
X96289867Y-78730841D01*
X96306343Y-78712663D01*
X96324521Y-78696187D01*
X96344227Y-78681572D01*
X96365270Y-78668960D01*
X96387449Y-78658470D01*
X96410548Y-78650205D01*
X96434347Y-78644244D01*
X96458615Y-78640644D01*
X96483119Y-78639440D01*
X97133121Y-78639440D01*
X97157625Y-78640644D01*
X97157625Y-78640644D01*
G37*
D19*
X96808120Y-79339440D03*
D14*
G36*
X95107625Y-78640644D02*
G01*
X95131893Y-78644244D01*
X95155692Y-78650205D01*
X95178791Y-78658470D01*
X95200970Y-78668960D01*
X95222013Y-78681572D01*
X95241719Y-78696187D01*
X95259897Y-78712663D01*
X95276373Y-78730841D01*
X95290988Y-78750547D01*
X95303600Y-78771590D01*
X95314090Y-78793769D01*
X95322355Y-78816868D01*
X95328316Y-78840667D01*
X95331916Y-78864935D01*
X95333120Y-78889439D01*
X95333120Y-79789441D01*
X95331916Y-79813945D01*
X95328316Y-79838213D01*
X95322355Y-79862012D01*
X95314090Y-79885111D01*
X95303600Y-79907290D01*
X95290988Y-79928333D01*
X95276373Y-79948039D01*
X95259897Y-79966217D01*
X95241719Y-79982693D01*
X95222013Y-79997308D01*
X95200970Y-80009920D01*
X95178791Y-80020410D01*
X95155692Y-80028675D01*
X95131893Y-80034636D01*
X95107625Y-80038236D01*
X95083121Y-80039440D01*
X94433119Y-80039440D01*
X94408615Y-80038236D01*
X94384347Y-80034636D01*
X94360548Y-80028675D01*
X94337449Y-80020410D01*
X94315270Y-80009920D01*
X94294227Y-79997308D01*
X94274521Y-79982693D01*
X94256343Y-79966217D01*
X94239867Y-79948039D01*
X94225252Y-79928333D01*
X94212640Y-79907290D01*
X94202150Y-79885111D01*
X94193885Y-79862012D01*
X94187924Y-79838213D01*
X94184324Y-79813945D01*
X94183120Y-79789441D01*
X94183120Y-78889439D01*
X94184324Y-78864935D01*
X94187924Y-78840667D01*
X94193885Y-78816868D01*
X94202150Y-78793769D01*
X94212640Y-78771590D01*
X94225252Y-78750547D01*
X94239867Y-78730841D01*
X94256343Y-78712663D01*
X94274521Y-78696187D01*
X94294227Y-78681572D01*
X94315270Y-78668960D01*
X94337449Y-78658470D01*
X94360548Y-78650205D01*
X94384347Y-78644244D01*
X94408615Y-78640644D01*
X94433119Y-78639440D01*
X95083121Y-78639440D01*
X95107625Y-78640644D01*
X95107625Y-78640644D01*
G37*
D19*
X94758120Y-79339440D03*
D14*
G36*
X102849505Y-78351204D02*
G01*
X102873773Y-78354804D01*
X102897572Y-78360765D01*
X102920671Y-78369030D01*
X102942850Y-78379520D01*
X102963893Y-78392132D01*
X102983599Y-78406747D01*
X103001777Y-78423223D01*
X103018253Y-78441401D01*
X103032868Y-78461107D01*
X103045480Y-78482150D01*
X103055970Y-78504329D01*
X103064235Y-78527428D01*
X103070196Y-78551227D01*
X103073796Y-78575495D01*
X103075000Y-78599999D01*
X103075000Y-79500001D01*
X103073796Y-79524505D01*
X103070196Y-79548773D01*
X103064235Y-79572572D01*
X103055970Y-79595671D01*
X103045480Y-79617850D01*
X103032868Y-79638893D01*
X103018253Y-79658599D01*
X103001777Y-79676777D01*
X102983599Y-79693253D01*
X102963893Y-79707868D01*
X102942850Y-79720480D01*
X102920671Y-79730970D01*
X102897572Y-79739235D01*
X102873773Y-79745196D01*
X102849505Y-79748796D01*
X102825001Y-79750000D01*
X102174999Y-79750000D01*
X102150495Y-79748796D01*
X102126227Y-79745196D01*
X102102428Y-79739235D01*
X102079329Y-79730970D01*
X102057150Y-79720480D01*
X102036107Y-79707868D01*
X102016401Y-79693253D01*
X101998223Y-79676777D01*
X101981747Y-79658599D01*
X101967132Y-79638893D01*
X101954520Y-79617850D01*
X101944030Y-79595671D01*
X101935765Y-79572572D01*
X101929804Y-79548773D01*
X101926204Y-79524505D01*
X101925000Y-79500001D01*
X101925000Y-78599999D01*
X101926204Y-78575495D01*
X101929804Y-78551227D01*
X101935765Y-78527428D01*
X101944030Y-78504329D01*
X101954520Y-78482150D01*
X101967132Y-78461107D01*
X101981747Y-78441401D01*
X101998223Y-78423223D01*
X102016401Y-78406747D01*
X102036107Y-78392132D01*
X102057150Y-78379520D01*
X102079329Y-78369030D01*
X102102428Y-78360765D01*
X102126227Y-78354804D01*
X102150495Y-78351204D01*
X102174999Y-78350000D01*
X102825001Y-78350000D01*
X102849505Y-78351204D01*
X102849505Y-78351204D01*
G37*
D19*
X102500000Y-79050000D03*
D14*
G36*
X104899505Y-78351204D02*
G01*
X104923773Y-78354804D01*
X104947572Y-78360765D01*
X104970671Y-78369030D01*
X104992850Y-78379520D01*
X105013893Y-78392132D01*
X105033599Y-78406747D01*
X105051777Y-78423223D01*
X105068253Y-78441401D01*
X105082868Y-78461107D01*
X105095480Y-78482150D01*
X105105970Y-78504329D01*
X105114235Y-78527428D01*
X105120196Y-78551227D01*
X105123796Y-78575495D01*
X105125000Y-78599999D01*
X105125000Y-79500001D01*
X105123796Y-79524505D01*
X105120196Y-79548773D01*
X105114235Y-79572572D01*
X105105970Y-79595671D01*
X105095480Y-79617850D01*
X105082868Y-79638893D01*
X105068253Y-79658599D01*
X105051777Y-79676777D01*
X105033599Y-79693253D01*
X105013893Y-79707868D01*
X104992850Y-79720480D01*
X104970671Y-79730970D01*
X104947572Y-79739235D01*
X104923773Y-79745196D01*
X104899505Y-79748796D01*
X104875001Y-79750000D01*
X104224999Y-79750000D01*
X104200495Y-79748796D01*
X104176227Y-79745196D01*
X104152428Y-79739235D01*
X104129329Y-79730970D01*
X104107150Y-79720480D01*
X104086107Y-79707868D01*
X104066401Y-79693253D01*
X104048223Y-79676777D01*
X104031747Y-79658599D01*
X104017132Y-79638893D01*
X104004520Y-79617850D01*
X103994030Y-79595671D01*
X103985765Y-79572572D01*
X103979804Y-79548773D01*
X103976204Y-79524505D01*
X103975000Y-79500001D01*
X103975000Y-78599999D01*
X103976204Y-78575495D01*
X103979804Y-78551227D01*
X103985765Y-78527428D01*
X103994030Y-78504329D01*
X104004520Y-78482150D01*
X104017132Y-78461107D01*
X104031747Y-78441401D01*
X104048223Y-78423223D01*
X104066401Y-78406747D01*
X104086107Y-78392132D01*
X104107150Y-78379520D01*
X104129329Y-78369030D01*
X104152428Y-78360765D01*
X104176227Y-78354804D01*
X104200495Y-78351204D01*
X104224999Y-78350000D01*
X104875001Y-78350000D01*
X104899505Y-78351204D01*
X104899505Y-78351204D01*
G37*
D19*
X104550000Y-79050000D03*
D28*
X94845880Y-81724500D03*
X94845880Y-82994500D03*
X94845880Y-84264500D03*
X94845880Y-85534500D03*
X100245880Y-85534500D03*
X100245880Y-84264500D03*
X100245880Y-82994500D03*
X100245880Y-81724500D03*
D29*
X145738700Y-128218800D03*
X145738700Y-129558800D03*
X145738700Y-125558800D03*
X145738700Y-126898800D03*
X142738700Y-128218800D03*
X142738700Y-126898800D03*
X142738700Y-129558800D03*
X142738700Y-125558800D03*
X142738700Y-119856500D03*
X142738700Y-123856500D03*
X142738700Y-121196500D03*
X142738700Y-122516500D03*
X145738700Y-121196500D03*
X145738700Y-119856500D03*
X145738700Y-123856500D03*
X145738700Y-122516500D03*
X145736160Y-116814200D03*
X145736160Y-118154200D03*
X145736160Y-114154200D03*
X145736160Y-115494200D03*
X142736160Y-116814200D03*
X142736160Y-115494200D03*
X142736160Y-118154200D03*
X142736160Y-114154200D03*
X142736160Y-108441740D03*
X142736160Y-112441740D03*
X142736160Y-109781740D03*
X142736160Y-111101740D03*
X145736160Y-109781740D03*
X145736160Y-108441740D03*
X145736160Y-112441740D03*
X145736160Y-111101740D03*
X145743780Y-105376580D03*
X145743780Y-106716580D03*
X145743780Y-102716580D03*
X145743780Y-104056580D03*
X142743780Y-105376580D03*
X142743780Y-104056580D03*
X142743780Y-106716580D03*
X142743780Y-102716580D03*
X142738700Y-96986340D03*
X142738700Y-100986340D03*
X142738700Y-98326340D03*
X142738700Y-99646340D03*
X145738700Y-98326340D03*
X145738700Y-96986340D03*
X145738700Y-100986340D03*
X145738700Y-99646340D03*
X145738700Y-93911020D03*
X145738700Y-95251020D03*
X145738700Y-91251020D03*
X145738700Y-92591020D03*
X142738700Y-93911020D03*
X142738700Y-92591020D03*
X142738700Y-95251020D03*
X142738700Y-91251020D03*
X142738700Y-85523320D03*
X142738700Y-89523320D03*
X142738700Y-86863320D03*
X142738700Y-88183320D03*
X145738700Y-86863320D03*
X145738700Y-85523320D03*
X145738700Y-89523320D03*
X145738700Y-88183320D03*
X87727380Y-32726880D03*
X87727380Y-36726880D03*
X87727380Y-34066880D03*
X87727380Y-35386880D03*
X90727380Y-34066880D03*
X90727380Y-32726880D03*
X90727380Y-36726880D03*
X90727380Y-35386880D03*
X66970760Y-35031280D03*
X66970760Y-36371280D03*
X66970760Y-32371280D03*
X66970760Y-33711280D03*
X63970760Y-35031280D03*
X63970760Y-33711280D03*
X63970760Y-36371280D03*
X63970760Y-32371280D03*
X68812000Y-32371280D03*
X68812000Y-36371280D03*
X68812000Y-33711280D03*
X68812000Y-35031280D03*
X71812000Y-33711280D03*
X71812000Y-32371280D03*
X71812000Y-36371280D03*
X71812000Y-35031280D03*
X90717220Y-29713940D03*
X90717220Y-25713940D03*
X90717220Y-28373940D03*
X90717220Y-27053940D03*
X87717220Y-28373940D03*
X87717220Y-29713940D03*
X87717220Y-25713940D03*
X87717220Y-27053940D03*
D30*
X118850000Y-32150000D03*
X120750000Y-32150000D03*
X119800000Y-30150000D03*
X124000000Y-30250000D03*
X124950000Y-32250000D03*
X123050000Y-32250000D03*
D14*
G36*
X158188185Y-65182884D02*
G01*
X158212453Y-65186484D01*
X158236252Y-65192445D01*
X158259351Y-65200710D01*
X158281530Y-65211200D01*
X158302573Y-65223812D01*
X158322279Y-65238427D01*
X158340457Y-65254903D01*
X158356933Y-65273081D01*
X158371548Y-65292787D01*
X158384160Y-65313830D01*
X158394650Y-65336009D01*
X158402915Y-65359108D01*
X158408876Y-65382907D01*
X158412476Y-65407175D01*
X158413680Y-65431679D01*
X158413680Y-66081681D01*
X158412476Y-66106185D01*
X158408876Y-66130453D01*
X158402915Y-66154252D01*
X158394650Y-66177351D01*
X158384160Y-66199530D01*
X158371548Y-66220573D01*
X158356933Y-66240279D01*
X158340457Y-66258457D01*
X158322279Y-66274933D01*
X158302573Y-66289548D01*
X158281530Y-66302160D01*
X158259351Y-66312650D01*
X158236252Y-66320915D01*
X158212453Y-66326876D01*
X158188185Y-66330476D01*
X158163681Y-66331680D01*
X157263679Y-66331680D01*
X157239175Y-66330476D01*
X157214907Y-66326876D01*
X157191108Y-66320915D01*
X157168009Y-66312650D01*
X157145830Y-66302160D01*
X157124787Y-66289548D01*
X157105081Y-66274933D01*
X157086903Y-66258457D01*
X157070427Y-66240279D01*
X157055812Y-66220573D01*
X157043200Y-66199530D01*
X157032710Y-66177351D01*
X157024445Y-66154252D01*
X157018484Y-66130453D01*
X157014884Y-66106185D01*
X157013680Y-66081681D01*
X157013680Y-65431679D01*
X157014884Y-65407175D01*
X157018484Y-65382907D01*
X157024445Y-65359108D01*
X157032710Y-65336009D01*
X157043200Y-65313830D01*
X157055812Y-65292787D01*
X157070427Y-65273081D01*
X157086903Y-65254903D01*
X157105081Y-65238427D01*
X157124787Y-65223812D01*
X157145830Y-65211200D01*
X157168009Y-65200710D01*
X157191108Y-65192445D01*
X157214907Y-65186484D01*
X157239175Y-65182884D01*
X157263679Y-65181680D01*
X158163681Y-65181680D01*
X158188185Y-65182884D01*
X158188185Y-65182884D01*
G37*
D19*
X157713680Y-65756680D03*
D14*
G36*
X158188185Y-67232884D02*
G01*
X158212453Y-67236484D01*
X158236252Y-67242445D01*
X158259351Y-67250710D01*
X158281530Y-67261200D01*
X158302573Y-67273812D01*
X158322279Y-67288427D01*
X158340457Y-67304903D01*
X158356933Y-67323081D01*
X158371548Y-67342787D01*
X158384160Y-67363830D01*
X158394650Y-67386009D01*
X158402915Y-67409108D01*
X158408876Y-67432907D01*
X158412476Y-67457175D01*
X158413680Y-67481679D01*
X158413680Y-68131681D01*
X158412476Y-68156185D01*
X158408876Y-68180453D01*
X158402915Y-68204252D01*
X158394650Y-68227351D01*
X158384160Y-68249530D01*
X158371548Y-68270573D01*
X158356933Y-68290279D01*
X158340457Y-68308457D01*
X158322279Y-68324933D01*
X158302573Y-68339548D01*
X158281530Y-68352160D01*
X158259351Y-68362650D01*
X158236252Y-68370915D01*
X158212453Y-68376876D01*
X158188185Y-68380476D01*
X158163681Y-68381680D01*
X157263679Y-68381680D01*
X157239175Y-68380476D01*
X157214907Y-68376876D01*
X157191108Y-68370915D01*
X157168009Y-68362650D01*
X157145830Y-68352160D01*
X157124787Y-68339548D01*
X157105081Y-68324933D01*
X157086903Y-68308457D01*
X157070427Y-68290279D01*
X157055812Y-68270573D01*
X157043200Y-68249530D01*
X157032710Y-68227351D01*
X157024445Y-68204252D01*
X157018484Y-68180453D01*
X157014884Y-68156185D01*
X157013680Y-68131681D01*
X157013680Y-67481679D01*
X157014884Y-67457175D01*
X157018484Y-67432907D01*
X157024445Y-67409108D01*
X157032710Y-67386009D01*
X157043200Y-67363830D01*
X157055812Y-67342787D01*
X157070427Y-67323081D01*
X157086903Y-67304903D01*
X157105081Y-67288427D01*
X157124787Y-67273812D01*
X157145830Y-67261200D01*
X157168009Y-67250710D01*
X157191108Y-67242445D01*
X157214907Y-67236484D01*
X157239175Y-67232884D01*
X157263679Y-67231680D01*
X158163681Y-67231680D01*
X158188185Y-67232884D01*
X158188185Y-67232884D01*
G37*
D19*
X157713680Y-67806680D03*
D14*
G36*
X204969905Y-67674844D02*
G01*
X204994173Y-67678444D01*
X205017972Y-67684405D01*
X205041071Y-67692670D01*
X205063250Y-67703160D01*
X205084293Y-67715772D01*
X205103999Y-67730387D01*
X205122177Y-67746863D01*
X205138653Y-67765041D01*
X205153268Y-67784747D01*
X205165880Y-67805790D01*
X205176370Y-67827969D01*
X205184635Y-67851068D01*
X205190596Y-67874867D01*
X205194196Y-67899135D01*
X205195400Y-67923639D01*
X205195400Y-68573641D01*
X205194196Y-68598145D01*
X205190596Y-68622413D01*
X205184635Y-68646212D01*
X205176370Y-68669311D01*
X205165880Y-68691490D01*
X205153268Y-68712533D01*
X205138653Y-68732239D01*
X205122177Y-68750417D01*
X205103999Y-68766893D01*
X205084293Y-68781508D01*
X205063250Y-68794120D01*
X205041071Y-68804610D01*
X205017972Y-68812875D01*
X204994173Y-68818836D01*
X204969905Y-68822436D01*
X204945401Y-68823640D01*
X204045399Y-68823640D01*
X204020895Y-68822436D01*
X203996627Y-68818836D01*
X203972828Y-68812875D01*
X203949729Y-68804610D01*
X203927550Y-68794120D01*
X203906507Y-68781508D01*
X203886801Y-68766893D01*
X203868623Y-68750417D01*
X203852147Y-68732239D01*
X203837532Y-68712533D01*
X203824920Y-68691490D01*
X203814430Y-68669311D01*
X203806165Y-68646212D01*
X203800204Y-68622413D01*
X203796604Y-68598145D01*
X203795400Y-68573641D01*
X203795400Y-67923639D01*
X203796604Y-67899135D01*
X203800204Y-67874867D01*
X203806165Y-67851068D01*
X203814430Y-67827969D01*
X203824920Y-67805790D01*
X203837532Y-67784747D01*
X203852147Y-67765041D01*
X203868623Y-67746863D01*
X203886801Y-67730387D01*
X203906507Y-67715772D01*
X203927550Y-67703160D01*
X203949729Y-67692670D01*
X203972828Y-67684405D01*
X203996627Y-67678444D01*
X204020895Y-67674844D01*
X204045399Y-67673640D01*
X204945401Y-67673640D01*
X204969905Y-67674844D01*
X204969905Y-67674844D01*
G37*
D19*
X204495400Y-68248640D03*
D14*
G36*
X204969905Y-65624844D02*
G01*
X204994173Y-65628444D01*
X205017972Y-65634405D01*
X205041071Y-65642670D01*
X205063250Y-65653160D01*
X205084293Y-65665772D01*
X205103999Y-65680387D01*
X205122177Y-65696863D01*
X205138653Y-65715041D01*
X205153268Y-65734747D01*
X205165880Y-65755790D01*
X205176370Y-65777969D01*
X205184635Y-65801068D01*
X205190596Y-65824867D01*
X205194196Y-65849135D01*
X205195400Y-65873639D01*
X205195400Y-66523641D01*
X205194196Y-66548145D01*
X205190596Y-66572413D01*
X205184635Y-66596212D01*
X205176370Y-66619311D01*
X205165880Y-66641490D01*
X205153268Y-66662533D01*
X205138653Y-66682239D01*
X205122177Y-66700417D01*
X205103999Y-66716893D01*
X205084293Y-66731508D01*
X205063250Y-66744120D01*
X205041071Y-66754610D01*
X205017972Y-66762875D01*
X204994173Y-66768836D01*
X204969905Y-66772436D01*
X204945401Y-66773640D01*
X204045399Y-66773640D01*
X204020895Y-66772436D01*
X203996627Y-66768836D01*
X203972828Y-66762875D01*
X203949729Y-66754610D01*
X203927550Y-66744120D01*
X203906507Y-66731508D01*
X203886801Y-66716893D01*
X203868623Y-66700417D01*
X203852147Y-66682239D01*
X203837532Y-66662533D01*
X203824920Y-66641490D01*
X203814430Y-66619311D01*
X203806165Y-66596212D01*
X203800204Y-66572413D01*
X203796604Y-66548145D01*
X203795400Y-66523641D01*
X203795400Y-65873639D01*
X203796604Y-65849135D01*
X203800204Y-65824867D01*
X203806165Y-65801068D01*
X203814430Y-65777969D01*
X203824920Y-65755790D01*
X203837532Y-65734747D01*
X203852147Y-65715041D01*
X203868623Y-65696863D01*
X203886801Y-65680387D01*
X203906507Y-65665772D01*
X203927550Y-65653160D01*
X203949729Y-65642670D01*
X203972828Y-65634405D01*
X203996627Y-65628444D01*
X204020895Y-65624844D01*
X204045399Y-65623640D01*
X204945401Y-65623640D01*
X204969905Y-65624844D01*
X204969905Y-65624844D01*
G37*
D19*
X204495400Y-66198640D03*
D14*
G36*
X181365685Y-35109284D02*
G01*
X181389953Y-35112884D01*
X181413752Y-35118845D01*
X181436851Y-35127110D01*
X181459030Y-35137600D01*
X181480073Y-35150212D01*
X181499779Y-35164827D01*
X181517957Y-35181303D01*
X181534433Y-35199481D01*
X181549048Y-35219187D01*
X181561660Y-35240230D01*
X181572150Y-35262409D01*
X181580415Y-35285508D01*
X181586376Y-35309307D01*
X181589976Y-35333575D01*
X181591180Y-35358079D01*
X181591180Y-36008081D01*
X181589976Y-36032585D01*
X181586376Y-36056853D01*
X181580415Y-36080652D01*
X181572150Y-36103751D01*
X181561660Y-36125930D01*
X181549048Y-36146973D01*
X181534433Y-36166679D01*
X181517957Y-36184857D01*
X181499779Y-36201333D01*
X181480073Y-36215948D01*
X181459030Y-36228560D01*
X181436851Y-36239050D01*
X181413752Y-36247315D01*
X181389953Y-36253276D01*
X181365685Y-36256876D01*
X181341181Y-36258080D01*
X180441179Y-36258080D01*
X180416675Y-36256876D01*
X180392407Y-36253276D01*
X180368608Y-36247315D01*
X180345509Y-36239050D01*
X180323330Y-36228560D01*
X180302287Y-36215948D01*
X180282581Y-36201333D01*
X180264403Y-36184857D01*
X180247927Y-36166679D01*
X180233312Y-36146973D01*
X180220700Y-36125930D01*
X180210210Y-36103751D01*
X180201945Y-36080652D01*
X180195984Y-36056853D01*
X180192384Y-36032585D01*
X180191180Y-36008081D01*
X180191180Y-35358079D01*
X180192384Y-35333575D01*
X180195984Y-35309307D01*
X180201945Y-35285508D01*
X180210210Y-35262409D01*
X180220700Y-35240230D01*
X180233312Y-35219187D01*
X180247927Y-35199481D01*
X180264403Y-35181303D01*
X180282581Y-35164827D01*
X180302287Y-35150212D01*
X180323330Y-35137600D01*
X180345509Y-35127110D01*
X180368608Y-35118845D01*
X180392407Y-35112884D01*
X180416675Y-35109284D01*
X180441179Y-35108080D01*
X181341181Y-35108080D01*
X181365685Y-35109284D01*
X181365685Y-35109284D01*
G37*
D19*
X180891180Y-35683080D03*
D14*
G36*
X181365685Y-37159284D02*
G01*
X181389953Y-37162884D01*
X181413752Y-37168845D01*
X181436851Y-37177110D01*
X181459030Y-37187600D01*
X181480073Y-37200212D01*
X181499779Y-37214827D01*
X181517957Y-37231303D01*
X181534433Y-37249481D01*
X181549048Y-37269187D01*
X181561660Y-37290230D01*
X181572150Y-37312409D01*
X181580415Y-37335508D01*
X181586376Y-37359307D01*
X181589976Y-37383575D01*
X181591180Y-37408079D01*
X181591180Y-38058081D01*
X181589976Y-38082585D01*
X181586376Y-38106853D01*
X181580415Y-38130652D01*
X181572150Y-38153751D01*
X181561660Y-38175930D01*
X181549048Y-38196973D01*
X181534433Y-38216679D01*
X181517957Y-38234857D01*
X181499779Y-38251333D01*
X181480073Y-38265948D01*
X181459030Y-38278560D01*
X181436851Y-38289050D01*
X181413752Y-38297315D01*
X181389953Y-38303276D01*
X181365685Y-38306876D01*
X181341181Y-38308080D01*
X180441179Y-38308080D01*
X180416675Y-38306876D01*
X180392407Y-38303276D01*
X180368608Y-38297315D01*
X180345509Y-38289050D01*
X180323330Y-38278560D01*
X180302287Y-38265948D01*
X180282581Y-38251333D01*
X180264403Y-38234857D01*
X180247927Y-38216679D01*
X180233312Y-38196973D01*
X180220700Y-38175930D01*
X180210210Y-38153751D01*
X180201945Y-38130652D01*
X180195984Y-38106853D01*
X180192384Y-38082585D01*
X180191180Y-38058081D01*
X180191180Y-37408079D01*
X180192384Y-37383575D01*
X180195984Y-37359307D01*
X180201945Y-37335508D01*
X180210210Y-37312409D01*
X180220700Y-37290230D01*
X180233312Y-37269187D01*
X180247927Y-37249481D01*
X180264403Y-37231303D01*
X180282581Y-37214827D01*
X180302287Y-37200212D01*
X180323330Y-37187600D01*
X180345509Y-37177110D01*
X180368608Y-37168845D01*
X180392407Y-37162884D01*
X180416675Y-37159284D01*
X180441179Y-37158080D01*
X181341181Y-37158080D01*
X181365685Y-37159284D01*
X181365685Y-37159284D01*
G37*
D19*
X180891180Y-37733080D03*
D14*
G36*
X204771785Y-35271844D02*
G01*
X204796053Y-35275444D01*
X204819852Y-35281405D01*
X204842951Y-35289670D01*
X204865130Y-35300160D01*
X204886173Y-35312772D01*
X204905879Y-35327387D01*
X204924057Y-35343863D01*
X204940533Y-35362041D01*
X204955148Y-35381747D01*
X204967760Y-35402790D01*
X204978250Y-35424969D01*
X204986515Y-35448068D01*
X204992476Y-35471867D01*
X204996076Y-35496135D01*
X204997280Y-35520639D01*
X204997280Y-36170641D01*
X204996076Y-36195145D01*
X204992476Y-36219413D01*
X204986515Y-36243212D01*
X204978250Y-36266311D01*
X204967760Y-36288490D01*
X204955148Y-36309533D01*
X204940533Y-36329239D01*
X204924057Y-36347417D01*
X204905879Y-36363893D01*
X204886173Y-36378508D01*
X204865130Y-36391120D01*
X204842951Y-36401610D01*
X204819852Y-36409875D01*
X204796053Y-36415836D01*
X204771785Y-36419436D01*
X204747281Y-36420640D01*
X203847279Y-36420640D01*
X203822775Y-36419436D01*
X203798507Y-36415836D01*
X203774708Y-36409875D01*
X203751609Y-36401610D01*
X203729430Y-36391120D01*
X203708387Y-36378508D01*
X203688681Y-36363893D01*
X203670503Y-36347417D01*
X203654027Y-36329239D01*
X203639412Y-36309533D01*
X203626800Y-36288490D01*
X203616310Y-36266311D01*
X203608045Y-36243212D01*
X203602084Y-36219413D01*
X203598484Y-36195145D01*
X203597280Y-36170641D01*
X203597280Y-35520639D01*
X203598484Y-35496135D01*
X203602084Y-35471867D01*
X203608045Y-35448068D01*
X203616310Y-35424969D01*
X203626800Y-35402790D01*
X203639412Y-35381747D01*
X203654027Y-35362041D01*
X203670503Y-35343863D01*
X203688681Y-35327387D01*
X203708387Y-35312772D01*
X203729430Y-35300160D01*
X203751609Y-35289670D01*
X203774708Y-35281405D01*
X203798507Y-35275444D01*
X203822775Y-35271844D01*
X203847279Y-35270640D01*
X204747281Y-35270640D01*
X204771785Y-35271844D01*
X204771785Y-35271844D01*
G37*
D19*
X204297280Y-35845640D03*
D14*
G36*
X204771785Y-37321844D02*
G01*
X204796053Y-37325444D01*
X204819852Y-37331405D01*
X204842951Y-37339670D01*
X204865130Y-37350160D01*
X204886173Y-37362772D01*
X204905879Y-37377387D01*
X204924057Y-37393863D01*
X204940533Y-37412041D01*
X204955148Y-37431747D01*
X204967760Y-37452790D01*
X204978250Y-37474969D01*
X204986515Y-37498068D01*
X204992476Y-37521867D01*
X204996076Y-37546135D01*
X204997280Y-37570639D01*
X204997280Y-38220641D01*
X204996076Y-38245145D01*
X204992476Y-38269413D01*
X204986515Y-38293212D01*
X204978250Y-38316311D01*
X204967760Y-38338490D01*
X204955148Y-38359533D01*
X204940533Y-38379239D01*
X204924057Y-38397417D01*
X204905879Y-38413893D01*
X204886173Y-38428508D01*
X204865130Y-38441120D01*
X204842951Y-38451610D01*
X204819852Y-38459875D01*
X204796053Y-38465836D01*
X204771785Y-38469436D01*
X204747281Y-38470640D01*
X203847279Y-38470640D01*
X203822775Y-38469436D01*
X203798507Y-38465836D01*
X203774708Y-38459875D01*
X203751609Y-38451610D01*
X203729430Y-38441120D01*
X203708387Y-38428508D01*
X203688681Y-38413893D01*
X203670503Y-38397417D01*
X203654027Y-38379239D01*
X203639412Y-38359533D01*
X203626800Y-38338490D01*
X203616310Y-38316311D01*
X203608045Y-38293212D01*
X203602084Y-38269413D01*
X203598484Y-38245145D01*
X203597280Y-38220641D01*
X203597280Y-37570639D01*
X203598484Y-37546135D01*
X203602084Y-37521867D01*
X203608045Y-37498068D01*
X203616310Y-37474969D01*
X203626800Y-37452790D01*
X203639412Y-37431747D01*
X203654027Y-37412041D01*
X203670503Y-37393863D01*
X203688681Y-37377387D01*
X203708387Y-37362772D01*
X203729430Y-37350160D01*
X203751609Y-37339670D01*
X203774708Y-37331405D01*
X203798507Y-37325444D01*
X203822775Y-37321844D01*
X203847279Y-37320640D01*
X204747281Y-37320640D01*
X204771785Y-37321844D01*
X204771785Y-37321844D01*
G37*
D19*
X204297280Y-37895640D03*
D14*
G36*
X181779705Y-65281944D02*
G01*
X181803973Y-65285544D01*
X181827772Y-65291505D01*
X181850871Y-65299770D01*
X181873050Y-65310260D01*
X181894093Y-65322872D01*
X181913799Y-65337487D01*
X181931977Y-65353963D01*
X181948453Y-65372141D01*
X181963068Y-65391847D01*
X181975680Y-65412890D01*
X181986170Y-65435069D01*
X181994435Y-65458168D01*
X182000396Y-65481967D01*
X182003996Y-65506235D01*
X182005200Y-65530739D01*
X182005200Y-66180741D01*
X182003996Y-66205245D01*
X182000396Y-66229513D01*
X181994435Y-66253312D01*
X181986170Y-66276411D01*
X181975680Y-66298590D01*
X181963068Y-66319633D01*
X181948453Y-66339339D01*
X181931977Y-66357517D01*
X181913799Y-66373993D01*
X181894093Y-66388608D01*
X181873050Y-66401220D01*
X181850871Y-66411710D01*
X181827772Y-66419975D01*
X181803973Y-66425936D01*
X181779705Y-66429536D01*
X181755201Y-66430740D01*
X180855199Y-66430740D01*
X180830695Y-66429536D01*
X180806427Y-66425936D01*
X180782628Y-66419975D01*
X180759529Y-66411710D01*
X180737350Y-66401220D01*
X180716307Y-66388608D01*
X180696601Y-66373993D01*
X180678423Y-66357517D01*
X180661947Y-66339339D01*
X180647332Y-66319633D01*
X180634720Y-66298590D01*
X180624230Y-66276411D01*
X180615965Y-66253312D01*
X180610004Y-66229513D01*
X180606404Y-66205245D01*
X180605200Y-66180741D01*
X180605200Y-65530739D01*
X180606404Y-65506235D01*
X180610004Y-65481967D01*
X180615965Y-65458168D01*
X180624230Y-65435069D01*
X180634720Y-65412890D01*
X180647332Y-65391847D01*
X180661947Y-65372141D01*
X180678423Y-65353963D01*
X180696601Y-65337487D01*
X180716307Y-65322872D01*
X180737350Y-65310260D01*
X180759529Y-65299770D01*
X180782628Y-65291505D01*
X180806427Y-65285544D01*
X180830695Y-65281944D01*
X180855199Y-65280740D01*
X181755201Y-65280740D01*
X181779705Y-65281944D01*
X181779705Y-65281944D01*
G37*
D19*
X181305200Y-65855740D03*
D14*
G36*
X181779705Y-67331944D02*
G01*
X181803973Y-67335544D01*
X181827772Y-67341505D01*
X181850871Y-67349770D01*
X181873050Y-67360260D01*
X181894093Y-67372872D01*
X181913799Y-67387487D01*
X181931977Y-67403963D01*
X181948453Y-67422141D01*
X181963068Y-67441847D01*
X181975680Y-67462890D01*
X181986170Y-67485069D01*
X181994435Y-67508168D01*
X182000396Y-67531967D01*
X182003996Y-67556235D01*
X182005200Y-67580739D01*
X182005200Y-68230741D01*
X182003996Y-68255245D01*
X182000396Y-68279513D01*
X181994435Y-68303312D01*
X181986170Y-68326411D01*
X181975680Y-68348590D01*
X181963068Y-68369633D01*
X181948453Y-68389339D01*
X181931977Y-68407517D01*
X181913799Y-68423993D01*
X181894093Y-68438608D01*
X181873050Y-68451220D01*
X181850871Y-68461710D01*
X181827772Y-68469975D01*
X181803973Y-68475936D01*
X181779705Y-68479536D01*
X181755201Y-68480740D01*
X180855199Y-68480740D01*
X180830695Y-68479536D01*
X180806427Y-68475936D01*
X180782628Y-68469975D01*
X180759529Y-68461710D01*
X180737350Y-68451220D01*
X180716307Y-68438608D01*
X180696601Y-68423993D01*
X180678423Y-68407517D01*
X180661947Y-68389339D01*
X180647332Y-68369633D01*
X180634720Y-68348590D01*
X180624230Y-68326411D01*
X180615965Y-68303312D01*
X180610004Y-68279513D01*
X180606404Y-68255245D01*
X180605200Y-68230741D01*
X180605200Y-67580739D01*
X180606404Y-67556235D01*
X180610004Y-67531967D01*
X180615965Y-67508168D01*
X180624230Y-67485069D01*
X180634720Y-67462890D01*
X180647332Y-67441847D01*
X180661947Y-67422141D01*
X180678423Y-67403963D01*
X180696601Y-67387487D01*
X180716307Y-67372872D01*
X180737350Y-67360260D01*
X180759529Y-67349770D01*
X180782628Y-67341505D01*
X180806427Y-67335544D01*
X180830695Y-67331944D01*
X180855199Y-67330740D01*
X181755201Y-67330740D01*
X181779705Y-67331944D01*
X181779705Y-67331944D01*
G37*
D19*
X181305200Y-67905740D03*
D14*
G36*
X157918945Y-35165164D02*
G01*
X157943213Y-35168764D01*
X157967012Y-35174725D01*
X157990111Y-35182990D01*
X158012290Y-35193480D01*
X158033333Y-35206092D01*
X158053039Y-35220707D01*
X158071217Y-35237183D01*
X158087693Y-35255361D01*
X158102308Y-35275067D01*
X158114920Y-35296110D01*
X158125410Y-35318289D01*
X158133675Y-35341388D01*
X158139636Y-35365187D01*
X158143236Y-35389455D01*
X158144440Y-35413959D01*
X158144440Y-36063961D01*
X158143236Y-36088465D01*
X158139636Y-36112733D01*
X158133675Y-36136532D01*
X158125410Y-36159631D01*
X158114920Y-36181810D01*
X158102308Y-36202853D01*
X158087693Y-36222559D01*
X158071217Y-36240737D01*
X158053039Y-36257213D01*
X158033333Y-36271828D01*
X158012290Y-36284440D01*
X157990111Y-36294930D01*
X157967012Y-36303195D01*
X157943213Y-36309156D01*
X157918945Y-36312756D01*
X157894441Y-36313960D01*
X156994439Y-36313960D01*
X156969935Y-36312756D01*
X156945667Y-36309156D01*
X156921868Y-36303195D01*
X156898769Y-36294930D01*
X156876590Y-36284440D01*
X156855547Y-36271828D01*
X156835841Y-36257213D01*
X156817663Y-36240737D01*
X156801187Y-36222559D01*
X156786572Y-36202853D01*
X156773960Y-36181810D01*
X156763470Y-36159631D01*
X156755205Y-36136532D01*
X156749244Y-36112733D01*
X156745644Y-36088465D01*
X156744440Y-36063961D01*
X156744440Y-35413959D01*
X156745644Y-35389455D01*
X156749244Y-35365187D01*
X156755205Y-35341388D01*
X156763470Y-35318289D01*
X156773960Y-35296110D01*
X156786572Y-35275067D01*
X156801187Y-35255361D01*
X156817663Y-35237183D01*
X156835841Y-35220707D01*
X156855547Y-35206092D01*
X156876590Y-35193480D01*
X156898769Y-35182990D01*
X156921868Y-35174725D01*
X156945667Y-35168764D01*
X156969935Y-35165164D01*
X156994439Y-35163960D01*
X157894441Y-35163960D01*
X157918945Y-35165164D01*
X157918945Y-35165164D01*
G37*
D19*
X157444440Y-35738960D03*
D14*
G36*
X157918945Y-37215164D02*
G01*
X157943213Y-37218764D01*
X157967012Y-37224725D01*
X157990111Y-37232990D01*
X158012290Y-37243480D01*
X158033333Y-37256092D01*
X158053039Y-37270707D01*
X158071217Y-37287183D01*
X158087693Y-37305361D01*
X158102308Y-37325067D01*
X158114920Y-37346110D01*
X158125410Y-37368289D01*
X158133675Y-37391388D01*
X158139636Y-37415187D01*
X158143236Y-37439455D01*
X158144440Y-37463959D01*
X158144440Y-38113961D01*
X158143236Y-38138465D01*
X158139636Y-38162733D01*
X158133675Y-38186532D01*
X158125410Y-38209631D01*
X158114920Y-38231810D01*
X158102308Y-38252853D01*
X158087693Y-38272559D01*
X158071217Y-38290737D01*
X158053039Y-38307213D01*
X158033333Y-38321828D01*
X158012290Y-38334440D01*
X157990111Y-38344930D01*
X157967012Y-38353195D01*
X157943213Y-38359156D01*
X157918945Y-38362756D01*
X157894441Y-38363960D01*
X156994439Y-38363960D01*
X156969935Y-38362756D01*
X156945667Y-38359156D01*
X156921868Y-38353195D01*
X156898769Y-38344930D01*
X156876590Y-38334440D01*
X156855547Y-38321828D01*
X156835841Y-38307213D01*
X156817663Y-38290737D01*
X156801187Y-38272559D01*
X156786572Y-38252853D01*
X156773960Y-38231810D01*
X156763470Y-38209631D01*
X156755205Y-38186532D01*
X156749244Y-38162733D01*
X156745644Y-38138465D01*
X156744440Y-38113961D01*
X156744440Y-37463959D01*
X156745644Y-37439455D01*
X156749244Y-37415187D01*
X156755205Y-37391388D01*
X156763470Y-37368289D01*
X156773960Y-37346110D01*
X156786572Y-37325067D01*
X156801187Y-37305361D01*
X156817663Y-37287183D01*
X156835841Y-37270707D01*
X156855547Y-37256092D01*
X156876590Y-37243480D01*
X156898769Y-37232990D01*
X156921868Y-37224725D01*
X156945667Y-37218764D01*
X156969935Y-37215164D01*
X156994439Y-37213960D01*
X157894441Y-37213960D01*
X157918945Y-37215164D01*
X157918945Y-37215164D01*
G37*
D19*
X157444440Y-37788960D03*
D14*
G36*
X73621765Y-126301204D02*
G01*
X73646033Y-126304804D01*
X73669832Y-126310765D01*
X73692931Y-126319030D01*
X73715110Y-126329520D01*
X73736153Y-126342132D01*
X73755859Y-126356747D01*
X73774037Y-126373223D01*
X73790513Y-126391401D01*
X73805128Y-126411107D01*
X73817740Y-126432150D01*
X73828230Y-126454329D01*
X73836495Y-126477428D01*
X73842456Y-126501227D01*
X73846056Y-126525495D01*
X73847260Y-126549999D01*
X73847260Y-127450001D01*
X73846056Y-127474505D01*
X73842456Y-127498773D01*
X73836495Y-127522572D01*
X73828230Y-127545671D01*
X73817740Y-127567850D01*
X73805128Y-127588893D01*
X73790513Y-127608599D01*
X73774037Y-127626777D01*
X73755859Y-127643253D01*
X73736153Y-127657868D01*
X73715110Y-127670480D01*
X73692931Y-127680970D01*
X73669832Y-127689235D01*
X73646033Y-127695196D01*
X73621765Y-127698796D01*
X73597261Y-127700000D01*
X72947259Y-127700000D01*
X72922755Y-127698796D01*
X72898487Y-127695196D01*
X72874688Y-127689235D01*
X72851589Y-127680970D01*
X72829410Y-127670480D01*
X72808367Y-127657868D01*
X72788661Y-127643253D01*
X72770483Y-127626777D01*
X72754007Y-127608599D01*
X72739392Y-127588893D01*
X72726780Y-127567850D01*
X72716290Y-127545671D01*
X72708025Y-127522572D01*
X72702064Y-127498773D01*
X72698464Y-127474505D01*
X72697260Y-127450001D01*
X72697260Y-126549999D01*
X72698464Y-126525495D01*
X72702064Y-126501227D01*
X72708025Y-126477428D01*
X72716290Y-126454329D01*
X72726780Y-126432150D01*
X72739392Y-126411107D01*
X72754007Y-126391401D01*
X72770483Y-126373223D01*
X72788661Y-126356747D01*
X72808367Y-126342132D01*
X72829410Y-126329520D01*
X72851589Y-126319030D01*
X72874688Y-126310765D01*
X72898487Y-126304804D01*
X72922755Y-126301204D01*
X72947259Y-126300000D01*
X73597261Y-126300000D01*
X73621765Y-126301204D01*
X73621765Y-126301204D01*
G37*
D19*
X73272260Y-127000000D03*
D14*
G36*
X75671765Y-126301204D02*
G01*
X75696033Y-126304804D01*
X75719832Y-126310765D01*
X75742931Y-126319030D01*
X75765110Y-126329520D01*
X75786153Y-126342132D01*
X75805859Y-126356747D01*
X75824037Y-126373223D01*
X75840513Y-126391401D01*
X75855128Y-126411107D01*
X75867740Y-126432150D01*
X75878230Y-126454329D01*
X75886495Y-126477428D01*
X75892456Y-126501227D01*
X75896056Y-126525495D01*
X75897260Y-126549999D01*
X75897260Y-127450001D01*
X75896056Y-127474505D01*
X75892456Y-127498773D01*
X75886495Y-127522572D01*
X75878230Y-127545671D01*
X75867740Y-127567850D01*
X75855128Y-127588893D01*
X75840513Y-127608599D01*
X75824037Y-127626777D01*
X75805859Y-127643253D01*
X75786153Y-127657868D01*
X75765110Y-127670480D01*
X75742931Y-127680970D01*
X75719832Y-127689235D01*
X75696033Y-127695196D01*
X75671765Y-127698796D01*
X75647261Y-127700000D01*
X74997259Y-127700000D01*
X74972755Y-127698796D01*
X74948487Y-127695196D01*
X74924688Y-127689235D01*
X74901589Y-127680970D01*
X74879410Y-127670480D01*
X74858367Y-127657868D01*
X74838661Y-127643253D01*
X74820483Y-127626777D01*
X74804007Y-127608599D01*
X74789392Y-127588893D01*
X74776780Y-127567850D01*
X74766290Y-127545671D01*
X74758025Y-127522572D01*
X74752064Y-127498773D01*
X74748464Y-127474505D01*
X74747260Y-127450001D01*
X74747260Y-126549999D01*
X74748464Y-126525495D01*
X74752064Y-126501227D01*
X74758025Y-126477428D01*
X74766290Y-126454329D01*
X74776780Y-126432150D01*
X74789392Y-126411107D01*
X74804007Y-126391401D01*
X74820483Y-126373223D01*
X74838661Y-126356747D01*
X74858367Y-126342132D01*
X74879410Y-126329520D01*
X74901589Y-126319030D01*
X74924688Y-126310765D01*
X74948487Y-126304804D01*
X74972755Y-126301204D01*
X74997259Y-126300000D01*
X75647261Y-126300000D01*
X75671765Y-126301204D01*
X75671765Y-126301204D01*
G37*
D19*
X75322260Y-127000000D03*
D14*
G36*
X75707730Y-143336982D02*
G01*
X75731955Y-143340575D01*
X75755711Y-143346526D01*
X75778769Y-143354776D01*
X75800907Y-143365247D01*
X75821913Y-143377837D01*
X75841583Y-143392425D01*
X75859728Y-143408872D01*
X75876175Y-143427017D01*
X75890763Y-143446687D01*
X75903353Y-143467693D01*
X75913824Y-143489831D01*
X75922074Y-143512889D01*
X75928025Y-143536645D01*
X75931618Y-143560870D01*
X75932820Y-143585330D01*
X75932820Y-144486230D01*
X75931618Y-144510690D01*
X75928025Y-144534915D01*
X75922074Y-144558671D01*
X75913824Y-144581729D01*
X75903353Y-144603867D01*
X75890763Y-144624873D01*
X75876175Y-144644543D01*
X75859728Y-144662688D01*
X75841583Y-144679135D01*
X75821913Y-144693723D01*
X75800907Y-144706313D01*
X75778769Y-144716784D01*
X75755711Y-144725034D01*
X75731955Y-144730985D01*
X75707730Y-144734578D01*
X75683270Y-144735780D01*
X75032370Y-144735780D01*
X75007910Y-144734578D01*
X74983685Y-144730985D01*
X74959929Y-144725034D01*
X74936871Y-144716784D01*
X74914733Y-144706313D01*
X74893727Y-144693723D01*
X74874057Y-144679135D01*
X74855912Y-144662688D01*
X74839465Y-144644543D01*
X74824877Y-144624873D01*
X74812287Y-144603867D01*
X74801816Y-144581729D01*
X74793566Y-144558671D01*
X74787615Y-144534915D01*
X74784022Y-144510690D01*
X74782820Y-144486230D01*
X74782820Y-143585330D01*
X74784022Y-143560870D01*
X74787615Y-143536645D01*
X74793566Y-143512889D01*
X74801816Y-143489831D01*
X74812287Y-143467693D01*
X74824877Y-143446687D01*
X74839465Y-143427017D01*
X74855912Y-143408872D01*
X74874057Y-143392425D01*
X74893727Y-143377837D01*
X74914733Y-143365247D01*
X74936871Y-143354776D01*
X74959929Y-143346526D01*
X74983685Y-143340575D01*
X75007910Y-143336982D01*
X75032370Y-143335780D01*
X75683270Y-143335780D01*
X75707730Y-143336982D01*
X75707730Y-143336982D01*
G37*
D19*
X75357820Y-144035780D03*
D14*
G36*
X73657325Y-143336984D02*
G01*
X73681593Y-143340584D01*
X73705392Y-143346545D01*
X73728491Y-143354810D01*
X73750670Y-143365300D01*
X73771713Y-143377912D01*
X73791419Y-143392527D01*
X73809597Y-143409003D01*
X73826073Y-143427181D01*
X73840688Y-143446887D01*
X73853300Y-143467930D01*
X73863790Y-143490109D01*
X73872055Y-143513208D01*
X73878016Y-143537007D01*
X73881616Y-143561275D01*
X73882820Y-143585779D01*
X73882820Y-144485781D01*
X73881616Y-144510285D01*
X73878016Y-144534553D01*
X73872055Y-144558352D01*
X73863790Y-144581451D01*
X73853300Y-144603630D01*
X73840688Y-144624673D01*
X73826073Y-144644379D01*
X73809597Y-144662557D01*
X73791419Y-144679033D01*
X73771713Y-144693648D01*
X73750670Y-144706260D01*
X73728491Y-144716750D01*
X73705392Y-144725015D01*
X73681593Y-144730976D01*
X73657325Y-144734576D01*
X73632821Y-144735780D01*
X72982819Y-144735780D01*
X72958315Y-144734576D01*
X72934047Y-144730976D01*
X72910248Y-144725015D01*
X72887149Y-144716750D01*
X72864970Y-144706260D01*
X72843927Y-144693648D01*
X72824221Y-144679033D01*
X72806043Y-144662557D01*
X72789567Y-144644379D01*
X72774952Y-144624673D01*
X72762340Y-144603630D01*
X72751850Y-144581451D01*
X72743585Y-144558352D01*
X72737624Y-144534553D01*
X72734024Y-144510285D01*
X72732820Y-144485781D01*
X72732820Y-143585779D01*
X72734024Y-143561275D01*
X72737624Y-143537007D01*
X72743585Y-143513208D01*
X72751850Y-143490109D01*
X72762340Y-143467930D01*
X72774952Y-143446887D01*
X72789567Y-143427181D01*
X72806043Y-143409003D01*
X72824221Y-143392527D01*
X72843927Y-143377912D01*
X72864970Y-143365300D01*
X72887149Y-143354810D01*
X72910248Y-143346545D01*
X72934047Y-143340584D01*
X72958315Y-143336984D01*
X72982819Y-143335780D01*
X73632821Y-143335780D01*
X73657325Y-143336984D01*
X73657325Y-143336984D01*
G37*
D19*
X73307820Y-144035780D03*
D14*
G36*
X154581385Y-137529704D02*
G01*
X154605653Y-137533304D01*
X154629452Y-137539265D01*
X154652551Y-137547530D01*
X154674730Y-137558020D01*
X154695773Y-137570632D01*
X154715479Y-137585247D01*
X154733657Y-137601723D01*
X154750133Y-137619901D01*
X154764748Y-137639607D01*
X154777360Y-137660650D01*
X154787850Y-137682829D01*
X154796115Y-137705928D01*
X154802076Y-137729727D01*
X154805676Y-137753995D01*
X154806880Y-137778499D01*
X154806880Y-138428501D01*
X154805676Y-138453005D01*
X154802076Y-138477273D01*
X154796115Y-138501072D01*
X154787850Y-138524171D01*
X154777360Y-138546350D01*
X154764748Y-138567393D01*
X154750133Y-138587099D01*
X154733657Y-138605277D01*
X154715479Y-138621753D01*
X154695773Y-138636368D01*
X154674730Y-138648980D01*
X154652551Y-138659470D01*
X154629452Y-138667735D01*
X154605653Y-138673696D01*
X154581385Y-138677296D01*
X154556881Y-138678500D01*
X153656879Y-138678500D01*
X153632375Y-138677296D01*
X153608107Y-138673696D01*
X153584308Y-138667735D01*
X153561209Y-138659470D01*
X153539030Y-138648980D01*
X153517987Y-138636368D01*
X153498281Y-138621753D01*
X153480103Y-138605277D01*
X153463627Y-138587099D01*
X153449012Y-138567393D01*
X153436400Y-138546350D01*
X153425910Y-138524171D01*
X153417645Y-138501072D01*
X153411684Y-138477273D01*
X153408084Y-138453005D01*
X153406880Y-138428501D01*
X153406880Y-137778499D01*
X153408084Y-137753995D01*
X153411684Y-137729727D01*
X153417645Y-137705928D01*
X153425910Y-137682829D01*
X153436400Y-137660650D01*
X153449012Y-137639607D01*
X153463627Y-137619901D01*
X153480103Y-137601723D01*
X153498281Y-137585247D01*
X153517987Y-137570632D01*
X153539030Y-137558020D01*
X153561209Y-137547530D01*
X153584308Y-137539265D01*
X153608107Y-137533304D01*
X153632375Y-137529704D01*
X153656879Y-137528500D01*
X154556881Y-137528500D01*
X154581385Y-137529704D01*
X154581385Y-137529704D01*
G37*
D19*
X154106880Y-138103500D03*
D14*
G36*
X154581385Y-139579704D02*
G01*
X154605653Y-139583304D01*
X154629452Y-139589265D01*
X154652551Y-139597530D01*
X154674730Y-139608020D01*
X154695773Y-139620632D01*
X154715479Y-139635247D01*
X154733657Y-139651723D01*
X154750133Y-139669901D01*
X154764748Y-139689607D01*
X154777360Y-139710650D01*
X154787850Y-139732829D01*
X154796115Y-139755928D01*
X154802076Y-139779727D01*
X154805676Y-139803995D01*
X154806880Y-139828499D01*
X154806880Y-140478501D01*
X154805676Y-140503005D01*
X154802076Y-140527273D01*
X154796115Y-140551072D01*
X154787850Y-140574171D01*
X154777360Y-140596350D01*
X154764748Y-140617393D01*
X154750133Y-140637099D01*
X154733657Y-140655277D01*
X154715479Y-140671753D01*
X154695773Y-140686368D01*
X154674730Y-140698980D01*
X154652551Y-140709470D01*
X154629452Y-140717735D01*
X154605653Y-140723696D01*
X154581385Y-140727296D01*
X154556881Y-140728500D01*
X153656879Y-140728500D01*
X153632375Y-140727296D01*
X153608107Y-140723696D01*
X153584308Y-140717735D01*
X153561209Y-140709470D01*
X153539030Y-140698980D01*
X153517987Y-140686368D01*
X153498281Y-140671753D01*
X153480103Y-140655277D01*
X153463627Y-140637099D01*
X153449012Y-140617393D01*
X153436400Y-140596350D01*
X153425910Y-140574171D01*
X153417645Y-140551072D01*
X153411684Y-140527273D01*
X153408084Y-140503005D01*
X153406880Y-140478501D01*
X153406880Y-139828499D01*
X153408084Y-139803995D01*
X153411684Y-139779727D01*
X153417645Y-139755928D01*
X153425910Y-139732829D01*
X153436400Y-139710650D01*
X153449012Y-139689607D01*
X153463627Y-139669901D01*
X153480103Y-139651723D01*
X153498281Y-139635247D01*
X153517987Y-139620632D01*
X153539030Y-139608020D01*
X153561209Y-139597530D01*
X153584308Y-139589265D01*
X153608107Y-139583304D01*
X153632375Y-139579704D01*
X153656879Y-139578500D01*
X154556881Y-139578500D01*
X154581385Y-139579704D01*
X154581385Y-139579704D01*
G37*
D19*
X154106880Y-140153500D03*
D14*
G36*
X77518345Y-91363504D02*
G01*
X77542613Y-91367104D01*
X77566412Y-91373065D01*
X77589511Y-91381330D01*
X77611690Y-91391820D01*
X77632733Y-91404432D01*
X77652439Y-91419047D01*
X77670617Y-91435523D01*
X77687093Y-91453701D01*
X77701708Y-91473407D01*
X77714320Y-91494450D01*
X77724810Y-91516629D01*
X77733075Y-91539728D01*
X77739036Y-91563527D01*
X77742636Y-91587795D01*
X77743840Y-91612299D01*
X77743840Y-92512301D01*
X77742636Y-92536805D01*
X77739036Y-92561073D01*
X77733075Y-92584872D01*
X77724810Y-92607971D01*
X77714320Y-92630150D01*
X77701708Y-92651193D01*
X77687093Y-92670899D01*
X77670617Y-92689077D01*
X77652439Y-92705553D01*
X77632733Y-92720168D01*
X77611690Y-92732780D01*
X77589511Y-92743270D01*
X77566412Y-92751535D01*
X77542613Y-92757496D01*
X77518345Y-92761096D01*
X77493841Y-92762300D01*
X76843839Y-92762300D01*
X76819335Y-92761096D01*
X76795067Y-92757496D01*
X76771268Y-92751535D01*
X76748169Y-92743270D01*
X76725990Y-92732780D01*
X76704947Y-92720168D01*
X76685241Y-92705553D01*
X76667063Y-92689077D01*
X76650587Y-92670899D01*
X76635972Y-92651193D01*
X76623360Y-92630150D01*
X76612870Y-92607971D01*
X76604605Y-92584872D01*
X76598644Y-92561073D01*
X76595044Y-92536805D01*
X76593840Y-92512301D01*
X76593840Y-91612299D01*
X76595044Y-91587795D01*
X76598644Y-91563527D01*
X76604605Y-91539728D01*
X76612870Y-91516629D01*
X76623360Y-91494450D01*
X76635972Y-91473407D01*
X76650587Y-91453701D01*
X76667063Y-91435523D01*
X76685241Y-91419047D01*
X76704947Y-91404432D01*
X76725990Y-91391820D01*
X76748169Y-91381330D01*
X76771268Y-91373065D01*
X76795067Y-91367104D01*
X76819335Y-91363504D01*
X76843839Y-91362300D01*
X77493841Y-91362300D01*
X77518345Y-91363504D01*
X77518345Y-91363504D01*
G37*
D19*
X77168840Y-92062300D03*
D14*
G36*
X75468345Y-91363504D02*
G01*
X75492613Y-91367104D01*
X75516412Y-91373065D01*
X75539511Y-91381330D01*
X75561690Y-91391820D01*
X75582733Y-91404432D01*
X75602439Y-91419047D01*
X75620617Y-91435523D01*
X75637093Y-91453701D01*
X75651708Y-91473407D01*
X75664320Y-91494450D01*
X75674810Y-91516629D01*
X75683075Y-91539728D01*
X75689036Y-91563527D01*
X75692636Y-91587795D01*
X75693840Y-91612299D01*
X75693840Y-92512301D01*
X75692636Y-92536805D01*
X75689036Y-92561073D01*
X75683075Y-92584872D01*
X75674810Y-92607971D01*
X75664320Y-92630150D01*
X75651708Y-92651193D01*
X75637093Y-92670899D01*
X75620617Y-92689077D01*
X75602439Y-92705553D01*
X75582733Y-92720168D01*
X75561690Y-92732780D01*
X75539511Y-92743270D01*
X75516412Y-92751535D01*
X75492613Y-92757496D01*
X75468345Y-92761096D01*
X75443841Y-92762300D01*
X74793839Y-92762300D01*
X74769335Y-92761096D01*
X74745067Y-92757496D01*
X74721268Y-92751535D01*
X74698169Y-92743270D01*
X74675990Y-92732780D01*
X74654947Y-92720168D01*
X74635241Y-92705553D01*
X74617063Y-92689077D01*
X74600587Y-92670899D01*
X74585972Y-92651193D01*
X74573360Y-92630150D01*
X74562870Y-92607971D01*
X74554605Y-92584872D01*
X74548644Y-92561073D01*
X74545044Y-92536805D01*
X74543840Y-92512301D01*
X74543840Y-91612299D01*
X74545044Y-91587795D01*
X74548644Y-91563527D01*
X74554605Y-91539728D01*
X74562870Y-91516629D01*
X74573360Y-91494450D01*
X74585972Y-91473407D01*
X74600587Y-91453701D01*
X74617063Y-91435523D01*
X74635241Y-91419047D01*
X74654947Y-91404432D01*
X74675990Y-91391820D01*
X74698169Y-91381330D01*
X74721268Y-91373065D01*
X74745067Y-91367104D01*
X74769335Y-91363504D01*
X74793839Y-91362300D01*
X75443841Y-91362300D01*
X75468345Y-91363504D01*
X75468345Y-91363504D01*
G37*
D19*
X75118840Y-92062300D03*
D14*
G36*
X75554705Y-73339664D02*
G01*
X75578973Y-73343264D01*
X75602772Y-73349225D01*
X75625871Y-73357490D01*
X75648050Y-73367980D01*
X75669093Y-73380592D01*
X75688799Y-73395207D01*
X75706977Y-73411683D01*
X75723453Y-73429861D01*
X75738068Y-73449567D01*
X75750680Y-73470610D01*
X75761170Y-73492789D01*
X75769435Y-73515888D01*
X75775396Y-73539687D01*
X75778996Y-73563955D01*
X75780200Y-73588459D01*
X75780200Y-74488461D01*
X75778996Y-74512965D01*
X75775396Y-74537233D01*
X75769435Y-74561032D01*
X75761170Y-74584131D01*
X75750680Y-74606310D01*
X75738068Y-74627353D01*
X75723453Y-74647059D01*
X75706977Y-74665237D01*
X75688799Y-74681713D01*
X75669093Y-74696328D01*
X75648050Y-74708940D01*
X75625871Y-74719430D01*
X75602772Y-74727695D01*
X75578973Y-74733656D01*
X75554705Y-74737256D01*
X75530201Y-74738460D01*
X74880199Y-74738460D01*
X74855695Y-74737256D01*
X74831427Y-74733656D01*
X74807628Y-74727695D01*
X74784529Y-74719430D01*
X74762350Y-74708940D01*
X74741307Y-74696328D01*
X74721601Y-74681713D01*
X74703423Y-74665237D01*
X74686947Y-74647059D01*
X74672332Y-74627353D01*
X74659720Y-74606310D01*
X74649230Y-74584131D01*
X74640965Y-74561032D01*
X74635004Y-74537233D01*
X74631404Y-74512965D01*
X74630200Y-74488461D01*
X74630200Y-73588459D01*
X74631404Y-73563955D01*
X74635004Y-73539687D01*
X74640965Y-73515888D01*
X74649230Y-73492789D01*
X74659720Y-73470610D01*
X74672332Y-73449567D01*
X74686947Y-73429861D01*
X74703423Y-73411683D01*
X74721601Y-73395207D01*
X74741307Y-73380592D01*
X74762350Y-73367980D01*
X74784529Y-73357490D01*
X74807628Y-73349225D01*
X74831427Y-73343264D01*
X74855695Y-73339664D01*
X74880199Y-73338460D01*
X75530201Y-73338460D01*
X75554705Y-73339664D01*
X75554705Y-73339664D01*
G37*
D19*
X75205200Y-74038460D03*
D14*
G36*
X77604705Y-73339664D02*
G01*
X77628973Y-73343264D01*
X77652772Y-73349225D01*
X77675871Y-73357490D01*
X77698050Y-73367980D01*
X77719093Y-73380592D01*
X77738799Y-73395207D01*
X77756977Y-73411683D01*
X77773453Y-73429861D01*
X77788068Y-73449567D01*
X77800680Y-73470610D01*
X77811170Y-73492789D01*
X77819435Y-73515888D01*
X77825396Y-73539687D01*
X77828996Y-73563955D01*
X77830200Y-73588459D01*
X77830200Y-74488461D01*
X77828996Y-74512965D01*
X77825396Y-74537233D01*
X77819435Y-74561032D01*
X77811170Y-74584131D01*
X77800680Y-74606310D01*
X77788068Y-74627353D01*
X77773453Y-74647059D01*
X77756977Y-74665237D01*
X77738799Y-74681713D01*
X77719093Y-74696328D01*
X77698050Y-74708940D01*
X77675871Y-74719430D01*
X77652772Y-74727695D01*
X77628973Y-74733656D01*
X77604705Y-74737256D01*
X77580201Y-74738460D01*
X76930199Y-74738460D01*
X76905695Y-74737256D01*
X76881427Y-74733656D01*
X76857628Y-74727695D01*
X76834529Y-74719430D01*
X76812350Y-74708940D01*
X76791307Y-74696328D01*
X76771601Y-74681713D01*
X76753423Y-74665237D01*
X76736947Y-74647059D01*
X76722332Y-74627353D01*
X76709720Y-74606310D01*
X76699230Y-74584131D01*
X76690965Y-74561032D01*
X76685004Y-74537233D01*
X76681404Y-74512965D01*
X76680200Y-74488461D01*
X76680200Y-73588459D01*
X76681404Y-73563955D01*
X76685004Y-73539687D01*
X76690965Y-73515888D01*
X76699230Y-73492789D01*
X76709720Y-73470610D01*
X76722332Y-73449567D01*
X76736947Y-73429861D01*
X76753423Y-73411683D01*
X76771601Y-73395207D01*
X76791307Y-73380592D01*
X76812350Y-73367980D01*
X76834529Y-73357490D01*
X76857628Y-73349225D01*
X76881427Y-73343264D01*
X76905695Y-73339664D01*
X76930199Y-73338460D01*
X77580201Y-73338460D01*
X77604705Y-73339664D01*
X77604705Y-73339664D01*
G37*
D19*
X77255200Y-74038460D03*
D14*
G36*
X75498825Y-55313284D02*
G01*
X75523093Y-55316884D01*
X75546892Y-55322845D01*
X75569991Y-55331110D01*
X75592170Y-55341600D01*
X75613213Y-55354212D01*
X75632919Y-55368827D01*
X75651097Y-55385303D01*
X75667573Y-55403481D01*
X75682188Y-55423187D01*
X75694800Y-55444230D01*
X75705290Y-55466409D01*
X75713555Y-55489508D01*
X75719516Y-55513307D01*
X75723116Y-55537575D01*
X75724320Y-55562079D01*
X75724320Y-56462081D01*
X75723116Y-56486585D01*
X75719516Y-56510853D01*
X75713555Y-56534652D01*
X75705290Y-56557751D01*
X75694800Y-56579930D01*
X75682188Y-56600973D01*
X75667573Y-56620679D01*
X75651097Y-56638857D01*
X75632919Y-56655333D01*
X75613213Y-56669948D01*
X75592170Y-56682560D01*
X75569991Y-56693050D01*
X75546892Y-56701315D01*
X75523093Y-56707276D01*
X75498825Y-56710876D01*
X75474321Y-56712080D01*
X74824319Y-56712080D01*
X74799815Y-56710876D01*
X74775547Y-56707276D01*
X74751748Y-56701315D01*
X74728649Y-56693050D01*
X74706470Y-56682560D01*
X74685427Y-56669948D01*
X74665721Y-56655333D01*
X74647543Y-56638857D01*
X74631067Y-56620679D01*
X74616452Y-56600973D01*
X74603840Y-56579930D01*
X74593350Y-56557751D01*
X74585085Y-56534652D01*
X74579124Y-56510853D01*
X74575524Y-56486585D01*
X74574320Y-56462081D01*
X74574320Y-55562079D01*
X74575524Y-55537575D01*
X74579124Y-55513307D01*
X74585085Y-55489508D01*
X74593350Y-55466409D01*
X74603840Y-55444230D01*
X74616452Y-55423187D01*
X74631067Y-55403481D01*
X74647543Y-55385303D01*
X74665721Y-55368827D01*
X74685427Y-55354212D01*
X74706470Y-55341600D01*
X74728649Y-55331110D01*
X74751748Y-55322845D01*
X74775547Y-55316884D01*
X74799815Y-55313284D01*
X74824319Y-55312080D01*
X75474321Y-55312080D01*
X75498825Y-55313284D01*
X75498825Y-55313284D01*
G37*
D19*
X75149320Y-56012080D03*
D14*
G36*
X77548825Y-55313284D02*
G01*
X77573093Y-55316884D01*
X77596892Y-55322845D01*
X77619991Y-55331110D01*
X77642170Y-55341600D01*
X77663213Y-55354212D01*
X77682919Y-55368827D01*
X77701097Y-55385303D01*
X77717573Y-55403481D01*
X77732188Y-55423187D01*
X77744800Y-55444230D01*
X77755290Y-55466409D01*
X77763555Y-55489508D01*
X77769516Y-55513307D01*
X77773116Y-55537575D01*
X77774320Y-55562079D01*
X77774320Y-56462081D01*
X77773116Y-56486585D01*
X77769516Y-56510853D01*
X77763555Y-56534652D01*
X77755290Y-56557751D01*
X77744800Y-56579930D01*
X77732188Y-56600973D01*
X77717573Y-56620679D01*
X77701097Y-56638857D01*
X77682919Y-56655333D01*
X77663213Y-56669948D01*
X77642170Y-56682560D01*
X77619991Y-56693050D01*
X77596892Y-56701315D01*
X77573093Y-56707276D01*
X77548825Y-56710876D01*
X77524321Y-56712080D01*
X76874319Y-56712080D01*
X76849815Y-56710876D01*
X76825547Y-56707276D01*
X76801748Y-56701315D01*
X76778649Y-56693050D01*
X76756470Y-56682560D01*
X76735427Y-56669948D01*
X76715721Y-56655333D01*
X76697543Y-56638857D01*
X76681067Y-56620679D01*
X76666452Y-56600973D01*
X76653840Y-56579930D01*
X76643350Y-56557751D01*
X76635085Y-56534652D01*
X76629124Y-56510853D01*
X76625524Y-56486585D01*
X76624320Y-56462081D01*
X76624320Y-55562079D01*
X76625524Y-55537575D01*
X76629124Y-55513307D01*
X76635085Y-55489508D01*
X76643350Y-55466409D01*
X76653840Y-55444230D01*
X76666452Y-55423187D01*
X76681067Y-55403481D01*
X76697543Y-55385303D01*
X76715721Y-55368827D01*
X76735427Y-55354212D01*
X76756470Y-55341600D01*
X76778649Y-55331110D01*
X76801748Y-55322845D01*
X76825547Y-55316884D01*
X76849815Y-55313284D01*
X76874319Y-55312080D01*
X77524321Y-55312080D01*
X77548825Y-55313284D01*
X77548825Y-55313284D01*
G37*
D19*
X77199320Y-56012080D03*
D14*
G36*
X73642085Y-109532124D02*
G01*
X73666353Y-109535724D01*
X73690152Y-109541685D01*
X73713251Y-109549950D01*
X73735430Y-109560440D01*
X73756473Y-109573052D01*
X73776179Y-109587667D01*
X73794357Y-109604143D01*
X73810833Y-109622321D01*
X73825448Y-109642027D01*
X73838060Y-109663070D01*
X73848550Y-109685249D01*
X73856815Y-109708348D01*
X73862776Y-109732147D01*
X73866376Y-109756415D01*
X73867580Y-109780919D01*
X73867580Y-110680921D01*
X73866376Y-110705425D01*
X73862776Y-110729693D01*
X73856815Y-110753492D01*
X73848550Y-110776591D01*
X73838060Y-110798770D01*
X73825448Y-110819813D01*
X73810833Y-110839519D01*
X73794357Y-110857697D01*
X73776179Y-110874173D01*
X73756473Y-110888788D01*
X73735430Y-110901400D01*
X73713251Y-110911890D01*
X73690152Y-110920155D01*
X73666353Y-110926116D01*
X73642085Y-110929716D01*
X73617581Y-110930920D01*
X72967579Y-110930920D01*
X72943075Y-110929716D01*
X72918807Y-110926116D01*
X72895008Y-110920155D01*
X72871909Y-110911890D01*
X72849730Y-110901400D01*
X72828687Y-110888788D01*
X72808981Y-110874173D01*
X72790803Y-110857697D01*
X72774327Y-110839519D01*
X72759712Y-110819813D01*
X72747100Y-110798770D01*
X72736610Y-110776591D01*
X72728345Y-110753492D01*
X72722384Y-110729693D01*
X72718784Y-110705425D01*
X72717580Y-110680921D01*
X72717580Y-109780919D01*
X72718784Y-109756415D01*
X72722384Y-109732147D01*
X72728345Y-109708348D01*
X72736610Y-109685249D01*
X72747100Y-109663070D01*
X72759712Y-109642027D01*
X72774327Y-109622321D01*
X72790803Y-109604143D01*
X72808981Y-109587667D01*
X72828687Y-109573052D01*
X72849730Y-109560440D01*
X72871909Y-109549950D01*
X72895008Y-109541685D01*
X72918807Y-109535724D01*
X72943075Y-109532124D01*
X72967579Y-109530920D01*
X73617581Y-109530920D01*
X73642085Y-109532124D01*
X73642085Y-109532124D01*
G37*
D19*
X73292580Y-110230920D03*
D14*
G36*
X75692085Y-109532124D02*
G01*
X75716353Y-109535724D01*
X75740152Y-109541685D01*
X75763251Y-109549950D01*
X75785430Y-109560440D01*
X75806473Y-109573052D01*
X75826179Y-109587667D01*
X75844357Y-109604143D01*
X75860833Y-109622321D01*
X75875448Y-109642027D01*
X75888060Y-109663070D01*
X75898550Y-109685249D01*
X75906815Y-109708348D01*
X75912776Y-109732147D01*
X75916376Y-109756415D01*
X75917580Y-109780919D01*
X75917580Y-110680921D01*
X75916376Y-110705425D01*
X75912776Y-110729693D01*
X75906815Y-110753492D01*
X75898550Y-110776591D01*
X75888060Y-110798770D01*
X75875448Y-110819813D01*
X75860833Y-110839519D01*
X75844357Y-110857697D01*
X75826179Y-110874173D01*
X75806473Y-110888788D01*
X75785430Y-110901400D01*
X75763251Y-110911890D01*
X75740152Y-110920155D01*
X75716353Y-110926116D01*
X75692085Y-110929716D01*
X75667581Y-110930920D01*
X75017579Y-110930920D01*
X74993075Y-110929716D01*
X74968807Y-110926116D01*
X74945008Y-110920155D01*
X74921909Y-110911890D01*
X74899730Y-110901400D01*
X74878687Y-110888788D01*
X74858981Y-110874173D01*
X74840803Y-110857697D01*
X74824327Y-110839519D01*
X74809712Y-110819813D01*
X74797100Y-110798770D01*
X74786610Y-110776591D01*
X74778345Y-110753492D01*
X74772384Y-110729693D01*
X74768784Y-110705425D01*
X74767580Y-110680921D01*
X74767580Y-109780919D01*
X74768784Y-109756415D01*
X74772384Y-109732147D01*
X74778345Y-109708348D01*
X74786610Y-109685249D01*
X74797100Y-109663070D01*
X74809712Y-109642027D01*
X74824327Y-109622321D01*
X74840803Y-109604143D01*
X74858981Y-109587667D01*
X74878687Y-109573052D01*
X74899730Y-109560440D01*
X74921909Y-109549950D01*
X74945008Y-109541685D01*
X74968807Y-109535724D01*
X74993075Y-109532124D01*
X75017579Y-109530920D01*
X75667581Y-109530920D01*
X75692085Y-109532124D01*
X75692085Y-109532124D01*
G37*
D19*
X75342580Y-110230920D03*
D14*
G36*
X156702285Y-107401204D02*
G01*
X156726553Y-107404804D01*
X156750352Y-107410765D01*
X156773451Y-107419030D01*
X156795630Y-107429520D01*
X156816673Y-107442132D01*
X156836379Y-107456747D01*
X156854557Y-107473223D01*
X156871033Y-107491401D01*
X156885648Y-107511107D01*
X156898260Y-107532150D01*
X156908750Y-107554329D01*
X156917015Y-107577428D01*
X156922976Y-107601227D01*
X156926576Y-107625495D01*
X156927780Y-107649999D01*
X156927780Y-108300001D01*
X156926576Y-108324505D01*
X156922976Y-108348773D01*
X156917015Y-108372572D01*
X156908750Y-108395671D01*
X156898260Y-108417850D01*
X156885648Y-108438893D01*
X156871033Y-108458599D01*
X156854557Y-108476777D01*
X156836379Y-108493253D01*
X156816673Y-108507868D01*
X156795630Y-108520480D01*
X156773451Y-108530970D01*
X156750352Y-108539235D01*
X156726553Y-108545196D01*
X156702285Y-108548796D01*
X156677781Y-108550000D01*
X155777779Y-108550000D01*
X155753275Y-108548796D01*
X155729007Y-108545196D01*
X155705208Y-108539235D01*
X155682109Y-108530970D01*
X155659930Y-108520480D01*
X155638887Y-108507868D01*
X155619181Y-108493253D01*
X155601003Y-108476777D01*
X155584527Y-108458599D01*
X155569912Y-108438893D01*
X155557300Y-108417850D01*
X155546810Y-108395671D01*
X155538545Y-108372572D01*
X155532584Y-108348773D01*
X155528984Y-108324505D01*
X155527780Y-108300001D01*
X155527780Y-107649999D01*
X155528984Y-107625495D01*
X155532584Y-107601227D01*
X155538545Y-107577428D01*
X155546810Y-107554329D01*
X155557300Y-107532150D01*
X155569912Y-107511107D01*
X155584527Y-107491401D01*
X155601003Y-107473223D01*
X155619181Y-107456747D01*
X155638887Y-107442132D01*
X155659930Y-107429520D01*
X155682109Y-107419030D01*
X155705208Y-107410765D01*
X155729007Y-107404804D01*
X155753275Y-107401204D01*
X155777779Y-107400000D01*
X156677781Y-107400000D01*
X156702285Y-107401204D01*
X156702285Y-107401204D01*
G37*
D19*
X156227780Y-107975000D03*
D14*
G36*
X156702285Y-105351204D02*
G01*
X156726553Y-105354804D01*
X156750352Y-105360765D01*
X156773451Y-105369030D01*
X156795630Y-105379520D01*
X156816673Y-105392132D01*
X156836379Y-105406747D01*
X156854557Y-105423223D01*
X156871033Y-105441401D01*
X156885648Y-105461107D01*
X156898260Y-105482150D01*
X156908750Y-105504329D01*
X156917015Y-105527428D01*
X156922976Y-105551227D01*
X156926576Y-105575495D01*
X156927780Y-105599999D01*
X156927780Y-106250001D01*
X156926576Y-106274505D01*
X156922976Y-106298773D01*
X156917015Y-106322572D01*
X156908750Y-106345671D01*
X156898260Y-106367850D01*
X156885648Y-106388893D01*
X156871033Y-106408599D01*
X156854557Y-106426777D01*
X156836379Y-106443253D01*
X156816673Y-106457868D01*
X156795630Y-106470480D01*
X156773451Y-106480970D01*
X156750352Y-106489235D01*
X156726553Y-106495196D01*
X156702285Y-106498796D01*
X156677781Y-106500000D01*
X155777779Y-106500000D01*
X155753275Y-106498796D01*
X155729007Y-106495196D01*
X155705208Y-106489235D01*
X155682109Y-106480970D01*
X155659930Y-106470480D01*
X155638887Y-106457868D01*
X155619181Y-106443253D01*
X155601003Y-106426777D01*
X155584527Y-106408599D01*
X155569912Y-106388893D01*
X155557300Y-106367850D01*
X155546810Y-106345671D01*
X155538545Y-106322572D01*
X155532584Y-106298773D01*
X155528984Y-106274505D01*
X155527780Y-106250001D01*
X155527780Y-105599999D01*
X155528984Y-105575495D01*
X155532584Y-105551227D01*
X155538545Y-105527428D01*
X155546810Y-105504329D01*
X155557300Y-105482150D01*
X155569912Y-105461107D01*
X155584527Y-105441401D01*
X155601003Y-105423223D01*
X155619181Y-105406747D01*
X155638887Y-105392132D01*
X155659930Y-105379520D01*
X155682109Y-105369030D01*
X155705208Y-105360765D01*
X155729007Y-105354804D01*
X155753275Y-105351204D01*
X155777779Y-105350000D01*
X156677781Y-105350000D01*
X156702285Y-105351204D01*
X156702285Y-105351204D01*
G37*
D19*
X156227780Y-105925000D03*
D14*
G36*
X109430905Y-141647884D02*
G01*
X109455173Y-141651484D01*
X109478972Y-141657445D01*
X109502071Y-141665710D01*
X109524250Y-141676200D01*
X109545293Y-141688812D01*
X109564999Y-141703427D01*
X109583177Y-141719903D01*
X109599653Y-141738081D01*
X109614268Y-141757787D01*
X109626880Y-141778830D01*
X109637370Y-141801009D01*
X109645635Y-141824108D01*
X109651596Y-141847907D01*
X109655196Y-141872175D01*
X109656400Y-141896679D01*
X109656400Y-142796681D01*
X109655196Y-142821185D01*
X109651596Y-142845453D01*
X109645635Y-142869252D01*
X109637370Y-142892351D01*
X109626880Y-142914530D01*
X109614268Y-142935573D01*
X109599653Y-142955279D01*
X109583177Y-142973457D01*
X109564999Y-142989933D01*
X109545293Y-143004548D01*
X109524250Y-143017160D01*
X109502071Y-143027650D01*
X109478972Y-143035915D01*
X109455173Y-143041876D01*
X109430905Y-143045476D01*
X109406401Y-143046680D01*
X108756399Y-143046680D01*
X108731895Y-143045476D01*
X108707627Y-143041876D01*
X108683828Y-143035915D01*
X108660729Y-143027650D01*
X108638550Y-143017160D01*
X108617507Y-143004548D01*
X108597801Y-142989933D01*
X108579623Y-142973457D01*
X108563147Y-142955279D01*
X108548532Y-142935573D01*
X108535920Y-142914530D01*
X108525430Y-142892351D01*
X108517165Y-142869252D01*
X108511204Y-142845453D01*
X108507604Y-142821185D01*
X108506400Y-142796681D01*
X108506400Y-141896679D01*
X108507604Y-141872175D01*
X108511204Y-141847907D01*
X108517165Y-141824108D01*
X108525430Y-141801009D01*
X108535920Y-141778830D01*
X108548532Y-141757787D01*
X108563147Y-141738081D01*
X108579623Y-141719903D01*
X108597801Y-141703427D01*
X108617507Y-141688812D01*
X108638550Y-141676200D01*
X108660729Y-141665710D01*
X108683828Y-141657445D01*
X108707627Y-141651484D01*
X108731895Y-141647884D01*
X108756399Y-141646680D01*
X109406401Y-141646680D01*
X109430905Y-141647884D01*
X109430905Y-141647884D01*
G37*
D19*
X109081400Y-142346680D03*
D14*
G36*
X107381310Y-141647882D02*
G01*
X107405535Y-141651475D01*
X107429291Y-141657426D01*
X107452349Y-141665676D01*
X107474487Y-141676147D01*
X107495493Y-141688737D01*
X107515163Y-141703325D01*
X107533308Y-141719772D01*
X107549755Y-141737917D01*
X107564343Y-141757587D01*
X107576933Y-141778593D01*
X107587404Y-141800731D01*
X107595654Y-141823789D01*
X107601605Y-141847545D01*
X107605198Y-141871770D01*
X107606400Y-141896230D01*
X107606400Y-142797130D01*
X107605198Y-142821590D01*
X107601605Y-142845815D01*
X107595654Y-142869571D01*
X107587404Y-142892629D01*
X107576933Y-142914767D01*
X107564343Y-142935773D01*
X107549755Y-142955443D01*
X107533308Y-142973588D01*
X107515163Y-142990035D01*
X107495493Y-143004623D01*
X107474487Y-143017213D01*
X107452349Y-143027684D01*
X107429291Y-143035934D01*
X107405535Y-143041885D01*
X107381310Y-143045478D01*
X107356850Y-143046680D01*
X106705950Y-143046680D01*
X106681490Y-143045478D01*
X106657265Y-143041885D01*
X106633509Y-143035934D01*
X106610451Y-143027684D01*
X106588313Y-143017213D01*
X106567307Y-143004623D01*
X106547637Y-142990035D01*
X106529492Y-142973588D01*
X106513045Y-142955443D01*
X106498457Y-142935773D01*
X106485867Y-142914767D01*
X106475396Y-142892629D01*
X106467146Y-142869571D01*
X106461195Y-142845815D01*
X106457602Y-142821590D01*
X106456400Y-142797130D01*
X106456400Y-141896230D01*
X106457602Y-141871770D01*
X106461195Y-141847545D01*
X106467146Y-141823789D01*
X106475396Y-141800731D01*
X106485867Y-141778593D01*
X106498457Y-141757587D01*
X106513045Y-141737917D01*
X106529492Y-141719772D01*
X106547637Y-141703325D01*
X106567307Y-141688737D01*
X106588313Y-141676147D01*
X106610451Y-141665676D01*
X106633509Y-141657426D01*
X106657265Y-141651475D01*
X106681490Y-141647882D01*
X106705950Y-141646680D01*
X107356850Y-141646680D01*
X107381310Y-141647882D01*
X107381310Y-141647882D01*
G37*
D19*
X107031400Y-142346680D03*
D14*
G36*
X145972164Y-82275644D02*
G01*
X145996433Y-82279244D01*
X146020231Y-82285205D01*
X146043331Y-82293470D01*
X146065509Y-82303960D01*
X146086553Y-82316573D01*
X146106258Y-82331187D01*
X146124437Y-82347663D01*
X146140913Y-82365842D01*
X146155527Y-82385547D01*
X146168140Y-82406591D01*
X146178630Y-82428769D01*
X146186895Y-82451869D01*
X146192856Y-82475667D01*
X146196456Y-82499936D01*
X146197660Y-82524440D01*
X146197660Y-83774440D01*
X146196456Y-83798944D01*
X146192856Y-83823213D01*
X146186895Y-83847011D01*
X146178630Y-83870111D01*
X146168140Y-83892289D01*
X146155527Y-83913333D01*
X146140913Y-83933038D01*
X146124437Y-83951217D01*
X146106258Y-83967693D01*
X146086553Y-83982307D01*
X146065509Y-83994920D01*
X146043331Y-84005410D01*
X146020231Y-84013675D01*
X145996433Y-84019636D01*
X145972164Y-84023236D01*
X145947660Y-84024440D01*
X145197660Y-84024440D01*
X145173156Y-84023236D01*
X145148887Y-84019636D01*
X145125089Y-84013675D01*
X145101989Y-84005410D01*
X145079811Y-83994920D01*
X145058767Y-83982307D01*
X145039062Y-83967693D01*
X145020883Y-83951217D01*
X145004407Y-83933038D01*
X144989793Y-83913333D01*
X144977180Y-83892289D01*
X144966690Y-83870111D01*
X144958425Y-83847011D01*
X144952464Y-83823213D01*
X144948864Y-83798944D01*
X144947660Y-83774440D01*
X144947660Y-82524440D01*
X144948864Y-82499936D01*
X144952464Y-82475667D01*
X144958425Y-82451869D01*
X144966690Y-82428769D01*
X144977180Y-82406591D01*
X144989793Y-82385547D01*
X145004407Y-82365842D01*
X145020883Y-82347663D01*
X145039062Y-82331187D01*
X145058767Y-82316573D01*
X145079811Y-82303960D01*
X145101989Y-82293470D01*
X145125089Y-82285205D01*
X145148887Y-82279244D01*
X145173156Y-82275644D01*
X145197660Y-82274440D01*
X145947660Y-82274440D01*
X145972164Y-82275644D01*
X145972164Y-82275644D01*
G37*
D31*
X145572660Y-83149440D03*
D14*
G36*
X143172164Y-82275644D02*
G01*
X143196433Y-82279244D01*
X143220231Y-82285205D01*
X143243331Y-82293470D01*
X143265509Y-82303960D01*
X143286553Y-82316573D01*
X143306258Y-82331187D01*
X143324437Y-82347663D01*
X143340913Y-82365842D01*
X143355527Y-82385547D01*
X143368140Y-82406591D01*
X143378630Y-82428769D01*
X143386895Y-82451869D01*
X143392856Y-82475667D01*
X143396456Y-82499936D01*
X143397660Y-82524440D01*
X143397660Y-83774440D01*
X143396456Y-83798944D01*
X143392856Y-83823213D01*
X143386895Y-83847011D01*
X143378630Y-83870111D01*
X143368140Y-83892289D01*
X143355527Y-83913333D01*
X143340913Y-83933038D01*
X143324437Y-83951217D01*
X143306258Y-83967693D01*
X143286553Y-83982307D01*
X143265509Y-83994920D01*
X143243331Y-84005410D01*
X143220231Y-84013675D01*
X143196433Y-84019636D01*
X143172164Y-84023236D01*
X143147660Y-84024440D01*
X142397660Y-84024440D01*
X142373156Y-84023236D01*
X142348887Y-84019636D01*
X142325089Y-84013675D01*
X142301989Y-84005410D01*
X142279811Y-83994920D01*
X142258767Y-83982307D01*
X142239062Y-83967693D01*
X142220883Y-83951217D01*
X142204407Y-83933038D01*
X142189793Y-83913333D01*
X142177180Y-83892289D01*
X142166690Y-83870111D01*
X142158425Y-83847011D01*
X142152464Y-83823213D01*
X142148864Y-83798944D01*
X142147660Y-83774440D01*
X142147660Y-82524440D01*
X142148864Y-82499936D01*
X142152464Y-82475667D01*
X142158425Y-82451869D01*
X142166690Y-82428769D01*
X142177180Y-82406591D01*
X142189793Y-82385547D01*
X142204407Y-82365842D01*
X142220883Y-82347663D01*
X142239062Y-82331187D01*
X142258767Y-82316573D01*
X142279811Y-82303960D01*
X142301989Y-82293470D01*
X142325089Y-82285205D01*
X142348887Y-82279244D01*
X142373156Y-82275644D01*
X142397660Y-82274440D01*
X143147660Y-82274440D01*
X143172164Y-82275644D01*
X143172164Y-82275644D01*
G37*
D31*
X142772660Y-83149440D03*
D14*
G36*
X143131524Y-79654364D02*
G01*
X143155793Y-79657964D01*
X143179591Y-79663925D01*
X143202691Y-79672190D01*
X143224869Y-79682680D01*
X143245913Y-79695293D01*
X143265618Y-79709907D01*
X143283797Y-79726383D01*
X143300273Y-79744562D01*
X143314887Y-79764267D01*
X143327500Y-79785311D01*
X143337990Y-79807489D01*
X143346255Y-79830589D01*
X143352216Y-79854387D01*
X143355816Y-79878656D01*
X143357020Y-79903160D01*
X143357020Y-81153160D01*
X143355816Y-81177664D01*
X143352216Y-81201933D01*
X143346255Y-81225731D01*
X143337990Y-81248831D01*
X143327500Y-81271009D01*
X143314887Y-81292053D01*
X143300273Y-81311758D01*
X143283797Y-81329937D01*
X143265618Y-81346413D01*
X143245913Y-81361027D01*
X143224869Y-81373640D01*
X143202691Y-81384130D01*
X143179591Y-81392395D01*
X143155793Y-81398356D01*
X143131524Y-81401956D01*
X143107020Y-81403160D01*
X142357020Y-81403160D01*
X142332516Y-81401956D01*
X142308247Y-81398356D01*
X142284449Y-81392395D01*
X142261349Y-81384130D01*
X142239171Y-81373640D01*
X142218127Y-81361027D01*
X142198422Y-81346413D01*
X142180243Y-81329937D01*
X142163767Y-81311758D01*
X142149153Y-81292053D01*
X142136540Y-81271009D01*
X142126050Y-81248831D01*
X142117785Y-81225731D01*
X142111824Y-81201933D01*
X142108224Y-81177664D01*
X142107020Y-81153160D01*
X142107020Y-79903160D01*
X142108224Y-79878656D01*
X142111824Y-79854387D01*
X142117785Y-79830589D01*
X142126050Y-79807489D01*
X142136540Y-79785311D01*
X142149153Y-79764267D01*
X142163767Y-79744562D01*
X142180243Y-79726383D01*
X142198422Y-79709907D01*
X142218127Y-79695293D01*
X142239171Y-79682680D01*
X142261349Y-79672190D01*
X142284449Y-79663925D01*
X142308247Y-79657964D01*
X142332516Y-79654364D01*
X142357020Y-79653160D01*
X143107020Y-79653160D01*
X143131524Y-79654364D01*
X143131524Y-79654364D01*
G37*
D31*
X142732020Y-80528160D03*
D14*
G36*
X145931524Y-79654364D02*
G01*
X145955793Y-79657964D01*
X145979591Y-79663925D01*
X146002691Y-79672190D01*
X146024869Y-79682680D01*
X146045913Y-79695293D01*
X146065618Y-79709907D01*
X146083797Y-79726383D01*
X146100273Y-79744562D01*
X146114887Y-79764267D01*
X146127500Y-79785311D01*
X146137990Y-79807489D01*
X146146255Y-79830589D01*
X146152216Y-79854387D01*
X146155816Y-79878656D01*
X146157020Y-79903160D01*
X146157020Y-81153160D01*
X146155816Y-81177664D01*
X146152216Y-81201933D01*
X146146255Y-81225731D01*
X146137990Y-81248831D01*
X146127500Y-81271009D01*
X146114887Y-81292053D01*
X146100273Y-81311758D01*
X146083797Y-81329937D01*
X146065618Y-81346413D01*
X146045913Y-81361027D01*
X146024869Y-81373640D01*
X146002691Y-81384130D01*
X145979591Y-81392395D01*
X145955793Y-81398356D01*
X145931524Y-81401956D01*
X145907020Y-81403160D01*
X145157020Y-81403160D01*
X145132516Y-81401956D01*
X145108247Y-81398356D01*
X145084449Y-81392395D01*
X145061349Y-81384130D01*
X145039171Y-81373640D01*
X145018127Y-81361027D01*
X144998422Y-81346413D01*
X144980243Y-81329937D01*
X144963767Y-81311758D01*
X144949153Y-81292053D01*
X144936540Y-81271009D01*
X144926050Y-81248831D01*
X144917785Y-81225731D01*
X144911824Y-81201933D01*
X144908224Y-81177664D01*
X144907020Y-81153160D01*
X144907020Y-79903160D01*
X144908224Y-79878656D01*
X144911824Y-79854387D01*
X144917785Y-79830589D01*
X144926050Y-79807489D01*
X144936540Y-79785311D01*
X144949153Y-79764267D01*
X144963767Y-79744562D01*
X144980243Y-79726383D01*
X144998422Y-79709907D01*
X145018127Y-79695293D01*
X145039171Y-79682680D01*
X145061349Y-79672190D01*
X145084449Y-79663925D01*
X145108247Y-79657964D01*
X145132516Y-79654364D01*
X145157020Y-79653160D01*
X145907020Y-79653160D01*
X145931524Y-79654364D01*
X145931524Y-79654364D01*
G37*
D31*
X145532020Y-80528160D03*
D32*
X96911340Y-90639940D03*
X96911340Y-89689940D03*
X96911340Y-88739940D03*
X94711340Y-88739940D03*
X94711340Y-90639940D03*
X94711340Y-89689940D03*
D14*
G36*
X215630142Y-69451174D02*
G01*
X215653803Y-69454684D01*
X215677007Y-69460496D01*
X215699529Y-69468554D01*
X215721153Y-69478782D01*
X215741670Y-69491079D01*
X215760883Y-69505329D01*
X215778607Y-69521393D01*
X215794671Y-69539117D01*
X215808921Y-69558330D01*
X215821218Y-69578847D01*
X215831446Y-69600471D01*
X215839504Y-69622993D01*
X215845316Y-69646197D01*
X215848826Y-69669858D01*
X215850000Y-69693750D01*
X215850000Y-70181250D01*
X215848826Y-70205142D01*
X215845316Y-70228803D01*
X215839504Y-70252007D01*
X215831446Y-70274529D01*
X215821218Y-70296153D01*
X215808921Y-70316670D01*
X215794671Y-70335883D01*
X215778607Y-70353607D01*
X215760883Y-70369671D01*
X215741670Y-70383921D01*
X215721153Y-70396218D01*
X215699529Y-70406446D01*
X215677007Y-70414504D01*
X215653803Y-70420316D01*
X215630142Y-70423826D01*
X215606250Y-70425000D01*
X214693750Y-70425000D01*
X214669858Y-70423826D01*
X214646197Y-70420316D01*
X214622993Y-70414504D01*
X214600471Y-70406446D01*
X214578847Y-70396218D01*
X214558330Y-70383921D01*
X214539117Y-70369671D01*
X214521393Y-70353607D01*
X214505329Y-70335883D01*
X214491079Y-70316670D01*
X214478782Y-70296153D01*
X214468554Y-70274529D01*
X214460496Y-70252007D01*
X214454684Y-70228803D01*
X214451174Y-70205142D01*
X214450000Y-70181250D01*
X214450000Y-69693750D01*
X214451174Y-69669858D01*
X214454684Y-69646197D01*
X214460496Y-69622993D01*
X214468554Y-69600471D01*
X214478782Y-69578847D01*
X214491079Y-69558330D01*
X214505329Y-69539117D01*
X214521393Y-69521393D01*
X214539117Y-69505329D01*
X214558330Y-69491079D01*
X214578847Y-69478782D01*
X214600471Y-69468554D01*
X214622993Y-69460496D01*
X214646197Y-69454684D01*
X214669858Y-69451174D01*
X214693750Y-69450000D01*
X215606250Y-69450000D01*
X215630142Y-69451174D01*
X215630142Y-69451174D01*
G37*
D33*
X215150000Y-69937500D03*
D14*
G36*
X215630142Y-67576174D02*
G01*
X215653803Y-67579684D01*
X215677007Y-67585496D01*
X215699529Y-67593554D01*
X215721153Y-67603782D01*
X215741670Y-67616079D01*
X215760883Y-67630329D01*
X215778607Y-67646393D01*
X215794671Y-67664117D01*
X215808921Y-67683330D01*
X215821218Y-67703847D01*
X215831446Y-67725471D01*
X215839504Y-67747993D01*
X215845316Y-67771197D01*
X215848826Y-67794858D01*
X215850000Y-67818750D01*
X215850000Y-68306250D01*
X215848826Y-68330142D01*
X215845316Y-68353803D01*
X215839504Y-68377007D01*
X215831446Y-68399529D01*
X215821218Y-68421153D01*
X215808921Y-68441670D01*
X215794671Y-68460883D01*
X215778607Y-68478607D01*
X215760883Y-68494671D01*
X215741670Y-68508921D01*
X215721153Y-68521218D01*
X215699529Y-68531446D01*
X215677007Y-68539504D01*
X215653803Y-68545316D01*
X215630142Y-68548826D01*
X215606250Y-68550000D01*
X214693750Y-68550000D01*
X214669858Y-68548826D01*
X214646197Y-68545316D01*
X214622993Y-68539504D01*
X214600471Y-68531446D01*
X214578847Y-68521218D01*
X214558330Y-68508921D01*
X214539117Y-68494671D01*
X214521393Y-68478607D01*
X214505329Y-68460883D01*
X214491079Y-68441670D01*
X214478782Y-68421153D01*
X214468554Y-68399529D01*
X214460496Y-68377007D01*
X214454684Y-68353803D01*
X214451174Y-68330142D01*
X214450000Y-68306250D01*
X214450000Y-67818750D01*
X214451174Y-67794858D01*
X214454684Y-67771197D01*
X214460496Y-67747993D01*
X214468554Y-67725471D01*
X214478782Y-67703847D01*
X214491079Y-67683330D01*
X214505329Y-67664117D01*
X214521393Y-67646393D01*
X214539117Y-67630329D01*
X214558330Y-67616079D01*
X214578847Y-67603782D01*
X214600471Y-67593554D01*
X214622993Y-67585496D01*
X214646197Y-67579684D01*
X214669858Y-67576174D01*
X214693750Y-67575000D01*
X215606250Y-67575000D01*
X215630142Y-67576174D01*
X215630142Y-67576174D01*
G37*
D33*
X215150000Y-68062500D03*
D14*
G36*
X215680142Y-59701174D02*
G01*
X215703803Y-59704684D01*
X215727007Y-59710496D01*
X215749529Y-59718554D01*
X215771153Y-59728782D01*
X215791670Y-59741079D01*
X215810883Y-59755329D01*
X215828607Y-59771393D01*
X215844671Y-59789117D01*
X215858921Y-59808330D01*
X215871218Y-59828847D01*
X215881446Y-59850471D01*
X215889504Y-59872993D01*
X215895316Y-59896197D01*
X215898826Y-59919858D01*
X215900000Y-59943750D01*
X215900000Y-60431250D01*
X215898826Y-60455142D01*
X215895316Y-60478803D01*
X215889504Y-60502007D01*
X215881446Y-60524529D01*
X215871218Y-60546153D01*
X215858921Y-60566670D01*
X215844671Y-60585883D01*
X215828607Y-60603607D01*
X215810883Y-60619671D01*
X215791670Y-60633921D01*
X215771153Y-60646218D01*
X215749529Y-60656446D01*
X215727007Y-60664504D01*
X215703803Y-60670316D01*
X215680142Y-60673826D01*
X215656250Y-60675000D01*
X214743750Y-60675000D01*
X214719858Y-60673826D01*
X214696197Y-60670316D01*
X214672993Y-60664504D01*
X214650471Y-60656446D01*
X214628847Y-60646218D01*
X214608330Y-60633921D01*
X214589117Y-60619671D01*
X214571393Y-60603607D01*
X214555329Y-60585883D01*
X214541079Y-60566670D01*
X214528782Y-60546153D01*
X214518554Y-60524529D01*
X214510496Y-60502007D01*
X214504684Y-60478803D01*
X214501174Y-60455142D01*
X214500000Y-60431250D01*
X214500000Y-59943750D01*
X214501174Y-59919858D01*
X214504684Y-59896197D01*
X214510496Y-59872993D01*
X214518554Y-59850471D01*
X214528782Y-59828847D01*
X214541079Y-59808330D01*
X214555329Y-59789117D01*
X214571393Y-59771393D01*
X214589117Y-59755329D01*
X214608330Y-59741079D01*
X214628847Y-59728782D01*
X214650471Y-59718554D01*
X214672993Y-59710496D01*
X214696197Y-59704684D01*
X214719858Y-59701174D01*
X214743750Y-59700000D01*
X215656250Y-59700000D01*
X215680142Y-59701174D01*
X215680142Y-59701174D01*
G37*
D33*
X215200000Y-60187500D03*
D14*
G36*
X215680142Y-57826174D02*
G01*
X215703803Y-57829684D01*
X215727007Y-57835496D01*
X215749529Y-57843554D01*
X215771153Y-57853782D01*
X215791670Y-57866079D01*
X215810883Y-57880329D01*
X215828607Y-57896393D01*
X215844671Y-57914117D01*
X215858921Y-57933330D01*
X215871218Y-57953847D01*
X215881446Y-57975471D01*
X215889504Y-57997993D01*
X215895316Y-58021197D01*
X215898826Y-58044858D01*
X215900000Y-58068750D01*
X215900000Y-58556250D01*
X215898826Y-58580142D01*
X215895316Y-58603803D01*
X215889504Y-58627007D01*
X215881446Y-58649529D01*
X215871218Y-58671153D01*
X215858921Y-58691670D01*
X215844671Y-58710883D01*
X215828607Y-58728607D01*
X215810883Y-58744671D01*
X215791670Y-58758921D01*
X215771153Y-58771218D01*
X215749529Y-58781446D01*
X215727007Y-58789504D01*
X215703803Y-58795316D01*
X215680142Y-58798826D01*
X215656250Y-58800000D01*
X214743750Y-58800000D01*
X214719858Y-58798826D01*
X214696197Y-58795316D01*
X214672993Y-58789504D01*
X214650471Y-58781446D01*
X214628847Y-58771218D01*
X214608330Y-58758921D01*
X214589117Y-58744671D01*
X214571393Y-58728607D01*
X214555329Y-58710883D01*
X214541079Y-58691670D01*
X214528782Y-58671153D01*
X214518554Y-58649529D01*
X214510496Y-58627007D01*
X214504684Y-58603803D01*
X214501174Y-58580142D01*
X214500000Y-58556250D01*
X214500000Y-58068750D01*
X214501174Y-58044858D01*
X214504684Y-58021197D01*
X214510496Y-57997993D01*
X214518554Y-57975471D01*
X214528782Y-57953847D01*
X214541079Y-57933330D01*
X214555329Y-57914117D01*
X214571393Y-57896393D01*
X214589117Y-57880329D01*
X214608330Y-57866079D01*
X214628847Y-57853782D01*
X214650471Y-57843554D01*
X214672993Y-57835496D01*
X214696197Y-57829684D01*
X214719858Y-57826174D01*
X214743750Y-57825000D01*
X215656250Y-57825000D01*
X215680142Y-57826174D01*
X215680142Y-57826174D01*
G37*
D33*
X215200000Y-58312500D03*
D14*
G36*
X168830142Y-67126174D02*
G01*
X168853803Y-67129684D01*
X168877007Y-67135496D01*
X168899529Y-67143554D01*
X168921153Y-67153782D01*
X168941670Y-67166079D01*
X168960883Y-67180329D01*
X168978607Y-67196393D01*
X168994671Y-67214117D01*
X169008921Y-67233330D01*
X169021218Y-67253847D01*
X169031446Y-67275471D01*
X169039504Y-67297993D01*
X169045316Y-67321197D01*
X169048826Y-67344858D01*
X169050000Y-67368750D01*
X169050000Y-67856250D01*
X169048826Y-67880142D01*
X169045316Y-67903803D01*
X169039504Y-67927007D01*
X169031446Y-67949529D01*
X169021218Y-67971153D01*
X169008921Y-67991670D01*
X168994671Y-68010883D01*
X168978607Y-68028607D01*
X168960883Y-68044671D01*
X168941670Y-68058921D01*
X168921153Y-68071218D01*
X168899529Y-68081446D01*
X168877007Y-68089504D01*
X168853803Y-68095316D01*
X168830142Y-68098826D01*
X168806250Y-68100000D01*
X167893750Y-68100000D01*
X167869858Y-68098826D01*
X167846197Y-68095316D01*
X167822993Y-68089504D01*
X167800471Y-68081446D01*
X167778847Y-68071218D01*
X167758330Y-68058921D01*
X167739117Y-68044671D01*
X167721393Y-68028607D01*
X167705329Y-68010883D01*
X167691079Y-67991670D01*
X167678782Y-67971153D01*
X167668554Y-67949529D01*
X167660496Y-67927007D01*
X167654684Y-67903803D01*
X167651174Y-67880142D01*
X167650000Y-67856250D01*
X167650000Y-67368750D01*
X167651174Y-67344858D01*
X167654684Y-67321197D01*
X167660496Y-67297993D01*
X167668554Y-67275471D01*
X167678782Y-67253847D01*
X167691079Y-67233330D01*
X167705329Y-67214117D01*
X167721393Y-67196393D01*
X167739117Y-67180329D01*
X167758330Y-67166079D01*
X167778847Y-67153782D01*
X167800471Y-67143554D01*
X167822993Y-67135496D01*
X167846197Y-67129684D01*
X167869858Y-67126174D01*
X167893750Y-67125000D01*
X168806250Y-67125000D01*
X168830142Y-67126174D01*
X168830142Y-67126174D01*
G37*
D33*
X168350000Y-67612500D03*
D14*
G36*
X168830142Y-69001174D02*
G01*
X168853803Y-69004684D01*
X168877007Y-69010496D01*
X168899529Y-69018554D01*
X168921153Y-69028782D01*
X168941670Y-69041079D01*
X168960883Y-69055329D01*
X168978607Y-69071393D01*
X168994671Y-69089117D01*
X169008921Y-69108330D01*
X169021218Y-69128847D01*
X169031446Y-69150471D01*
X169039504Y-69172993D01*
X169045316Y-69196197D01*
X169048826Y-69219858D01*
X169050000Y-69243750D01*
X169050000Y-69731250D01*
X169048826Y-69755142D01*
X169045316Y-69778803D01*
X169039504Y-69802007D01*
X169031446Y-69824529D01*
X169021218Y-69846153D01*
X169008921Y-69866670D01*
X168994671Y-69885883D01*
X168978607Y-69903607D01*
X168960883Y-69919671D01*
X168941670Y-69933921D01*
X168921153Y-69946218D01*
X168899529Y-69956446D01*
X168877007Y-69964504D01*
X168853803Y-69970316D01*
X168830142Y-69973826D01*
X168806250Y-69975000D01*
X167893750Y-69975000D01*
X167869858Y-69973826D01*
X167846197Y-69970316D01*
X167822993Y-69964504D01*
X167800471Y-69956446D01*
X167778847Y-69946218D01*
X167758330Y-69933921D01*
X167739117Y-69919671D01*
X167721393Y-69903607D01*
X167705329Y-69885883D01*
X167691079Y-69866670D01*
X167678782Y-69846153D01*
X167668554Y-69824529D01*
X167660496Y-69802007D01*
X167654684Y-69778803D01*
X167651174Y-69755142D01*
X167650000Y-69731250D01*
X167650000Y-69243750D01*
X167651174Y-69219858D01*
X167654684Y-69196197D01*
X167660496Y-69172993D01*
X167668554Y-69150471D01*
X167678782Y-69128847D01*
X167691079Y-69108330D01*
X167705329Y-69089117D01*
X167721393Y-69071393D01*
X167739117Y-69055329D01*
X167758330Y-69041079D01*
X167778847Y-69028782D01*
X167800471Y-69018554D01*
X167822993Y-69010496D01*
X167846197Y-69004684D01*
X167869858Y-69001174D01*
X167893750Y-69000000D01*
X168806250Y-69000000D01*
X168830142Y-69001174D01*
X168830142Y-69001174D01*
G37*
D33*
X168350000Y-69487500D03*
D14*
G36*
X168830142Y-57426174D02*
G01*
X168853803Y-57429684D01*
X168877007Y-57435496D01*
X168899529Y-57443554D01*
X168921153Y-57453782D01*
X168941670Y-57466079D01*
X168960883Y-57480329D01*
X168978607Y-57496393D01*
X168994671Y-57514117D01*
X169008921Y-57533330D01*
X169021218Y-57553847D01*
X169031446Y-57575471D01*
X169039504Y-57597993D01*
X169045316Y-57621197D01*
X169048826Y-57644858D01*
X169050000Y-57668750D01*
X169050000Y-58156250D01*
X169048826Y-58180142D01*
X169045316Y-58203803D01*
X169039504Y-58227007D01*
X169031446Y-58249529D01*
X169021218Y-58271153D01*
X169008921Y-58291670D01*
X168994671Y-58310883D01*
X168978607Y-58328607D01*
X168960883Y-58344671D01*
X168941670Y-58358921D01*
X168921153Y-58371218D01*
X168899529Y-58381446D01*
X168877007Y-58389504D01*
X168853803Y-58395316D01*
X168830142Y-58398826D01*
X168806250Y-58400000D01*
X167893750Y-58400000D01*
X167869858Y-58398826D01*
X167846197Y-58395316D01*
X167822993Y-58389504D01*
X167800471Y-58381446D01*
X167778847Y-58371218D01*
X167758330Y-58358921D01*
X167739117Y-58344671D01*
X167721393Y-58328607D01*
X167705329Y-58310883D01*
X167691079Y-58291670D01*
X167678782Y-58271153D01*
X167668554Y-58249529D01*
X167660496Y-58227007D01*
X167654684Y-58203803D01*
X167651174Y-58180142D01*
X167650000Y-58156250D01*
X167650000Y-57668750D01*
X167651174Y-57644858D01*
X167654684Y-57621197D01*
X167660496Y-57597993D01*
X167668554Y-57575471D01*
X167678782Y-57553847D01*
X167691079Y-57533330D01*
X167705329Y-57514117D01*
X167721393Y-57496393D01*
X167739117Y-57480329D01*
X167758330Y-57466079D01*
X167778847Y-57453782D01*
X167800471Y-57443554D01*
X167822993Y-57435496D01*
X167846197Y-57429684D01*
X167869858Y-57426174D01*
X167893750Y-57425000D01*
X168806250Y-57425000D01*
X168830142Y-57426174D01*
X168830142Y-57426174D01*
G37*
D33*
X168350000Y-57912500D03*
D14*
G36*
X168830142Y-59301174D02*
G01*
X168853803Y-59304684D01*
X168877007Y-59310496D01*
X168899529Y-59318554D01*
X168921153Y-59328782D01*
X168941670Y-59341079D01*
X168960883Y-59355329D01*
X168978607Y-59371393D01*
X168994671Y-59389117D01*
X169008921Y-59408330D01*
X169021218Y-59428847D01*
X169031446Y-59450471D01*
X169039504Y-59472993D01*
X169045316Y-59496197D01*
X169048826Y-59519858D01*
X169050000Y-59543750D01*
X169050000Y-60031250D01*
X169048826Y-60055142D01*
X169045316Y-60078803D01*
X169039504Y-60102007D01*
X169031446Y-60124529D01*
X169021218Y-60146153D01*
X169008921Y-60166670D01*
X168994671Y-60185883D01*
X168978607Y-60203607D01*
X168960883Y-60219671D01*
X168941670Y-60233921D01*
X168921153Y-60246218D01*
X168899529Y-60256446D01*
X168877007Y-60264504D01*
X168853803Y-60270316D01*
X168830142Y-60273826D01*
X168806250Y-60275000D01*
X167893750Y-60275000D01*
X167869858Y-60273826D01*
X167846197Y-60270316D01*
X167822993Y-60264504D01*
X167800471Y-60256446D01*
X167778847Y-60246218D01*
X167758330Y-60233921D01*
X167739117Y-60219671D01*
X167721393Y-60203607D01*
X167705329Y-60185883D01*
X167691079Y-60166670D01*
X167678782Y-60146153D01*
X167668554Y-60124529D01*
X167660496Y-60102007D01*
X167654684Y-60078803D01*
X167651174Y-60055142D01*
X167650000Y-60031250D01*
X167650000Y-59543750D01*
X167651174Y-59519858D01*
X167654684Y-59496197D01*
X167660496Y-59472993D01*
X167668554Y-59450471D01*
X167678782Y-59428847D01*
X167691079Y-59408330D01*
X167705329Y-59389117D01*
X167721393Y-59371393D01*
X167739117Y-59355329D01*
X167758330Y-59341079D01*
X167778847Y-59328782D01*
X167800471Y-59318554D01*
X167822993Y-59310496D01*
X167846197Y-59304684D01*
X167869858Y-59301174D01*
X167893750Y-59300000D01*
X168806250Y-59300000D01*
X168830142Y-59301174D01*
X168830142Y-59301174D01*
G37*
D33*
X168350000Y-59787500D03*
D14*
G36*
X192180142Y-41101174D02*
G01*
X192203803Y-41104684D01*
X192227007Y-41110496D01*
X192249529Y-41118554D01*
X192271153Y-41128782D01*
X192291670Y-41141079D01*
X192310883Y-41155329D01*
X192328607Y-41171393D01*
X192344671Y-41189117D01*
X192358921Y-41208330D01*
X192371218Y-41228847D01*
X192381446Y-41250471D01*
X192389504Y-41272993D01*
X192395316Y-41296197D01*
X192398826Y-41319858D01*
X192400000Y-41343750D01*
X192400000Y-41831250D01*
X192398826Y-41855142D01*
X192395316Y-41878803D01*
X192389504Y-41902007D01*
X192381446Y-41924529D01*
X192371218Y-41946153D01*
X192358921Y-41966670D01*
X192344671Y-41985883D01*
X192328607Y-42003607D01*
X192310883Y-42019671D01*
X192291670Y-42033921D01*
X192271153Y-42046218D01*
X192249529Y-42056446D01*
X192227007Y-42064504D01*
X192203803Y-42070316D01*
X192180142Y-42073826D01*
X192156250Y-42075000D01*
X191243750Y-42075000D01*
X191219858Y-42073826D01*
X191196197Y-42070316D01*
X191172993Y-42064504D01*
X191150471Y-42056446D01*
X191128847Y-42046218D01*
X191108330Y-42033921D01*
X191089117Y-42019671D01*
X191071393Y-42003607D01*
X191055329Y-41985883D01*
X191041079Y-41966670D01*
X191028782Y-41946153D01*
X191018554Y-41924529D01*
X191010496Y-41902007D01*
X191004684Y-41878803D01*
X191001174Y-41855142D01*
X191000000Y-41831250D01*
X191000000Y-41343750D01*
X191001174Y-41319858D01*
X191004684Y-41296197D01*
X191010496Y-41272993D01*
X191018554Y-41250471D01*
X191028782Y-41228847D01*
X191041079Y-41208330D01*
X191055329Y-41189117D01*
X191071393Y-41171393D01*
X191089117Y-41155329D01*
X191108330Y-41141079D01*
X191128847Y-41128782D01*
X191150471Y-41118554D01*
X191172993Y-41110496D01*
X191196197Y-41104684D01*
X191219858Y-41101174D01*
X191243750Y-41100000D01*
X192156250Y-41100000D01*
X192180142Y-41101174D01*
X192180142Y-41101174D01*
G37*
D33*
X191700000Y-41587500D03*
D14*
G36*
X192180142Y-39226174D02*
G01*
X192203803Y-39229684D01*
X192227007Y-39235496D01*
X192249529Y-39243554D01*
X192271153Y-39253782D01*
X192291670Y-39266079D01*
X192310883Y-39280329D01*
X192328607Y-39296393D01*
X192344671Y-39314117D01*
X192358921Y-39333330D01*
X192371218Y-39353847D01*
X192381446Y-39375471D01*
X192389504Y-39397993D01*
X192395316Y-39421197D01*
X192398826Y-39444858D01*
X192400000Y-39468750D01*
X192400000Y-39956250D01*
X192398826Y-39980142D01*
X192395316Y-40003803D01*
X192389504Y-40027007D01*
X192381446Y-40049529D01*
X192371218Y-40071153D01*
X192358921Y-40091670D01*
X192344671Y-40110883D01*
X192328607Y-40128607D01*
X192310883Y-40144671D01*
X192291670Y-40158921D01*
X192271153Y-40171218D01*
X192249529Y-40181446D01*
X192227007Y-40189504D01*
X192203803Y-40195316D01*
X192180142Y-40198826D01*
X192156250Y-40200000D01*
X191243750Y-40200000D01*
X191219858Y-40198826D01*
X191196197Y-40195316D01*
X191172993Y-40189504D01*
X191150471Y-40181446D01*
X191128847Y-40171218D01*
X191108330Y-40158921D01*
X191089117Y-40144671D01*
X191071393Y-40128607D01*
X191055329Y-40110883D01*
X191041079Y-40091670D01*
X191028782Y-40071153D01*
X191018554Y-40049529D01*
X191010496Y-40027007D01*
X191004684Y-40003803D01*
X191001174Y-39980142D01*
X191000000Y-39956250D01*
X191000000Y-39468750D01*
X191001174Y-39444858D01*
X191004684Y-39421197D01*
X191010496Y-39397993D01*
X191018554Y-39375471D01*
X191028782Y-39353847D01*
X191041079Y-39333330D01*
X191055329Y-39314117D01*
X191071393Y-39296393D01*
X191089117Y-39280329D01*
X191108330Y-39266079D01*
X191128847Y-39253782D01*
X191150471Y-39243554D01*
X191172993Y-39235496D01*
X191196197Y-39229684D01*
X191219858Y-39226174D01*
X191243750Y-39225000D01*
X192156250Y-39225000D01*
X192180142Y-39226174D01*
X192180142Y-39226174D01*
G37*
D33*
X191700000Y-39712500D03*
D14*
G36*
X192180142Y-31351174D02*
G01*
X192203803Y-31354684D01*
X192227007Y-31360496D01*
X192249529Y-31368554D01*
X192271153Y-31378782D01*
X192291670Y-31391079D01*
X192310883Y-31405329D01*
X192328607Y-31421393D01*
X192344671Y-31439117D01*
X192358921Y-31458330D01*
X192371218Y-31478847D01*
X192381446Y-31500471D01*
X192389504Y-31522993D01*
X192395316Y-31546197D01*
X192398826Y-31569858D01*
X192400000Y-31593750D01*
X192400000Y-32081250D01*
X192398826Y-32105142D01*
X192395316Y-32128803D01*
X192389504Y-32152007D01*
X192381446Y-32174529D01*
X192371218Y-32196153D01*
X192358921Y-32216670D01*
X192344671Y-32235883D01*
X192328607Y-32253607D01*
X192310883Y-32269671D01*
X192291670Y-32283921D01*
X192271153Y-32296218D01*
X192249529Y-32306446D01*
X192227007Y-32314504D01*
X192203803Y-32320316D01*
X192180142Y-32323826D01*
X192156250Y-32325000D01*
X191243750Y-32325000D01*
X191219858Y-32323826D01*
X191196197Y-32320316D01*
X191172993Y-32314504D01*
X191150471Y-32306446D01*
X191128847Y-32296218D01*
X191108330Y-32283921D01*
X191089117Y-32269671D01*
X191071393Y-32253607D01*
X191055329Y-32235883D01*
X191041079Y-32216670D01*
X191028782Y-32196153D01*
X191018554Y-32174529D01*
X191010496Y-32152007D01*
X191004684Y-32128803D01*
X191001174Y-32105142D01*
X191000000Y-32081250D01*
X191000000Y-31593750D01*
X191001174Y-31569858D01*
X191004684Y-31546197D01*
X191010496Y-31522993D01*
X191018554Y-31500471D01*
X191028782Y-31478847D01*
X191041079Y-31458330D01*
X191055329Y-31439117D01*
X191071393Y-31421393D01*
X191089117Y-31405329D01*
X191108330Y-31391079D01*
X191128847Y-31378782D01*
X191150471Y-31368554D01*
X191172993Y-31360496D01*
X191196197Y-31354684D01*
X191219858Y-31351174D01*
X191243750Y-31350000D01*
X192156250Y-31350000D01*
X192180142Y-31351174D01*
X192180142Y-31351174D01*
G37*
D33*
X191700000Y-31837500D03*
D14*
G36*
X192180142Y-29476174D02*
G01*
X192203803Y-29479684D01*
X192227007Y-29485496D01*
X192249529Y-29493554D01*
X192271153Y-29503782D01*
X192291670Y-29516079D01*
X192310883Y-29530329D01*
X192328607Y-29546393D01*
X192344671Y-29564117D01*
X192358921Y-29583330D01*
X192371218Y-29603847D01*
X192381446Y-29625471D01*
X192389504Y-29647993D01*
X192395316Y-29671197D01*
X192398826Y-29694858D01*
X192400000Y-29718750D01*
X192400000Y-30206250D01*
X192398826Y-30230142D01*
X192395316Y-30253803D01*
X192389504Y-30277007D01*
X192381446Y-30299529D01*
X192371218Y-30321153D01*
X192358921Y-30341670D01*
X192344671Y-30360883D01*
X192328607Y-30378607D01*
X192310883Y-30394671D01*
X192291670Y-30408921D01*
X192271153Y-30421218D01*
X192249529Y-30431446D01*
X192227007Y-30439504D01*
X192203803Y-30445316D01*
X192180142Y-30448826D01*
X192156250Y-30450000D01*
X191243750Y-30450000D01*
X191219858Y-30448826D01*
X191196197Y-30445316D01*
X191172993Y-30439504D01*
X191150471Y-30431446D01*
X191128847Y-30421218D01*
X191108330Y-30408921D01*
X191089117Y-30394671D01*
X191071393Y-30378607D01*
X191055329Y-30360883D01*
X191041079Y-30341670D01*
X191028782Y-30321153D01*
X191018554Y-30299529D01*
X191010496Y-30277007D01*
X191004684Y-30253803D01*
X191001174Y-30230142D01*
X191000000Y-30206250D01*
X191000000Y-29718750D01*
X191001174Y-29694858D01*
X191004684Y-29671197D01*
X191010496Y-29647993D01*
X191018554Y-29625471D01*
X191028782Y-29603847D01*
X191041079Y-29583330D01*
X191055329Y-29564117D01*
X191071393Y-29546393D01*
X191089117Y-29530329D01*
X191108330Y-29516079D01*
X191128847Y-29503782D01*
X191150471Y-29493554D01*
X191172993Y-29485496D01*
X191196197Y-29479684D01*
X191219858Y-29476174D01*
X191243750Y-29475000D01*
X192156250Y-29475000D01*
X192180142Y-29476174D01*
X192180142Y-29476174D01*
G37*
D33*
X191700000Y-29962500D03*
D14*
G36*
X215680142Y-54851174D02*
G01*
X215703803Y-54854684D01*
X215727007Y-54860496D01*
X215749529Y-54868554D01*
X215771153Y-54878782D01*
X215791670Y-54891079D01*
X215810883Y-54905329D01*
X215828607Y-54921393D01*
X215844671Y-54939117D01*
X215858921Y-54958330D01*
X215871218Y-54978847D01*
X215881446Y-55000471D01*
X215889504Y-55022993D01*
X215895316Y-55046197D01*
X215898826Y-55069858D01*
X215900000Y-55093750D01*
X215900000Y-55581250D01*
X215898826Y-55605142D01*
X215895316Y-55628803D01*
X215889504Y-55652007D01*
X215881446Y-55674529D01*
X215871218Y-55696153D01*
X215858921Y-55716670D01*
X215844671Y-55735883D01*
X215828607Y-55753607D01*
X215810883Y-55769671D01*
X215791670Y-55783921D01*
X215771153Y-55796218D01*
X215749529Y-55806446D01*
X215727007Y-55814504D01*
X215703803Y-55820316D01*
X215680142Y-55823826D01*
X215656250Y-55825000D01*
X214743750Y-55825000D01*
X214719858Y-55823826D01*
X214696197Y-55820316D01*
X214672993Y-55814504D01*
X214650471Y-55806446D01*
X214628847Y-55796218D01*
X214608330Y-55783921D01*
X214589117Y-55769671D01*
X214571393Y-55753607D01*
X214555329Y-55735883D01*
X214541079Y-55716670D01*
X214528782Y-55696153D01*
X214518554Y-55674529D01*
X214510496Y-55652007D01*
X214504684Y-55628803D01*
X214501174Y-55605142D01*
X214500000Y-55581250D01*
X214500000Y-55093750D01*
X214501174Y-55069858D01*
X214504684Y-55046197D01*
X214510496Y-55022993D01*
X214518554Y-55000471D01*
X214528782Y-54978847D01*
X214541079Y-54958330D01*
X214555329Y-54939117D01*
X214571393Y-54921393D01*
X214589117Y-54905329D01*
X214608330Y-54891079D01*
X214628847Y-54878782D01*
X214650471Y-54868554D01*
X214672993Y-54860496D01*
X214696197Y-54854684D01*
X214719858Y-54851174D01*
X214743750Y-54850000D01*
X215656250Y-54850000D01*
X215680142Y-54851174D01*
X215680142Y-54851174D01*
G37*
D33*
X215200000Y-55337500D03*
D14*
G36*
X215680142Y-52976174D02*
G01*
X215703803Y-52979684D01*
X215727007Y-52985496D01*
X215749529Y-52993554D01*
X215771153Y-53003782D01*
X215791670Y-53016079D01*
X215810883Y-53030329D01*
X215828607Y-53046393D01*
X215844671Y-53064117D01*
X215858921Y-53083330D01*
X215871218Y-53103847D01*
X215881446Y-53125471D01*
X215889504Y-53147993D01*
X215895316Y-53171197D01*
X215898826Y-53194858D01*
X215900000Y-53218750D01*
X215900000Y-53706250D01*
X215898826Y-53730142D01*
X215895316Y-53753803D01*
X215889504Y-53777007D01*
X215881446Y-53799529D01*
X215871218Y-53821153D01*
X215858921Y-53841670D01*
X215844671Y-53860883D01*
X215828607Y-53878607D01*
X215810883Y-53894671D01*
X215791670Y-53908921D01*
X215771153Y-53921218D01*
X215749529Y-53931446D01*
X215727007Y-53939504D01*
X215703803Y-53945316D01*
X215680142Y-53948826D01*
X215656250Y-53950000D01*
X214743750Y-53950000D01*
X214719858Y-53948826D01*
X214696197Y-53945316D01*
X214672993Y-53939504D01*
X214650471Y-53931446D01*
X214628847Y-53921218D01*
X214608330Y-53908921D01*
X214589117Y-53894671D01*
X214571393Y-53878607D01*
X214555329Y-53860883D01*
X214541079Y-53841670D01*
X214528782Y-53821153D01*
X214518554Y-53799529D01*
X214510496Y-53777007D01*
X214504684Y-53753803D01*
X214501174Y-53730142D01*
X214500000Y-53706250D01*
X214500000Y-53218750D01*
X214501174Y-53194858D01*
X214504684Y-53171197D01*
X214510496Y-53147993D01*
X214518554Y-53125471D01*
X214528782Y-53103847D01*
X214541079Y-53083330D01*
X214555329Y-53064117D01*
X214571393Y-53046393D01*
X214589117Y-53030329D01*
X214608330Y-53016079D01*
X214628847Y-53003782D01*
X214650471Y-52993554D01*
X214672993Y-52985496D01*
X214696197Y-52979684D01*
X214719858Y-52976174D01*
X214743750Y-52975000D01*
X215656250Y-52975000D01*
X215680142Y-52976174D01*
X215680142Y-52976174D01*
G37*
D33*
X215200000Y-53462500D03*
D14*
G36*
X168830142Y-52876174D02*
G01*
X168853803Y-52879684D01*
X168877007Y-52885496D01*
X168899529Y-52893554D01*
X168921153Y-52903782D01*
X168941670Y-52916079D01*
X168960883Y-52930329D01*
X168978607Y-52946393D01*
X168994671Y-52964117D01*
X169008921Y-52983330D01*
X169021218Y-53003847D01*
X169031446Y-53025471D01*
X169039504Y-53047993D01*
X169045316Y-53071197D01*
X169048826Y-53094858D01*
X169050000Y-53118750D01*
X169050000Y-53606250D01*
X169048826Y-53630142D01*
X169045316Y-53653803D01*
X169039504Y-53677007D01*
X169031446Y-53699529D01*
X169021218Y-53721153D01*
X169008921Y-53741670D01*
X168994671Y-53760883D01*
X168978607Y-53778607D01*
X168960883Y-53794671D01*
X168941670Y-53808921D01*
X168921153Y-53821218D01*
X168899529Y-53831446D01*
X168877007Y-53839504D01*
X168853803Y-53845316D01*
X168830142Y-53848826D01*
X168806250Y-53850000D01*
X167893750Y-53850000D01*
X167869858Y-53848826D01*
X167846197Y-53845316D01*
X167822993Y-53839504D01*
X167800471Y-53831446D01*
X167778847Y-53821218D01*
X167758330Y-53808921D01*
X167739117Y-53794671D01*
X167721393Y-53778607D01*
X167705329Y-53760883D01*
X167691079Y-53741670D01*
X167678782Y-53721153D01*
X167668554Y-53699529D01*
X167660496Y-53677007D01*
X167654684Y-53653803D01*
X167651174Y-53630142D01*
X167650000Y-53606250D01*
X167650000Y-53118750D01*
X167651174Y-53094858D01*
X167654684Y-53071197D01*
X167660496Y-53047993D01*
X167668554Y-53025471D01*
X167678782Y-53003847D01*
X167691079Y-52983330D01*
X167705329Y-52964117D01*
X167721393Y-52946393D01*
X167739117Y-52930329D01*
X167758330Y-52916079D01*
X167778847Y-52903782D01*
X167800471Y-52893554D01*
X167822993Y-52885496D01*
X167846197Y-52879684D01*
X167869858Y-52876174D01*
X167893750Y-52875000D01*
X168806250Y-52875000D01*
X168830142Y-52876174D01*
X168830142Y-52876174D01*
G37*
D33*
X168350000Y-53362500D03*
D14*
G36*
X168830142Y-54751174D02*
G01*
X168853803Y-54754684D01*
X168877007Y-54760496D01*
X168899529Y-54768554D01*
X168921153Y-54778782D01*
X168941670Y-54791079D01*
X168960883Y-54805329D01*
X168978607Y-54821393D01*
X168994671Y-54839117D01*
X169008921Y-54858330D01*
X169021218Y-54878847D01*
X169031446Y-54900471D01*
X169039504Y-54922993D01*
X169045316Y-54946197D01*
X169048826Y-54969858D01*
X169050000Y-54993750D01*
X169050000Y-55481250D01*
X169048826Y-55505142D01*
X169045316Y-55528803D01*
X169039504Y-55552007D01*
X169031446Y-55574529D01*
X169021218Y-55596153D01*
X169008921Y-55616670D01*
X168994671Y-55635883D01*
X168978607Y-55653607D01*
X168960883Y-55669671D01*
X168941670Y-55683921D01*
X168921153Y-55696218D01*
X168899529Y-55706446D01*
X168877007Y-55714504D01*
X168853803Y-55720316D01*
X168830142Y-55723826D01*
X168806250Y-55725000D01*
X167893750Y-55725000D01*
X167869858Y-55723826D01*
X167846197Y-55720316D01*
X167822993Y-55714504D01*
X167800471Y-55706446D01*
X167778847Y-55696218D01*
X167758330Y-55683921D01*
X167739117Y-55669671D01*
X167721393Y-55653607D01*
X167705329Y-55635883D01*
X167691079Y-55616670D01*
X167678782Y-55596153D01*
X167668554Y-55574529D01*
X167660496Y-55552007D01*
X167654684Y-55528803D01*
X167651174Y-55505142D01*
X167650000Y-55481250D01*
X167650000Y-54993750D01*
X167651174Y-54969858D01*
X167654684Y-54946197D01*
X167660496Y-54922993D01*
X167668554Y-54900471D01*
X167678782Y-54878847D01*
X167691079Y-54858330D01*
X167705329Y-54839117D01*
X167721393Y-54821393D01*
X167739117Y-54805329D01*
X167758330Y-54791079D01*
X167778847Y-54778782D01*
X167800471Y-54768554D01*
X167822993Y-54760496D01*
X167846197Y-54754684D01*
X167869858Y-54751174D01*
X167893750Y-54750000D01*
X168806250Y-54750000D01*
X168830142Y-54751174D01*
X168830142Y-54751174D01*
G37*
D33*
X168350000Y-55237500D03*
D14*
G36*
X192180142Y-26751174D02*
G01*
X192203803Y-26754684D01*
X192227007Y-26760496D01*
X192249529Y-26768554D01*
X192271153Y-26778782D01*
X192291670Y-26791079D01*
X192310883Y-26805329D01*
X192328607Y-26821393D01*
X192344671Y-26839117D01*
X192358921Y-26858330D01*
X192371218Y-26878847D01*
X192381446Y-26900471D01*
X192389504Y-26922993D01*
X192395316Y-26946197D01*
X192398826Y-26969858D01*
X192400000Y-26993750D01*
X192400000Y-27481250D01*
X192398826Y-27505142D01*
X192395316Y-27528803D01*
X192389504Y-27552007D01*
X192381446Y-27574529D01*
X192371218Y-27596153D01*
X192358921Y-27616670D01*
X192344671Y-27635883D01*
X192328607Y-27653607D01*
X192310883Y-27669671D01*
X192291670Y-27683921D01*
X192271153Y-27696218D01*
X192249529Y-27706446D01*
X192227007Y-27714504D01*
X192203803Y-27720316D01*
X192180142Y-27723826D01*
X192156250Y-27725000D01*
X191243750Y-27725000D01*
X191219858Y-27723826D01*
X191196197Y-27720316D01*
X191172993Y-27714504D01*
X191150471Y-27706446D01*
X191128847Y-27696218D01*
X191108330Y-27683921D01*
X191089117Y-27669671D01*
X191071393Y-27653607D01*
X191055329Y-27635883D01*
X191041079Y-27616670D01*
X191028782Y-27596153D01*
X191018554Y-27574529D01*
X191010496Y-27552007D01*
X191004684Y-27528803D01*
X191001174Y-27505142D01*
X191000000Y-27481250D01*
X191000000Y-26993750D01*
X191001174Y-26969858D01*
X191004684Y-26946197D01*
X191010496Y-26922993D01*
X191018554Y-26900471D01*
X191028782Y-26878847D01*
X191041079Y-26858330D01*
X191055329Y-26839117D01*
X191071393Y-26821393D01*
X191089117Y-26805329D01*
X191108330Y-26791079D01*
X191128847Y-26778782D01*
X191150471Y-26768554D01*
X191172993Y-26760496D01*
X191196197Y-26754684D01*
X191219858Y-26751174D01*
X191243750Y-26750000D01*
X192156250Y-26750000D01*
X192180142Y-26751174D01*
X192180142Y-26751174D01*
G37*
D33*
X191700000Y-27237500D03*
D14*
G36*
X192180142Y-24876174D02*
G01*
X192203803Y-24879684D01*
X192227007Y-24885496D01*
X192249529Y-24893554D01*
X192271153Y-24903782D01*
X192291670Y-24916079D01*
X192310883Y-24930329D01*
X192328607Y-24946393D01*
X192344671Y-24964117D01*
X192358921Y-24983330D01*
X192371218Y-25003847D01*
X192381446Y-25025471D01*
X192389504Y-25047993D01*
X192395316Y-25071197D01*
X192398826Y-25094858D01*
X192400000Y-25118750D01*
X192400000Y-25606250D01*
X192398826Y-25630142D01*
X192395316Y-25653803D01*
X192389504Y-25677007D01*
X192381446Y-25699529D01*
X192371218Y-25721153D01*
X192358921Y-25741670D01*
X192344671Y-25760883D01*
X192328607Y-25778607D01*
X192310883Y-25794671D01*
X192291670Y-25808921D01*
X192271153Y-25821218D01*
X192249529Y-25831446D01*
X192227007Y-25839504D01*
X192203803Y-25845316D01*
X192180142Y-25848826D01*
X192156250Y-25850000D01*
X191243750Y-25850000D01*
X191219858Y-25848826D01*
X191196197Y-25845316D01*
X191172993Y-25839504D01*
X191150471Y-25831446D01*
X191128847Y-25821218D01*
X191108330Y-25808921D01*
X191089117Y-25794671D01*
X191071393Y-25778607D01*
X191055329Y-25760883D01*
X191041079Y-25741670D01*
X191028782Y-25721153D01*
X191018554Y-25699529D01*
X191010496Y-25677007D01*
X191004684Y-25653803D01*
X191001174Y-25630142D01*
X191000000Y-25606250D01*
X191000000Y-25118750D01*
X191001174Y-25094858D01*
X191004684Y-25071197D01*
X191010496Y-25047993D01*
X191018554Y-25025471D01*
X191028782Y-25003847D01*
X191041079Y-24983330D01*
X191055329Y-24964117D01*
X191071393Y-24946393D01*
X191089117Y-24930329D01*
X191108330Y-24916079D01*
X191128847Y-24903782D01*
X191150471Y-24893554D01*
X191172993Y-24885496D01*
X191196197Y-24879684D01*
X191219858Y-24876174D01*
X191243750Y-24875000D01*
X192156250Y-24875000D01*
X192180142Y-24876174D01*
X192180142Y-24876174D01*
G37*
D33*
X191700000Y-25362500D03*
D14*
G36*
X215630142Y-41201174D02*
G01*
X215653803Y-41204684D01*
X215677007Y-41210496D01*
X215699529Y-41218554D01*
X215721153Y-41228782D01*
X215741670Y-41241079D01*
X215760883Y-41255329D01*
X215778607Y-41271393D01*
X215794671Y-41289117D01*
X215808921Y-41308330D01*
X215821218Y-41328847D01*
X215831446Y-41350471D01*
X215839504Y-41372993D01*
X215845316Y-41396197D01*
X215848826Y-41419858D01*
X215850000Y-41443750D01*
X215850000Y-41931250D01*
X215848826Y-41955142D01*
X215845316Y-41978803D01*
X215839504Y-42002007D01*
X215831446Y-42024529D01*
X215821218Y-42046153D01*
X215808921Y-42066670D01*
X215794671Y-42085883D01*
X215778607Y-42103607D01*
X215760883Y-42119671D01*
X215741670Y-42133921D01*
X215721153Y-42146218D01*
X215699529Y-42156446D01*
X215677007Y-42164504D01*
X215653803Y-42170316D01*
X215630142Y-42173826D01*
X215606250Y-42175000D01*
X214693750Y-42175000D01*
X214669858Y-42173826D01*
X214646197Y-42170316D01*
X214622993Y-42164504D01*
X214600471Y-42156446D01*
X214578847Y-42146218D01*
X214558330Y-42133921D01*
X214539117Y-42119671D01*
X214521393Y-42103607D01*
X214505329Y-42085883D01*
X214491079Y-42066670D01*
X214478782Y-42046153D01*
X214468554Y-42024529D01*
X214460496Y-42002007D01*
X214454684Y-41978803D01*
X214451174Y-41955142D01*
X214450000Y-41931250D01*
X214450000Y-41443750D01*
X214451174Y-41419858D01*
X214454684Y-41396197D01*
X214460496Y-41372993D01*
X214468554Y-41350471D01*
X214478782Y-41328847D01*
X214491079Y-41308330D01*
X214505329Y-41289117D01*
X214521393Y-41271393D01*
X214539117Y-41255329D01*
X214558330Y-41241079D01*
X214578847Y-41228782D01*
X214600471Y-41218554D01*
X214622993Y-41210496D01*
X214646197Y-41204684D01*
X214669858Y-41201174D01*
X214693750Y-41200000D01*
X215606250Y-41200000D01*
X215630142Y-41201174D01*
X215630142Y-41201174D01*
G37*
D33*
X215150000Y-41687500D03*
D14*
G36*
X215630142Y-39326174D02*
G01*
X215653803Y-39329684D01*
X215677007Y-39335496D01*
X215699529Y-39343554D01*
X215721153Y-39353782D01*
X215741670Y-39366079D01*
X215760883Y-39380329D01*
X215778607Y-39396393D01*
X215794671Y-39414117D01*
X215808921Y-39433330D01*
X215821218Y-39453847D01*
X215831446Y-39475471D01*
X215839504Y-39497993D01*
X215845316Y-39521197D01*
X215848826Y-39544858D01*
X215850000Y-39568750D01*
X215850000Y-40056250D01*
X215848826Y-40080142D01*
X215845316Y-40103803D01*
X215839504Y-40127007D01*
X215831446Y-40149529D01*
X215821218Y-40171153D01*
X215808921Y-40191670D01*
X215794671Y-40210883D01*
X215778607Y-40228607D01*
X215760883Y-40244671D01*
X215741670Y-40258921D01*
X215721153Y-40271218D01*
X215699529Y-40281446D01*
X215677007Y-40289504D01*
X215653803Y-40295316D01*
X215630142Y-40298826D01*
X215606250Y-40300000D01*
X214693750Y-40300000D01*
X214669858Y-40298826D01*
X214646197Y-40295316D01*
X214622993Y-40289504D01*
X214600471Y-40281446D01*
X214578847Y-40271218D01*
X214558330Y-40258921D01*
X214539117Y-40244671D01*
X214521393Y-40228607D01*
X214505329Y-40210883D01*
X214491079Y-40191670D01*
X214478782Y-40171153D01*
X214468554Y-40149529D01*
X214460496Y-40127007D01*
X214454684Y-40103803D01*
X214451174Y-40080142D01*
X214450000Y-40056250D01*
X214450000Y-39568750D01*
X214451174Y-39544858D01*
X214454684Y-39521197D01*
X214460496Y-39497993D01*
X214468554Y-39475471D01*
X214478782Y-39453847D01*
X214491079Y-39433330D01*
X214505329Y-39414117D01*
X214521393Y-39396393D01*
X214539117Y-39380329D01*
X214558330Y-39366079D01*
X214578847Y-39353782D01*
X214600471Y-39343554D01*
X214622993Y-39335496D01*
X214646197Y-39329684D01*
X214669858Y-39326174D01*
X214693750Y-39325000D01*
X215606250Y-39325000D01*
X215630142Y-39326174D01*
X215630142Y-39326174D01*
G37*
D33*
X215150000Y-39812500D03*
D14*
G36*
X215580142Y-31451174D02*
G01*
X215603803Y-31454684D01*
X215627007Y-31460496D01*
X215649529Y-31468554D01*
X215671153Y-31478782D01*
X215691670Y-31491079D01*
X215710883Y-31505329D01*
X215728607Y-31521393D01*
X215744671Y-31539117D01*
X215758921Y-31558330D01*
X215771218Y-31578847D01*
X215781446Y-31600471D01*
X215789504Y-31622993D01*
X215795316Y-31646197D01*
X215798826Y-31669858D01*
X215800000Y-31693750D01*
X215800000Y-32181250D01*
X215798826Y-32205142D01*
X215795316Y-32228803D01*
X215789504Y-32252007D01*
X215781446Y-32274529D01*
X215771218Y-32296153D01*
X215758921Y-32316670D01*
X215744671Y-32335883D01*
X215728607Y-32353607D01*
X215710883Y-32369671D01*
X215691670Y-32383921D01*
X215671153Y-32396218D01*
X215649529Y-32406446D01*
X215627007Y-32414504D01*
X215603803Y-32420316D01*
X215580142Y-32423826D01*
X215556250Y-32425000D01*
X214643750Y-32425000D01*
X214619858Y-32423826D01*
X214596197Y-32420316D01*
X214572993Y-32414504D01*
X214550471Y-32406446D01*
X214528847Y-32396218D01*
X214508330Y-32383921D01*
X214489117Y-32369671D01*
X214471393Y-32353607D01*
X214455329Y-32335883D01*
X214441079Y-32316670D01*
X214428782Y-32296153D01*
X214418554Y-32274529D01*
X214410496Y-32252007D01*
X214404684Y-32228803D01*
X214401174Y-32205142D01*
X214400000Y-32181250D01*
X214400000Y-31693750D01*
X214401174Y-31669858D01*
X214404684Y-31646197D01*
X214410496Y-31622993D01*
X214418554Y-31600471D01*
X214428782Y-31578847D01*
X214441079Y-31558330D01*
X214455329Y-31539117D01*
X214471393Y-31521393D01*
X214489117Y-31505329D01*
X214508330Y-31491079D01*
X214528847Y-31478782D01*
X214550471Y-31468554D01*
X214572993Y-31460496D01*
X214596197Y-31454684D01*
X214619858Y-31451174D01*
X214643750Y-31450000D01*
X215556250Y-31450000D01*
X215580142Y-31451174D01*
X215580142Y-31451174D01*
G37*
D33*
X215100000Y-31937500D03*
D14*
G36*
X215580142Y-29576174D02*
G01*
X215603803Y-29579684D01*
X215627007Y-29585496D01*
X215649529Y-29593554D01*
X215671153Y-29603782D01*
X215691670Y-29616079D01*
X215710883Y-29630329D01*
X215728607Y-29646393D01*
X215744671Y-29664117D01*
X215758921Y-29683330D01*
X215771218Y-29703847D01*
X215781446Y-29725471D01*
X215789504Y-29747993D01*
X215795316Y-29771197D01*
X215798826Y-29794858D01*
X215800000Y-29818750D01*
X215800000Y-30306250D01*
X215798826Y-30330142D01*
X215795316Y-30353803D01*
X215789504Y-30377007D01*
X215781446Y-30399529D01*
X215771218Y-30421153D01*
X215758921Y-30441670D01*
X215744671Y-30460883D01*
X215728607Y-30478607D01*
X215710883Y-30494671D01*
X215691670Y-30508921D01*
X215671153Y-30521218D01*
X215649529Y-30531446D01*
X215627007Y-30539504D01*
X215603803Y-30545316D01*
X215580142Y-30548826D01*
X215556250Y-30550000D01*
X214643750Y-30550000D01*
X214619858Y-30548826D01*
X214596197Y-30545316D01*
X214572993Y-30539504D01*
X214550471Y-30531446D01*
X214528847Y-30521218D01*
X214508330Y-30508921D01*
X214489117Y-30494671D01*
X214471393Y-30478607D01*
X214455329Y-30460883D01*
X214441079Y-30441670D01*
X214428782Y-30421153D01*
X214418554Y-30399529D01*
X214410496Y-30377007D01*
X214404684Y-30353803D01*
X214401174Y-30330142D01*
X214400000Y-30306250D01*
X214400000Y-29818750D01*
X214401174Y-29794858D01*
X214404684Y-29771197D01*
X214410496Y-29747993D01*
X214418554Y-29725471D01*
X214428782Y-29703847D01*
X214441079Y-29683330D01*
X214455329Y-29664117D01*
X214471393Y-29646393D01*
X214489117Y-29630329D01*
X214508330Y-29616079D01*
X214528847Y-29603782D01*
X214550471Y-29593554D01*
X214572993Y-29585496D01*
X214596197Y-29579684D01*
X214619858Y-29576174D01*
X214643750Y-29575000D01*
X215556250Y-29575000D01*
X215580142Y-29576174D01*
X215580142Y-29576174D01*
G37*
D33*
X215100000Y-30062500D03*
D14*
G36*
X168780142Y-41001174D02*
G01*
X168803803Y-41004684D01*
X168827007Y-41010496D01*
X168849529Y-41018554D01*
X168871153Y-41028782D01*
X168891670Y-41041079D01*
X168910883Y-41055329D01*
X168928607Y-41071393D01*
X168944671Y-41089117D01*
X168958921Y-41108330D01*
X168971218Y-41128847D01*
X168981446Y-41150471D01*
X168989504Y-41172993D01*
X168995316Y-41196197D01*
X168998826Y-41219858D01*
X169000000Y-41243750D01*
X169000000Y-41731250D01*
X168998826Y-41755142D01*
X168995316Y-41778803D01*
X168989504Y-41802007D01*
X168981446Y-41824529D01*
X168971218Y-41846153D01*
X168958921Y-41866670D01*
X168944671Y-41885883D01*
X168928607Y-41903607D01*
X168910883Y-41919671D01*
X168891670Y-41933921D01*
X168871153Y-41946218D01*
X168849529Y-41956446D01*
X168827007Y-41964504D01*
X168803803Y-41970316D01*
X168780142Y-41973826D01*
X168756250Y-41975000D01*
X167843750Y-41975000D01*
X167819858Y-41973826D01*
X167796197Y-41970316D01*
X167772993Y-41964504D01*
X167750471Y-41956446D01*
X167728847Y-41946218D01*
X167708330Y-41933921D01*
X167689117Y-41919671D01*
X167671393Y-41903607D01*
X167655329Y-41885883D01*
X167641079Y-41866670D01*
X167628782Y-41846153D01*
X167618554Y-41824529D01*
X167610496Y-41802007D01*
X167604684Y-41778803D01*
X167601174Y-41755142D01*
X167600000Y-41731250D01*
X167600000Y-41243750D01*
X167601174Y-41219858D01*
X167604684Y-41196197D01*
X167610496Y-41172993D01*
X167618554Y-41150471D01*
X167628782Y-41128847D01*
X167641079Y-41108330D01*
X167655329Y-41089117D01*
X167671393Y-41071393D01*
X167689117Y-41055329D01*
X167708330Y-41041079D01*
X167728847Y-41028782D01*
X167750471Y-41018554D01*
X167772993Y-41010496D01*
X167796197Y-41004684D01*
X167819858Y-41001174D01*
X167843750Y-41000000D01*
X168756250Y-41000000D01*
X168780142Y-41001174D01*
X168780142Y-41001174D01*
G37*
D33*
X168300000Y-41487500D03*
D14*
G36*
X168780142Y-39126174D02*
G01*
X168803803Y-39129684D01*
X168827007Y-39135496D01*
X168849529Y-39143554D01*
X168871153Y-39153782D01*
X168891670Y-39166079D01*
X168910883Y-39180329D01*
X168928607Y-39196393D01*
X168944671Y-39214117D01*
X168958921Y-39233330D01*
X168971218Y-39253847D01*
X168981446Y-39275471D01*
X168989504Y-39297993D01*
X168995316Y-39321197D01*
X168998826Y-39344858D01*
X169000000Y-39368750D01*
X169000000Y-39856250D01*
X168998826Y-39880142D01*
X168995316Y-39903803D01*
X168989504Y-39927007D01*
X168981446Y-39949529D01*
X168971218Y-39971153D01*
X168958921Y-39991670D01*
X168944671Y-40010883D01*
X168928607Y-40028607D01*
X168910883Y-40044671D01*
X168891670Y-40058921D01*
X168871153Y-40071218D01*
X168849529Y-40081446D01*
X168827007Y-40089504D01*
X168803803Y-40095316D01*
X168780142Y-40098826D01*
X168756250Y-40100000D01*
X167843750Y-40100000D01*
X167819858Y-40098826D01*
X167796197Y-40095316D01*
X167772993Y-40089504D01*
X167750471Y-40081446D01*
X167728847Y-40071218D01*
X167708330Y-40058921D01*
X167689117Y-40044671D01*
X167671393Y-40028607D01*
X167655329Y-40010883D01*
X167641079Y-39991670D01*
X167628782Y-39971153D01*
X167618554Y-39949529D01*
X167610496Y-39927007D01*
X167604684Y-39903803D01*
X167601174Y-39880142D01*
X167600000Y-39856250D01*
X167600000Y-39368750D01*
X167601174Y-39344858D01*
X167604684Y-39321197D01*
X167610496Y-39297993D01*
X167618554Y-39275471D01*
X167628782Y-39253847D01*
X167641079Y-39233330D01*
X167655329Y-39214117D01*
X167671393Y-39196393D01*
X167689117Y-39180329D01*
X167708330Y-39166079D01*
X167728847Y-39153782D01*
X167750471Y-39143554D01*
X167772993Y-39135496D01*
X167796197Y-39129684D01*
X167819858Y-39126174D01*
X167843750Y-39125000D01*
X168756250Y-39125000D01*
X168780142Y-39126174D01*
X168780142Y-39126174D01*
G37*
D33*
X168300000Y-39612500D03*
D14*
G36*
X168780142Y-31301174D02*
G01*
X168803803Y-31304684D01*
X168827007Y-31310496D01*
X168849529Y-31318554D01*
X168871153Y-31328782D01*
X168891670Y-31341079D01*
X168910883Y-31355329D01*
X168928607Y-31371393D01*
X168944671Y-31389117D01*
X168958921Y-31408330D01*
X168971218Y-31428847D01*
X168981446Y-31450471D01*
X168989504Y-31472993D01*
X168995316Y-31496197D01*
X168998826Y-31519858D01*
X169000000Y-31543750D01*
X169000000Y-32031250D01*
X168998826Y-32055142D01*
X168995316Y-32078803D01*
X168989504Y-32102007D01*
X168981446Y-32124529D01*
X168971218Y-32146153D01*
X168958921Y-32166670D01*
X168944671Y-32185883D01*
X168928607Y-32203607D01*
X168910883Y-32219671D01*
X168891670Y-32233921D01*
X168871153Y-32246218D01*
X168849529Y-32256446D01*
X168827007Y-32264504D01*
X168803803Y-32270316D01*
X168780142Y-32273826D01*
X168756250Y-32275000D01*
X167843750Y-32275000D01*
X167819858Y-32273826D01*
X167796197Y-32270316D01*
X167772993Y-32264504D01*
X167750471Y-32256446D01*
X167728847Y-32246218D01*
X167708330Y-32233921D01*
X167689117Y-32219671D01*
X167671393Y-32203607D01*
X167655329Y-32185883D01*
X167641079Y-32166670D01*
X167628782Y-32146153D01*
X167618554Y-32124529D01*
X167610496Y-32102007D01*
X167604684Y-32078803D01*
X167601174Y-32055142D01*
X167600000Y-32031250D01*
X167600000Y-31543750D01*
X167601174Y-31519858D01*
X167604684Y-31496197D01*
X167610496Y-31472993D01*
X167618554Y-31450471D01*
X167628782Y-31428847D01*
X167641079Y-31408330D01*
X167655329Y-31389117D01*
X167671393Y-31371393D01*
X167689117Y-31355329D01*
X167708330Y-31341079D01*
X167728847Y-31328782D01*
X167750471Y-31318554D01*
X167772993Y-31310496D01*
X167796197Y-31304684D01*
X167819858Y-31301174D01*
X167843750Y-31300000D01*
X168756250Y-31300000D01*
X168780142Y-31301174D01*
X168780142Y-31301174D01*
G37*
D33*
X168300000Y-31787500D03*
D14*
G36*
X168780142Y-29426174D02*
G01*
X168803803Y-29429684D01*
X168827007Y-29435496D01*
X168849529Y-29443554D01*
X168871153Y-29453782D01*
X168891670Y-29466079D01*
X168910883Y-29480329D01*
X168928607Y-29496393D01*
X168944671Y-29514117D01*
X168958921Y-29533330D01*
X168971218Y-29553847D01*
X168981446Y-29575471D01*
X168989504Y-29597993D01*
X168995316Y-29621197D01*
X168998826Y-29644858D01*
X169000000Y-29668750D01*
X169000000Y-30156250D01*
X168998826Y-30180142D01*
X168995316Y-30203803D01*
X168989504Y-30227007D01*
X168981446Y-30249529D01*
X168971218Y-30271153D01*
X168958921Y-30291670D01*
X168944671Y-30310883D01*
X168928607Y-30328607D01*
X168910883Y-30344671D01*
X168891670Y-30358921D01*
X168871153Y-30371218D01*
X168849529Y-30381446D01*
X168827007Y-30389504D01*
X168803803Y-30395316D01*
X168780142Y-30398826D01*
X168756250Y-30400000D01*
X167843750Y-30400000D01*
X167819858Y-30398826D01*
X167796197Y-30395316D01*
X167772993Y-30389504D01*
X167750471Y-30381446D01*
X167728847Y-30371218D01*
X167708330Y-30358921D01*
X167689117Y-30344671D01*
X167671393Y-30328607D01*
X167655329Y-30310883D01*
X167641079Y-30291670D01*
X167628782Y-30271153D01*
X167618554Y-30249529D01*
X167610496Y-30227007D01*
X167604684Y-30203803D01*
X167601174Y-30180142D01*
X167600000Y-30156250D01*
X167600000Y-29668750D01*
X167601174Y-29644858D01*
X167604684Y-29621197D01*
X167610496Y-29597993D01*
X167618554Y-29575471D01*
X167628782Y-29553847D01*
X167641079Y-29533330D01*
X167655329Y-29514117D01*
X167671393Y-29496393D01*
X167689117Y-29480329D01*
X167708330Y-29466079D01*
X167728847Y-29453782D01*
X167750471Y-29443554D01*
X167772993Y-29435496D01*
X167796197Y-29429684D01*
X167819858Y-29426174D01*
X167843750Y-29425000D01*
X168756250Y-29425000D01*
X168780142Y-29426174D01*
X168780142Y-29426174D01*
G37*
D33*
X168300000Y-29912500D03*
D14*
G36*
X192130142Y-69051174D02*
G01*
X192153803Y-69054684D01*
X192177007Y-69060496D01*
X192199529Y-69068554D01*
X192221153Y-69078782D01*
X192241670Y-69091079D01*
X192260883Y-69105329D01*
X192278607Y-69121393D01*
X192294671Y-69139117D01*
X192308921Y-69158330D01*
X192321218Y-69178847D01*
X192331446Y-69200471D01*
X192339504Y-69222993D01*
X192345316Y-69246197D01*
X192348826Y-69269858D01*
X192350000Y-69293750D01*
X192350000Y-69781250D01*
X192348826Y-69805142D01*
X192345316Y-69828803D01*
X192339504Y-69852007D01*
X192331446Y-69874529D01*
X192321218Y-69896153D01*
X192308921Y-69916670D01*
X192294671Y-69935883D01*
X192278607Y-69953607D01*
X192260883Y-69969671D01*
X192241670Y-69983921D01*
X192221153Y-69996218D01*
X192199529Y-70006446D01*
X192177007Y-70014504D01*
X192153803Y-70020316D01*
X192130142Y-70023826D01*
X192106250Y-70025000D01*
X191193750Y-70025000D01*
X191169858Y-70023826D01*
X191146197Y-70020316D01*
X191122993Y-70014504D01*
X191100471Y-70006446D01*
X191078847Y-69996218D01*
X191058330Y-69983921D01*
X191039117Y-69969671D01*
X191021393Y-69953607D01*
X191005329Y-69935883D01*
X190991079Y-69916670D01*
X190978782Y-69896153D01*
X190968554Y-69874529D01*
X190960496Y-69852007D01*
X190954684Y-69828803D01*
X190951174Y-69805142D01*
X190950000Y-69781250D01*
X190950000Y-69293750D01*
X190951174Y-69269858D01*
X190954684Y-69246197D01*
X190960496Y-69222993D01*
X190968554Y-69200471D01*
X190978782Y-69178847D01*
X190991079Y-69158330D01*
X191005329Y-69139117D01*
X191021393Y-69121393D01*
X191039117Y-69105329D01*
X191058330Y-69091079D01*
X191078847Y-69078782D01*
X191100471Y-69068554D01*
X191122993Y-69060496D01*
X191146197Y-69054684D01*
X191169858Y-69051174D01*
X191193750Y-69050000D01*
X192106250Y-69050000D01*
X192130142Y-69051174D01*
X192130142Y-69051174D01*
G37*
D33*
X191650000Y-69537500D03*
D14*
G36*
X192130142Y-67176174D02*
G01*
X192153803Y-67179684D01*
X192177007Y-67185496D01*
X192199529Y-67193554D01*
X192221153Y-67203782D01*
X192241670Y-67216079D01*
X192260883Y-67230329D01*
X192278607Y-67246393D01*
X192294671Y-67264117D01*
X192308921Y-67283330D01*
X192321218Y-67303847D01*
X192331446Y-67325471D01*
X192339504Y-67347993D01*
X192345316Y-67371197D01*
X192348826Y-67394858D01*
X192350000Y-67418750D01*
X192350000Y-67906250D01*
X192348826Y-67930142D01*
X192345316Y-67953803D01*
X192339504Y-67977007D01*
X192331446Y-67999529D01*
X192321218Y-68021153D01*
X192308921Y-68041670D01*
X192294671Y-68060883D01*
X192278607Y-68078607D01*
X192260883Y-68094671D01*
X192241670Y-68108921D01*
X192221153Y-68121218D01*
X192199529Y-68131446D01*
X192177007Y-68139504D01*
X192153803Y-68145316D01*
X192130142Y-68148826D01*
X192106250Y-68150000D01*
X191193750Y-68150000D01*
X191169858Y-68148826D01*
X191146197Y-68145316D01*
X191122993Y-68139504D01*
X191100471Y-68131446D01*
X191078847Y-68121218D01*
X191058330Y-68108921D01*
X191039117Y-68094671D01*
X191021393Y-68078607D01*
X191005329Y-68060883D01*
X190991079Y-68041670D01*
X190978782Y-68021153D01*
X190968554Y-67999529D01*
X190960496Y-67977007D01*
X190954684Y-67953803D01*
X190951174Y-67930142D01*
X190950000Y-67906250D01*
X190950000Y-67418750D01*
X190951174Y-67394858D01*
X190954684Y-67371197D01*
X190960496Y-67347993D01*
X190968554Y-67325471D01*
X190978782Y-67303847D01*
X190991079Y-67283330D01*
X191005329Y-67264117D01*
X191021393Y-67246393D01*
X191039117Y-67230329D01*
X191058330Y-67216079D01*
X191078847Y-67203782D01*
X191100471Y-67193554D01*
X191122993Y-67185496D01*
X191146197Y-67179684D01*
X191169858Y-67176174D01*
X191193750Y-67175000D01*
X192106250Y-67175000D01*
X192130142Y-67176174D01*
X192130142Y-67176174D01*
G37*
D33*
X191650000Y-67662500D03*
D14*
G36*
X192180142Y-59388674D02*
G01*
X192203803Y-59392184D01*
X192227007Y-59397996D01*
X192249529Y-59406054D01*
X192271153Y-59416282D01*
X192291670Y-59428579D01*
X192310883Y-59442829D01*
X192328607Y-59458893D01*
X192344671Y-59476617D01*
X192358921Y-59495830D01*
X192371218Y-59516347D01*
X192381446Y-59537971D01*
X192389504Y-59560493D01*
X192395316Y-59583697D01*
X192398826Y-59607358D01*
X192400000Y-59631250D01*
X192400000Y-60118750D01*
X192398826Y-60142642D01*
X192395316Y-60166303D01*
X192389504Y-60189507D01*
X192381446Y-60212029D01*
X192371218Y-60233653D01*
X192358921Y-60254170D01*
X192344671Y-60273383D01*
X192328607Y-60291107D01*
X192310883Y-60307171D01*
X192291670Y-60321421D01*
X192271153Y-60333718D01*
X192249529Y-60343946D01*
X192227007Y-60352004D01*
X192203803Y-60357816D01*
X192180142Y-60361326D01*
X192156250Y-60362500D01*
X191243750Y-60362500D01*
X191219858Y-60361326D01*
X191196197Y-60357816D01*
X191172993Y-60352004D01*
X191150471Y-60343946D01*
X191128847Y-60333718D01*
X191108330Y-60321421D01*
X191089117Y-60307171D01*
X191071393Y-60291107D01*
X191055329Y-60273383D01*
X191041079Y-60254170D01*
X191028782Y-60233653D01*
X191018554Y-60212029D01*
X191010496Y-60189507D01*
X191004684Y-60166303D01*
X191001174Y-60142642D01*
X191000000Y-60118750D01*
X191000000Y-59631250D01*
X191001174Y-59607358D01*
X191004684Y-59583697D01*
X191010496Y-59560493D01*
X191018554Y-59537971D01*
X191028782Y-59516347D01*
X191041079Y-59495830D01*
X191055329Y-59476617D01*
X191071393Y-59458893D01*
X191089117Y-59442829D01*
X191108330Y-59428579D01*
X191128847Y-59416282D01*
X191150471Y-59406054D01*
X191172993Y-59397996D01*
X191196197Y-59392184D01*
X191219858Y-59388674D01*
X191243750Y-59387500D01*
X192156250Y-59387500D01*
X192180142Y-59388674D01*
X192180142Y-59388674D01*
G37*
D33*
X191700000Y-59875000D03*
D14*
G36*
X192180142Y-57513674D02*
G01*
X192203803Y-57517184D01*
X192227007Y-57522996D01*
X192249529Y-57531054D01*
X192271153Y-57541282D01*
X192291670Y-57553579D01*
X192310883Y-57567829D01*
X192328607Y-57583893D01*
X192344671Y-57601617D01*
X192358921Y-57620830D01*
X192371218Y-57641347D01*
X192381446Y-57662971D01*
X192389504Y-57685493D01*
X192395316Y-57708697D01*
X192398826Y-57732358D01*
X192400000Y-57756250D01*
X192400000Y-58243750D01*
X192398826Y-58267642D01*
X192395316Y-58291303D01*
X192389504Y-58314507D01*
X192381446Y-58337029D01*
X192371218Y-58358653D01*
X192358921Y-58379170D01*
X192344671Y-58398383D01*
X192328607Y-58416107D01*
X192310883Y-58432171D01*
X192291670Y-58446421D01*
X192271153Y-58458718D01*
X192249529Y-58468946D01*
X192227007Y-58477004D01*
X192203803Y-58482816D01*
X192180142Y-58486326D01*
X192156250Y-58487500D01*
X191243750Y-58487500D01*
X191219858Y-58486326D01*
X191196197Y-58482816D01*
X191172993Y-58477004D01*
X191150471Y-58468946D01*
X191128847Y-58458718D01*
X191108330Y-58446421D01*
X191089117Y-58432171D01*
X191071393Y-58416107D01*
X191055329Y-58398383D01*
X191041079Y-58379170D01*
X191028782Y-58358653D01*
X191018554Y-58337029D01*
X191010496Y-58314507D01*
X191004684Y-58291303D01*
X191001174Y-58267642D01*
X191000000Y-58243750D01*
X191000000Y-57756250D01*
X191001174Y-57732358D01*
X191004684Y-57708697D01*
X191010496Y-57685493D01*
X191018554Y-57662971D01*
X191028782Y-57641347D01*
X191041079Y-57620830D01*
X191055329Y-57601617D01*
X191071393Y-57583893D01*
X191089117Y-57567829D01*
X191108330Y-57553579D01*
X191128847Y-57541282D01*
X191150471Y-57531054D01*
X191172993Y-57522996D01*
X191196197Y-57517184D01*
X191219858Y-57513674D01*
X191243750Y-57512500D01*
X192156250Y-57512500D01*
X192180142Y-57513674D01*
X192180142Y-57513674D01*
G37*
D33*
X191700000Y-58000000D03*
D14*
G36*
X215580142Y-26801174D02*
G01*
X215603803Y-26804684D01*
X215627007Y-26810496D01*
X215649529Y-26818554D01*
X215671153Y-26828782D01*
X215691670Y-26841079D01*
X215710883Y-26855329D01*
X215728607Y-26871393D01*
X215744671Y-26889117D01*
X215758921Y-26908330D01*
X215771218Y-26928847D01*
X215781446Y-26950471D01*
X215789504Y-26972993D01*
X215795316Y-26996197D01*
X215798826Y-27019858D01*
X215800000Y-27043750D01*
X215800000Y-27531250D01*
X215798826Y-27555142D01*
X215795316Y-27578803D01*
X215789504Y-27602007D01*
X215781446Y-27624529D01*
X215771218Y-27646153D01*
X215758921Y-27666670D01*
X215744671Y-27685883D01*
X215728607Y-27703607D01*
X215710883Y-27719671D01*
X215691670Y-27733921D01*
X215671153Y-27746218D01*
X215649529Y-27756446D01*
X215627007Y-27764504D01*
X215603803Y-27770316D01*
X215580142Y-27773826D01*
X215556250Y-27775000D01*
X214643750Y-27775000D01*
X214619858Y-27773826D01*
X214596197Y-27770316D01*
X214572993Y-27764504D01*
X214550471Y-27756446D01*
X214528847Y-27746218D01*
X214508330Y-27733921D01*
X214489117Y-27719671D01*
X214471393Y-27703607D01*
X214455329Y-27685883D01*
X214441079Y-27666670D01*
X214428782Y-27646153D01*
X214418554Y-27624529D01*
X214410496Y-27602007D01*
X214404684Y-27578803D01*
X214401174Y-27555142D01*
X214400000Y-27531250D01*
X214400000Y-27043750D01*
X214401174Y-27019858D01*
X214404684Y-26996197D01*
X214410496Y-26972993D01*
X214418554Y-26950471D01*
X214428782Y-26928847D01*
X214441079Y-26908330D01*
X214455329Y-26889117D01*
X214471393Y-26871393D01*
X214489117Y-26855329D01*
X214508330Y-26841079D01*
X214528847Y-26828782D01*
X214550471Y-26818554D01*
X214572993Y-26810496D01*
X214596197Y-26804684D01*
X214619858Y-26801174D01*
X214643750Y-26800000D01*
X215556250Y-26800000D01*
X215580142Y-26801174D01*
X215580142Y-26801174D01*
G37*
D33*
X215100000Y-27287500D03*
D14*
G36*
X215580142Y-24926174D02*
G01*
X215603803Y-24929684D01*
X215627007Y-24935496D01*
X215649529Y-24943554D01*
X215671153Y-24953782D01*
X215691670Y-24966079D01*
X215710883Y-24980329D01*
X215728607Y-24996393D01*
X215744671Y-25014117D01*
X215758921Y-25033330D01*
X215771218Y-25053847D01*
X215781446Y-25075471D01*
X215789504Y-25097993D01*
X215795316Y-25121197D01*
X215798826Y-25144858D01*
X215800000Y-25168750D01*
X215800000Y-25656250D01*
X215798826Y-25680142D01*
X215795316Y-25703803D01*
X215789504Y-25727007D01*
X215781446Y-25749529D01*
X215771218Y-25771153D01*
X215758921Y-25791670D01*
X215744671Y-25810883D01*
X215728607Y-25828607D01*
X215710883Y-25844671D01*
X215691670Y-25858921D01*
X215671153Y-25871218D01*
X215649529Y-25881446D01*
X215627007Y-25889504D01*
X215603803Y-25895316D01*
X215580142Y-25898826D01*
X215556250Y-25900000D01*
X214643750Y-25900000D01*
X214619858Y-25898826D01*
X214596197Y-25895316D01*
X214572993Y-25889504D01*
X214550471Y-25881446D01*
X214528847Y-25871218D01*
X214508330Y-25858921D01*
X214489117Y-25844671D01*
X214471393Y-25828607D01*
X214455329Y-25810883D01*
X214441079Y-25791670D01*
X214428782Y-25771153D01*
X214418554Y-25749529D01*
X214410496Y-25727007D01*
X214404684Y-25703803D01*
X214401174Y-25680142D01*
X214400000Y-25656250D01*
X214400000Y-25168750D01*
X214401174Y-25144858D01*
X214404684Y-25121197D01*
X214410496Y-25097993D01*
X214418554Y-25075471D01*
X214428782Y-25053847D01*
X214441079Y-25033330D01*
X214455329Y-25014117D01*
X214471393Y-24996393D01*
X214489117Y-24980329D01*
X214508330Y-24966079D01*
X214528847Y-24953782D01*
X214550471Y-24943554D01*
X214572993Y-24935496D01*
X214596197Y-24929684D01*
X214619858Y-24926174D01*
X214643750Y-24925000D01*
X215556250Y-24925000D01*
X215580142Y-24926174D01*
X215580142Y-24926174D01*
G37*
D33*
X215100000Y-25412500D03*
D14*
G36*
X168780142Y-24926174D02*
G01*
X168803803Y-24929684D01*
X168827007Y-24935496D01*
X168849529Y-24943554D01*
X168871153Y-24953782D01*
X168891670Y-24966079D01*
X168910883Y-24980329D01*
X168928607Y-24996393D01*
X168944671Y-25014117D01*
X168958921Y-25033330D01*
X168971218Y-25053847D01*
X168981446Y-25075471D01*
X168989504Y-25097993D01*
X168995316Y-25121197D01*
X168998826Y-25144858D01*
X169000000Y-25168750D01*
X169000000Y-25656250D01*
X168998826Y-25680142D01*
X168995316Y-25703803D01*
X168989504Y-25727007D01*
X168981446Y-25749529D01*
X168971218Y-25771153D01*
X168958921Y-25791670D01*
X168944671Y-25810883D01*
X168928607Y-25828607D01*
X168910883Y-25844671D01*
X168891670Y-25858921D01*
X168871153Y-25871218D01*
X168849529Y-25881446D01*
X168827007Y-25889504D01*
X168803803Y-25895316D01*
X168780142Y-25898826D01*
X168756250Y-25900000D01*
X167843750Y-25900000D01*
X167819858Y-25898826D01*
X167796197Y-25895316D01*
X167772993Y-25889504D01*
X167750471Y-25881446D01*
X167728847Y-25871218D01*
X167708330Y-25858921D01*
X167689117Y-25844671D01*
X167671393Y-25828607D01*
X167655329Y-25810883D01*
X167641079Y-25791670D01*
X167628782Y-25771153D01*
X167618554Y-25749529D01*
X167610496Y-25727007D01*
X167604684Y-25703803D01*
X167601174Y-25680142D01*
X167600000Y-25656250D01*
X167600000Y-25168750D01*
X167601174Y-25144858D01*
X167604684Y-25121197D01*
X167610496Y-25097993D01*
X167618554Y-25075471D01*
X167628782Y-25053847D01*
X167641079Y-25033330D01*
X167655329Y-25014117D01*
X167671393Y-24996393D01*
X167689117Y-24980329D01*
X167708330Y-24966079D01*
X167728847Y-24953782D01*
X167750471Y-24943554D01*
X167772993Y-24935496D01*
X167796197Y-24929684D01*
X167819858Y-24926174D01*
X167843750Y-24925000D01*
X168756250Y-24925000D01*
X168780142Y-24926174D01*
X168780142Y-24926174D01*
G37*
D33*
X168300000Y-25412500D03*
D14*
G36*
X168780142Y-26801174D02*
G01*
X168803803Y-26804684D01*
X168827007Y-26810496D01*
X168849529Y-26818554D01*
X168871153Y-26828782D01*
X168891670Y-26841079D01*
X168910883Y-26855329D01*
X168928607Y-26871393D01*
X168944671Y-26889117D01*
X168958921Y-26908330D01*
X168971218Y-26928847D01*
X168981446Y-26950471D01*
X168989504Y-26972993D01*
X168995316Y-26996197D01*
X168998826Y-27019858D01*
X169000000Y-27043750D01*
X169000000Y-27531250D01*
X168998826Y-27555142D01*
X168995316Y-27578803D01*
X168989504Y-27602007D01*
X168981446Y-27624529D01*
X168971218Y-27646153D01*
X168958921Y-27666670D01*
X168944671Y-27685883D01*
X168928607Y-27703607D01*
X168910883Y-27719671D01*
X168891670Y-27733921D01*
X168871153Y-27746218D01*
X168849529Y-27756446D01*
X168827007Y-27764504D01*
X168803803Y-27770316D01*
X168780142Y-27773826D01*
X168756250Y-27775000D01*
X167843750Y-27775000D01*
X167819858Y-27773826D01*
X167796197Y-27770316D01*
X167772993Y-27764504D01*
X167750471Y-27756446D01*
X167728847Y-27746218D01*
X167708330Y-27733921D01*
X167689117Y-27719671D01*
X167671393Y-27703607D01*
X167655329Y-27685883D01*
X167641079Y-27666670D01*
X167628782Y-27646153D01*
X167618554Y-27624529D01*
X167610496Y-27602007D01*
X167604684Y-27578803D01*
X167601174Y-27555142D01*
X167600000Y-27531250D01*
X167600000Y-27043750D01*
X167601174Y-27019858D01*
X167604684Y-26996197D01*
X167610496Y-26972993D01*
X167618554Y-26950471D01*
X167628782Y-26928847D01*
X167641079Y-26908330D01*
X167655329Y-26889117D01*
X167671393Y-26871393D01*
X167689117Y-26855329D01*
X167708330Y-26841079D01*
X167728847Y-26828782D01*
X167750471Y-26818554D01*
X167772993Y-26810496D01*
X167796197Y-26804684D01*
X167819858Y-26801174D01*
X167843750Y-26800000D01*
X168756250Y-26800000D01*
X168780142Y-26801174D01*
X168780142Y-26801174D01*
G37*
D33*
X168300000Y-27287500D03*
D14*
G36*
X192180142Y-52876174D02*
G01*
X192203803Y-52879684D01*
X192227007Y-52885496D01*
X192249529Y-52893554D01*
X192271153Y-52903782D01*
X192291670Y-52916079D01*
X192310883Y-52930329D01*
X192328607Y-52946393D01*
X192344671Y-52964117D01*
X192358921Y-52983330D01*
X192371218Y-53003847D01*
X192381446Y-53025471D01*
X192389504Y-53047993D01*
X192395316Y-53071197D01*
X192398826Y-53094858D01*
X192400000Y-53118750D01*
X192400000Y-53606250D01*
X192398826Y-53630142D01*
X192395316Y-53653803D01*
X192389504Y-53677007D01*
X192381446Y-53699529D01*
X192371218Y-53721153D01*
X192358921Y-53741670D01*
X192344671Y-53760883D01*
X192328607Y-53778607D01*
X192310883Y-53794671D01*
X192291670Y-53808921D01*
X192271153Y-53821218D01*
X192249529Y-53831446D01*
X192227007Y-53839504D01*
X192203803Y-53845316D01*
X192180142Y-53848826D01*
X192156250Y-53850000D01*
X191243750Y-53850000D01*
X191219858Y-53848826D01*
X191196197Y-53845316D01*
X191172993Y-53839504D01*
X191150471Y-53831446D01*
X191128847Y-53821218D01*
X191108330Y-53808921D01*
X191089117Y-53794671D01*
X191071393Y-53778607D01*
X191055329Y-53760883D01*
X191041079Y-53741670D01*
X191028782Y-53721153D01*
X191018554Y-53699529D01*
X191010496Y-53677007D01*
X191004684Y-53653803D01*
X191001174Y-53630142D01*
X191000000Y-53606250D01*
X191000000Y-53118750D01*
X191001174Y-53094858D01*
X191004684Y-53071197D01*
X191010496Y-53047993D01*
X191018554Y-53025471D01*
X191028782Y-53003847D01*
X191041079Y-52983330D01*
X191055329Y-52964117D01*
X191071393Y-52946393D01*
X191089117Y-52930329D01*
X191108330Y-52916079D01*
X191128847Y-52903782D01*
X191150471Y-52893554D01*
X191172993Y-52885496D01*
X191196197Y-52879684D01*
X191219858Y-52876174D01*
X191243750Y-52875000D01*
X192156250Y-52875000D01*
X192180142Y-52876174D01*
X192180142Y-52876174D01*
G37*
D33*
X191700000Y-53362500D03*
D14*
G36*
X192180142Y-54751174D02*
G01*
X192203803Y-54754684D01*
X192227007Y-54760496D01*
X192249529Y-54768554D01*
X192271153Y-54778782D01*
X192291670Y-54791079D01*
X192310883Y-54805329D01*
X192328607Y-54821393D01*
X192344671Y-54839117D01*
X192358921Y-54858330D01*
X192371218Y-54878847D01*
X192381446Y-54900471D01*
X192389504Y-54922993D01*
X192395316Y-54946197D01*
X192398826Y-54969858D01*
X192400000Y-54993750D01*
X192400000Y-55481250D01*
X192398826Y-55505142D01*
X192395316Y-55528803D01*
X192389504Y-55552007D01*
X192381446Y-55574529D01*
X192371218Y-55596153D01*
X192358921Y-55616670D01*
X192344671Y-55635883D01*
X192328607Y-55653607D01*
X192310883Y-55669671D01*
X192291670Y-55683921D01*
X192271153Y-55696218D01*
X192249529Y-55706446D01*
X192227007Y-55714504D01*
X192203803Y-55720316D01*
X192180142Y-55723826D01*
X192156250Y-55725000D01*
X191243750Y-55725000D01*
X191219858Y-55723826D01*
X191196197Y-55720316D01*
X191172993Y-55714504D01*
X191150471Y-55706446D01*
X191128847Y-55696218D01*
X191108330Y-55683921D01*
X191089117Y-55669671D01*
X191071393Y-55653607D01*
X191055329Y-55635883D01*
X191041079Y-55616670D01*
X191028782Y-55596153D01*
X191018554Y-55574529D01*
X191010496Y-55552007D01*
X191004684Y-55528803D01*
X191001174Y-55505142D01*
X191000000Y-55481250D01*
X191000000Y-54993750D01*
X191001174Y-54969858D01*
X191004684Y-54946197D01*
X191010496Y-54922993D01*
X191018554Y-54900471D01*
X191028782Y-54878847D01*
X191041079Y-54858330D01*
X191055329Y-54839117D01*
X191071393Y-54821393D01*
X191089117Y-54805329D01*
X191108330Y-54791079D01*
X191128847Y-54778782D01*
X191150471Y-54768554D01*
X191172993Y-54760496D01*
X191196197Y-54754684D01*
X191219858Y-54751174D01*
X191243750Y-54750000D01*
X192156250Y-54750000D01*
X192180142Y-54751174D01*
X192180142Y-54751174D01*
G37*
D33*
X191700000Y-55237500D03*
M02*
