G04 #@! TF.GenerationSoftware,KiCad,Pcbnew,5.1.4-e60b266~84~ubuntu18.04.1*
G04 #@! TF.CreationDate,2019-09-24T21:27:11-04:00*
G04 #@! TF.ProjectId,DE10nano interface,44453130-6e61-46e6-9f20-696e74657266,rev?*
G04 #@! TF.SameCoordinates,Original*
G04 #@! TF.FileFunction,Legend,Bot*
G04 #@! TF.FilePolarity,Positive*
%FSLAX46Y46*%
G04 Gerber Fmt 4.6, Leading zero omitted, Abs format (unit mm)*
G04 Created by KiCad (PCBNEW 5.1.4-e60b266~84~ubuntu18.04.1) date 2019-09-24 21:27:11*
%MOMM*%
%LPD*%
G04 APERTURE LIST*
%ADD10C,0.250000*%
%ADD11C,0.150000*%
%ADD12C,0.120000*%
G04 APERTURE END LIST*
D10*
X155647619Y-149857142D02*
X155695238Y-149904761D01*
X155838095Y-149952380D01*
X155933333Y-149952380D01*
X156076190Y-149904761D01*
X156171428Y-149809523D01*
X156219047Y-149714285D01*
X156266666Y-149523809D01*
X156266666Y-149380952D01*
X156219047Y-149190476D01*
X156171428Y-149095238D01*
X156076190Y-149000000D01*
X155933333Y-148952380D01*
X155838095Y-148952380D01*
X155695238Y-149000000D01*
X155647619Y-149047619D01*
X154647619Y-149857142D02*
X154695238Y-149904761D01*
X154838095Y-149952380D01*
X154933333Y-149952380D01*
X155076190Y-149904761D01*
X155171428Y-149809523D01*
X155219047Y-149714285D01*
X155266666Y-149523809D01*
X155266666Y-149380952D01*
X155219047Y-149190476D01*
X155171428Y-149095238D01*
X155076190Y-149000000D01*
X154933333Y-148952380D01*
X154838095Y-148952380D01*
X154695238Y-149000000D01*
X154647619Y-149047619D01*
X154219047Y-149571428D02*
X153457142Y-149571428D01*
X152647619Y-149428571D02*
X152504761Y-149476190D01*
X152457142Y-149523809D01*
X152409523Y-149619047D01*
X152409523Y-149761904D01*
X152457142Y-149857142D01*
X152504761Y-149904761D01*
X152600000Y-149952380D01*
X152980952Y-149952380D01*
X152980952Y-148952380D01*
X152647619Y-148952380D01*
X152552380Y-149000000D01*
X152504761Y-149047619D01*
X152457142Y-149142857D01*
X152457142Y-149238095D01*
X152504761Y-149333333D01*
X152552380Y-149380952D01*
X152647619Y-149428571D01*
X152980952Y-149428571D01*
X151790476Y-149476190D02*
X151790476Y-149952380D01*
X152123809Y-148952380D02*
X151790476Y-149476190D01*
X151457142Y-148952380D01*
X151123809Y-149571428D02*
X150361904Y-149571428D01*
X149457142Y-149285714D02*
X149457142Y-149952380D01*
X149695238Y-148904761D02*
X149933333Y-149619047D01*
X149314285Y-149619047D01*
X148933333Y-149857142D02*
X148885714Y-149904761D01*
X148933333Y-149952380D01*
X148980952Y-149904761D01*
X148933333Y-149857142D01*
X148933333Y-149952380D01*
X148266666Y-148952380D02*
X148171428Y-148952380D01*
X148076190Y-149000000D01*
X148028571Y-149047619D01*
X147980952Y-149142857D01*
X147933333Y-149333333D01*
X147933333Y-149571428D01*
X147980952Y-149761904D01*
X148028571Y-149857142D01*
X148076190Y-149904761D01*
X148171428Y-149952380D01*
X148266666Y-149952380D01*
X148361904Y-149904761D01*
X148409523Y-149857142D01*
X148457142Y-149761904D01*
X148504761Y-149571428D01*
X148504761Y-149333333D01*
X148457142Y-149142857D01*
X148409523Y-149047619D01*
X148361904Y-149000000D01*
X148266666Y-148952380D01*
D11*
X157388000Y-142150000D02*
G75*
G03X157388000Y-142150000I-5588000J0D01*
G01*
X156980604Y-142150000D02*
G75*
G03X156980604Y-142150000I-5180604J0D01*
G01*
X154797200Y-143348880D02*
X154398420Y-143348880D01*
X152996340Y-144748420D02*
X152495960Y-144850020D01*
X153697380Y-144550300D02*
X152996340Y-144748420D01*
X154296820Y-144148980D02*
X153697380Y-144550300D01*
X154698140Y-143648600D02*
X154296820Y-144148980D01*
X155099460Y-142950100D02*
X154799740Y-143549540D01*
X155099460Y-142551320D02*
X155000400Y-143150760D01*
X155099460Y-141850280D02*
X155099460Y-142551320D01*
X154898800Y-141250840D02*
X155099460Y-141850280D01*
X154398420Y-140549800D02*
X154898800Y-141250840D01*
X153900580Y-140051960D02*
X154398420Y-140450740D01*
X153298600Y-139752240D02*
X153900580Y-140051960D01*
X152800760Y-139650640D02*
X153298600Y-139752240D01*
X152399440Y-139650640D02*
X152800760Y-139650640D01*
X152000660Y-139752240D02*
X152399440Y-139650640D01*
X152099720Y-139950360D02*
X152000660Y-139752240D01*
X152498500Y-139950360D02*
X152099720Y-139950360D01*
X152998880Y-139950360D02*
X152498500Y-139950360D01*
X153499260Y-140151020D02*
X152998880Y-139950360D01*
X153999640Y-140450740D02*
X153499260Y-140151020D01*
X154500020Y-141050180D02*
X153999640Y-140549800D01*
X154799740Y-141349900D02*
X154500020Y-140849520D01*
X154898800Y-142150000D02*
X154799740Y-141550560D01*
X154799740Y-142851040D02*
X154898800Y-142150000D01*
X154599080Y-143549540D02*
X154799740Y-142851040D01*
X154096160Y-143948320D02*
X154596540Y-143447940D01*
X153397660Y-144448700D02*
X154096160Y-143948320D01*
X152696620Y-144649360D02*
X153397660Y-144448700D01*
X152097180Y-144550300D02*
X152696620Y-144649360D01*
X151998120Y-144248040D02*
X152097180Y-144550300D01*
X152297840Y-144349640D02*
X151998120Y-144248040D01*
X152696620Y-144349640D02*
X152297840Y-144349640D01*
X153097940Y-144248040D02*
X152696620Y-144349640D01*
X153595780Y-144049920D02*
X153097940Y-144248040D01*
X154096160Y-143648600D02*
X153595780Y-144049920D01*
X154497480Y-143150760D02*
X154197760Y-143549540D01*
X154599080Y-142350660D02*
X154398420Y-143150760D01*
X154599080Y-141850280D02*
X154599080Y-142350660D01*
X154500020Y-141349900D02*
X154599080Y-141850280D01*
X154200300Y-140849520D02*
X154500020Y-141349900D01*
X153699920Y-140552340D02*
X154200300Y-140951120D01*
X153199540Y-140252620D02*
X153699920Y-140552340D01*
X152699160Y-140151020D02*
X153199540Y-140252620D01*
X152198780Y-140151020D02*
X152699160Y-140151020D01*
X150997360Y-141050180D02*
X151198020Y-141448960D01*
X150697640Y-140549800D02*
X150997360Y-141050180D01*
X150298860Y-140148480D02*
X150697640Y-140549800D01*
X149798480Y-139947820D02*
X150298860Y-140148480D01*
X149397160Y-139749700D02*
X149798480Y-139947820D01*
X148797720Y-139749700D02*
X149397160Y-139749700D01*
X148398940Y-144248040D02*
X148099220Y-144148980D01*
X148899320Y-144248040D02*
X148398940Y-144248040D01*
X149498760Y-144148980D02*
X148899320Y-144248040D01*
X150098200Y-143849260D02*
X149498760Y-144148980D01*
X150499520Y-143348880D02*
X150098200Y-143849260D01*
X150799240Y-142848500D02*
X150499520Y-143348880D01*
X150799240Y-142249060D02*
X150799240Y-142848500D01*
X150799240Y-141748680D02*
X150799240Y-142249060D01*
X150499520Y-141149240D02*
X150799240Y-141748680D01*
X149999140Y-140549800D02*
X150499520Y-141149240D01*
X149298100Y-140250080D02*
X149999140Y-140549800D01*
X148698660Y-140250080D02*
X149298100Y-140250080D01*
X148797720Y-140049420D02*
X148698660Y-140250080D01*
X149498760Y-140049420D02*
X148797720Y-140049420D01*
X150197260Y-140448200D02*
X149498760Y-140049420D01*
X150799240Y-141149240D02*
X150197260Y-140448200D01*
X151098960Y-141850280D02*
X150799240Y-141149240D01*
X150997360Y-142848500D02*
X151098960Y-141850280D01*
X150598580Y-143750200D02*
X150997360Y-142848500D01*
X149999140Y-144248040D02*
X150598580Y-143750200D01*
X148998380Y-144550300D02*
X149999140Y-144248040D01*
X148099220Y-144448700D02*
X148998380Y-144550300D01*
X147997620Y-144649360D02*
X148099220Y-144448700D01*
X148398940Y-144748420D02*
X147997620Y-144649360D01*
X148797720Y-144748420D02*
X148398940Y-144748420D01*
X149199040Y-144748420D02*
X148797720Y-144748420D01*
X149699420Y-144649360D02*
X149199040Y-144748420D01*
X150298860Y-144349640D02*
X149699420Y-144649360D01*
X150799240Y-143849260D02*
X150298860Y-144349640D01*
X151198020Y-143249820D02*
X150799240Y-143849260D01*
X151297080Y-142647840D02*
X151198020Y-143249820D01*
X151297080Y-141949340D02*
X151297080Y-142647840D01*
X151198020Y-141448960D02*
X151297080Y-141949340D01*
X150400460Y-136950620D02*
X151800000Y-136849020D01*
X149399700Y-137349400D02*
X150400460Y-136950620D01*
X148398940Y-138050440D02*
X149399700Y-137349400D01*
X147101000Y-139650640D02*
X148398940Y-138050440D01*
X146600620Y-140750460D02*
X147101000Y-139650640D01*
X146399960Y-142449720D02*
X146600620Y-140750460D01*
X146798740Y-143950860D02*
X146399960Y-142449720D01*
X147598840Y-145551060D02*
X146798740Y-143950860D01*
X149199040Y-146849000D02*
X147598840Y-145551060D01*
X150199800Y-147349380D02*
X149199040Y-146849000D01*
X151700940Y-147450980D02*
X150199800Y-147349380D01*
X153100480Y-147450980D02*
X151700940Y-147450980D01*
X154400960Y-146950600D02*
X153100480Y-147450980D01*
X155599840Y-146048900D02*
X154400960Y-146950600D01*
X156600600Y-144550300D02*
X155599840Y-146048900D01*
X156999380Y-143450480D02*
X156600600Y-144550300D01*
X157200040Y-142249060D02*
X156999380Y-143450480D01*
X157100980Y-141050180D02*
X157200040Y-142249060D01*
X156801260Y-140049420D02*
X157100980Y-141050180D01*
X156300880Y-139150260D02*
X156801260Y-140049420D01*
X155800500Y-138550820D02*
X156300880Y-139150260D01*
X155099460Y-137948840D02*
X155800500Y-138550820D01*
X154500020Y-137451000D02*
X155099460Y-137948840D01*
X153798980Y-137250340D02*
X154500020Y-137451000D01*
X153100480Y-137049680D02*
X153798980Y-137250340D01*
X152300380Y-136749960D02*
X153100480Y-137049680D01*
X151800000Y-136749960D02*
X152300380Y-136749960D01*
X148500540Y-139848760D02*
X148701200Y-140151020D01*
X148800260Y-139749700D02*
X148500540Y-139848760D01*
X148099220Y-144250580D02*
X148000160Y-144550300D01*
X151998120Y-144550300D02*
X152097180Y-144748420D01*
X155201060Y-142548780D02*
X155099460Y-143049160D01*
X155099460Y-141649620D02*
X155201060Y-142548780D01*
X154898800Y-141149240D02*
X155099460Y-141649620D01*
X154500020Y-140549800D02*
X154898800Y-141149240D01*
X154299360Y-140450740D02*
X154500020Y-140549800D01*
X152099720Y-144750960D02*
X152000660Y-144250580D01*
X152501040Y-144850020D02*
X152099720Y-144750960D01*
D12*
X121934200Y-47131800D02*
X119934200Y-47131800D01*
X119934200Y-47131800D02*
X119934200Y-43231800D01*
X121934200Y-47131800D02*
X121934200Y-43231800D01*
X119934200Y-47711800D02*
X119934200Y-51611800D01*
X121934200Y-47711800D02*
X121934200Y-51611800D01*
X119934200Y-47711800D02*
X121934200Y-47711800D01*
D11*
X124148795Y-45397680D02*
X124148795Y-44397680D01*
X123910700Y-44397680D01*
X123767842Y-44445300D01*
X123672604Y-44540538D01*
X123624985Y-44635776D01*
X123577366Y-44826252D01*
X123577366Y-44969109D01*
X123624985Y-45159585D01*
X123672604Y-45254823D01*
X123767842Y-45350061D01*
X123910700Y-45397680D01*
X124148795Y-45397680D01*
X123244033Y-44397680D02*
X122624985Y-44397680D01*
X122958319Y-44778633D01*
X122815461Y-44778633D01*
X122720223Y-44826252D01*
X122672604Y-44873871D01*
X122624985Y-44969109D01*
X122624985Y-45207204D01*
X122672604Y-45302442D01*
X122720223Y-45350061D01*
X122815461Y-45397680D01*
X123101176Y-45397680D01*
X123196414Y-45350061D01*
X123244033Y-45302442D01*
X124085295Y-50668180D02*
X124085295Y-49668180D01*
X123847200Y-49668180D01*
X123704342Y-49715800D01*
X123609104Y-49811038D01*
X123561485Y-49906276D01*
X123513866Y-50096752D01*
X123513866Y-50239609D01*
X123561485Y-50430085D01*
X123609104Y-50525323D01*
X123704342Y-50620561D01*
X123847200Y-50668180D01*
X124085295Y-50668180D01*
X122656723Y-50001514D02*
X122656723Y-50668180D01*
X122894819Y-49620561D02*
X123132914Y-50334847D01*
X122513866Y-50334847D01*
M02*
